<svg width="196" height="39" viewBox="0 0 196 39" fill="none" xmlns="http://www.w3.org/2000/svg">
<path d="M0 38.625H18.9471L0 19.5V38.625Z" fill="#00CD69"/>
<path d="M37.8941 38.625V19.5L18.9471 38.625H37.8941Z" fill="#00CD69"/>
<path d="M18.947 0.375L37.8941 19.5L37.8941 0.375H18.947Z" fill="#00CD69"/>
<path d="M0 0.375V19.5L18.947 0.375H0Z" fill="#00CD69"/>
<path d="M55.1009 9.46503V12.66H59.0241L52.3369 29.085H57.2408L58.712 25.035H67.0488L68.5645 29.085H73.6023L65.6221 9.46503H55.1009ZM60.0494 21.48L62.8581 13.965L65.7113 21.48H60.0494Z" fill="#1F2937"/>
<path d="M85.7727 16.6646C85.1034 15.5396 83.588 14.3246 81.2248 14.3246C77.5248 14.3246 74.6271 16.9796 74.6271 21.6146C74.6271 26.1596 77.5248 28.8147 81.2248 28.8147C83.4541 28.8147 84.8812 27.7346 85.5942 26.6996V28.0047C85.5942 30.6596 83.4988 31.5596 81.3587 31.5596C79.3081 31.5596 77.5695 30.9746 75.9645 29.8947V33.4496C77.4357 34.3496 79.3973 34.8897 82.0717 34.8897C86.575 34.8897 90.0074 32.5947 90.0074 28.0946V14.6846H85.7727V16.6646ZM82.4287 25.4396C80.4227 25.4396 79.0852 23.9096 79.0852 21.6146C79.0407 19.2297 80.4227 17.7896 82.4287 17.7896C83.6326 17.7896 84.7473 18.1946 85.6388 19.0496V24.2247C84.7473 24.9897 83.6326 25.4396 82.4287 25.4396Z" fill="#1F2937"/>
<path d="M99.8152 17.8794L99.1468 14.6394H92.5034V17.6544H95.4458V29.0394H99.9044V20.2194C100.528 19.1844 101.777 18.3744 104.051 18.3744C104.719 18.3744 105.388 18.4644 105.789 18.5994V14.5944C105.521 14.4594 105.032 14.3694 104.541 14.3694C101.732 14.3694 100.171 16.0794 99.8152 17.8794Z" fill="#1F2937"/>
<path d="M115.198 14.3246C110.606 14.3246 107.173 17.3397 107.173 21.8847C107.173 26.4296 110.561 29.3996 115.198 29.3996C119.745 29.3996 123.178 26.4296 123.178 21.8847C123.178 17.3397 119.745 14.3246 115.198 14.3246ZM115.198 25.8896C113.058 25.8896 111.631 24.2247 111.631 21.8847C111.631 19.4996 113.058 17.8346 115.198 17.8346C117.293 17.8346 118.72 19.4996 118.72 21.8847C118.72 24.2247 117.293 25.8896 115.198 25.8896Z" fill="#1F2937"/>
<path d="M134.099 14.324C132.004 14.324 130.622 15.314 129.864 16.349V8.83405H125.406V29.084H129.641V27.149C130.354 28.274 131.825 29.444 134.099 29.444C137.799 29.444 140.697 26.654 140.697 21.929C140.697 17.114 137.799 14.324 134.099 14.324ZM132.94 25.889C131.781 25.889 130.711 25.484 129.864 24.674V19.049C130.711 18.239 131.781 17.834 132.94 17.834C134.991 17.834 136.283 19.409 136.283 21.8841C136.239 24.314 134.946 25.889 132.94 25.889Z" fill="#1F2937"/>
<path d="M156.882 25.4396V19.9496C156.882 16.4846 154.252 14.3246 149.972 14.3246C147.341 14.3246 145.424 14.9096 143.998 15.7647V19.2746C145.469 18.2396 147.297 17.6096 149.214 17.6096C151.175 17.6096 152.602 18.3746 152.602 20.3096V20.6696C151.8 20.4446 150.641 20.2646 149.437 20.2646C145.96 20.2646 142.794 21.6596 142.794 24.8546C142.794 27.4646 145.113 29.3546 148.188 29.3546C150.641 29.3546 151.934 28.4996 152.736 27.4646C153.182 28.7697 154.609 29.3546 155.99 29.3546C157.417 29.3546 158.13 29.0396 158.621 28.8146V26.2046C158.443 26.2496 158.13 26.2946 157.907 26.2946C157.373 26.3846 156.882 26.1147 156.882 25.4396ZM149.571 26.3846C148.144 26.3846 147.208 25.7097 147.208 24.7196C147.208 23.4147 148.679 22.9646 150.017 22.9646C150.998 22.9646 151.845 23.0996 152.558 23.3246V25.0346C151.8 25.8896 150.864 26.3846 149.571 26.3846Z" fill="#1F2937"/>
<path d="M170.923 14.3246C168.471 14.3246 166.822 15.5846 165.975 16.7546L165.529 14.6397H158.886V17.6547H161.829V29.0396H166.287V19.0496C166.911 18.3746 167.936 17.9696 169.051 17.9696C170.834 17.9696 171.86 18.8697 171.86 20.7597V29.0846H176.317V19.4996C176.362 16.1246 174.044 14.3246 170.923 14.3246Z" fill="#1F2937"/>
<path d="M195.399 29.039V26.0691H193.348L189.96 21.1191L194.462 14.684H190.005L186.393 19.904H184.432V8.83405H179.974V29.084H184.432V23.099H186.438L190.361 29.084H190.495H195.399H195.443L195.399 29.039Z" fill="#1F2937"/>
</svg>
