<svg width="24" height="24" viewBox="0 0 24 24" fill="none" xmlns="http://www.w3.org/2000/svg">
<path d="M19.9086 4.11535C19.8982 3.1537 19.603 2.18453 18.7663 1.64577C17.9518 1.12055 16.8688 1.13109 16.2279 1.9302C16.176 1.99491 16.0648 2.10477 16.0974 2.19958C16.13 2.29439 16.3318 2.27332 16.4163 2.31546C16.4827 2.35167 16.537 2.40702 16.5724 2.47452C16.6078 2.54201 16.6227 2.61863 16.6151 2.6947C16.6151 2.8768 16.6151 4.63154 16.6018 7.04845L10.3116 7.01082C10.2195 5.82796 10.2889 4.63785 10.5178 3.47425C10.5683 3.21842 10.6261 2.96559 10.6914 2.71276C10.7626 2.43585 10.9599 2.09574 10.9391 1.80981C10.9382 1.77065 10.9252 1.73277 10.902 1.70145C10.8457 1.63072 10.7389 1.64276 10.6513 1.66533C10.1083 1.8114 9.60706 2.08575 9.18857 2.46595C8.88198 2.75311 8.623 3.08849 8.42158 3.4592C7.61454 4.9265 7.55223 7.0033 7.55223 7.0033C7.51069 8.34569 7.45877 11.0666 8.86812 13.8913C8.86812 13.8913 9.85764 15.8718 11.27 16.3594C11.5489 16.4572 11.6245 16.3925 11.6498 16.3594C11.7595 16.2164 11.5237 15.9696 11.4539 15.8613C11.3262 15.6584 11.2145 15.4456 11.1201 15.2247C10.9293 14.7664 10.7875 14.2886 10.6973 13.7995C10.382 12.324 10.2326 10.817 10.2523 9.30734H16.6033V14.9914C16.5924 15.1759 16.6329 15.3597 16.7203 15.5218C16.8077 15.6839 16.9383 15.8177 17.0973 15.9079C17.3092 16.0048 17.5361 16.0634 17.7678 16.081C18.1689 16.145 18.5774 16.145 18.9784 16.081C19.2152 16.0435 19.4367 15.9392 19.6178 15.78C19.8982 15.5167 19.9027 15.16 19.9027 14.8003C19.9027 11.941 19.9279 9.08912 19.9249 6.23428C19.9229 5.53399 19.9175 4.82768 19.9086 4.11535Z" fill="#718096"/>
<path d="M11.2072 17.0762C8.6451 16.3162 7.64668 13.5622 7.09777 11.1738C6.97908 10.6531 6.86485 10.14 6.80106 9.60872C6.59633 8.00297 6.60523 6.23769 7.11854 4.68762C6.72837 4.77792 6.55034 5.11953 6.32188 5.39644C5.48813 6.40775 5.42137 7.58912 5.38132 8.76296C5.31171 10.5432 5.69542 12.3117 6.49545 13.8978C6.82615 14.5275 7.22954 15.115 7.69712 15.648C8.16475 16.173 8.69614 16.6357 9.27856 17.025C8.33728 16.7921 7.48846 16.2734 6.84557 15.5381C6.58163 15.1978 6.34216 14.8387 6.12902 14.4636C5.72253 13.7473 5.21516 12.8548 4.95554 11.6584C4.88285 11.3228 4.83389 10.9812 4.70334 10.9677C4.51642 10.9481 4.30279 11.6283 4.25828 11.7743C4.14124 12.1446 4.07973 12.5307 4.07581 12.9196C4.08619 13.8225 4.7523 15.5788 6.34858 16.7707C6.34858 16.7707 7.74311 17.8121 10.1286 17.8918C10.5195 17.895 10.9029 17.7831 11.2324 17.5698C11.443 17.4223 11.5825 17.1875 11.2072 17.0762Z" fill="#718096"/>
<path d="M6.52956 20.0829V23.9339H5.63834V22.355H3.8889V23.9339H2.99768V20.0829H3.8889V21.6013H5.63834V20.0829H6.52956Z" fill="#718096"/>
<path d="M9.15161 23.9999C8.60148 23.9999 8.17237 23.8477 7.86429 23.5433C7.55988 23.2389 7.40768 22.8043 7.40768 22.2395V20.0829H8.2989V22.2065C8.2989 22.896 8.58497 23.2407 9.15712 23.2407C9.43585 23.2407 9.64857 23.1582 9.79527 22.9931C9.94198 22.8244 10.0153 22.5622 10.0153 22.2065V20.0829H10.8955V22.2395C10.8955 22.8043 10.7415 23.2389 10.4334 23.5433C10.129 23.8477 9.70175 23.9999 9.15161 23.9999Z" fill="#718096"/>
<path d="M15.2806 23.9339L15.2751 21.6233L14.1418 23.5268H13.7402L12.6125 21.6728V23.9339H11.7762V20.0829H12.5134L13.9548 22.476L15.3741 20.0829H16.1058L16.1168 23.9339H15.2806Z" fill="#718096"/>
<path d="M18.8955 23.9999C18.4957 23.9999 18.1344 23.9137 17.8117 23.7413C17.4926 23.569 17.2414 23.3324 17.058 23.0317C16.8783 22.7272 16.7884 22.3862 16.7884 22.0084C16.7884 21.6306 16.8783 21.2914 17.058 20.9906C17.2414 20.6862 17.4926 20.4478 17.8117 20.2755C18.1344 20.1031 18.4957 20.0169 18.8955 20.0169C19.2952 20.0169 19.6546 20.1031 19.9737 20.2755C20.2928 20.4478 20.544 20.6862 20.7274 20.9906C20.9108 21.2914 21.0025 21.6306 21.0025 22.0084C21.0025 22.3862 20.9108 22.7272 20.7274 23.0317C20.544 23.3324 20.2928 23.569 19.9737 23.7413C19.6546 23.9137 19.2952 23.9999 18.8955 23.9999ZM18.8955 23.2407C19.1228 23.2407 19.3282 23.1894 19.5116 23.0867C19.695 22.9803 19.838 22.8336 19.9407 22.6466C20.0471 22.4595 20.1003 22.2468 20.1003 22.0084C20.1003 21.77 20.0471 21.5573 19.9407 21.3702C19.838 21.1832 19.695 21.0383 19.5116 20.9356C19.3282 20.8293 19.1228 20.7761 18.8955 20.7761C18.6681 20.7761 18.4627 20.8293 18.2793 20.9356C18.0959 21.0383 17.9511 21.1832 17.8447 21.3702C17.742 21.5573 17.6907 21.77 17.6907 22.0084C17.6907 22.2468 17.742 22.4595 17.8447 22.6466C17.9511 22.8336 18.0959 22.9803 18.2793 23.0867C18.4627 23.1894 18.6681 23.2407 18.8955 23.2407Z" fill="#718096"/>
</svg>
