<svg width="48" height="48" viewBox="0 0 48 48" fill="none" xmlns="http://www.w3.org/2000/svg">
<path fill-rule="evenodd" clip-rule="evenodd" d="M24.0001 15.75C23.6685 15.75 23.3506 15.8817 23.1162 16.1161C22.8849 16.3474 22.7536 16.6601 22.7501 16.9868C22.7526 17.1338 22.7116 17.2781 22.6338 17.4013C22.5774 17.4905 22.5018 17.5686 22.4093 17.6286C22.3767 17.6499 22.3423 17.6687 22.3064 17.6848C21.2872 18.1699 20.4183 18.922 19.7921 19.8613C19.1661 20.8003 18.8061 21.8912 18.7501 23.0181V26C18.7501 26.0301 18.7483 26.0602 18.7446 26.0901C18.6553 26.8284 18.3938 27.5354 17.9813 28.1542C17.9598 28.1864 17.9379 28.2183 17.9157 28.25H30.0845C30.0622 28.2183 30.0403 28.1864 30.0188 28.1542C29.6063 27.5354 29.3449 26.8284 29.2555 26.0901C29.2519 26.0602 29.2501 26.0301 29.2501 26V23.0181C29.1941 21.8912 28.8341 20.8003 28.2081 19.8613C27.5789 18.9176 26.7048 18.1629 25.6795 17.678C25.4173 17.554 25.2501 17.29 25.2501 17C25.2501 16.6685 25.1184 16.3505 24.884 16.1161C24.6495 15.8817 24.3316 15.75 24.0001 15.75ZM21.2926 16.5184C21.3905 15.9679 21.6548 15.4562 22.0555 15.0555C22.5713 14.5397 23.2707 14.25 24.0001 14.25C24.7294 14.25 25.4289 14.5397 25.9446 15.0555C26.3454 15.4562 26.6097 15.9679 26.7076 16.5184C27.8123 17.1185 28.7564 17.9796 29.4562 19.0293C30.2363 20.1995 30.6833 21.56 30.7492 22.9648C30.7498 22.9765 30.7501 22.9883 30.7501 23V25.9524C30.8159 26.4422 30.9926 26.9106 31.2669 27.3221C31.5492 27.7455 31.9269 28.0966 32.3696 28.3474C32.666 28.5152 32.8121 28.8617 32.7253 29.1911C32.6385 29.5205 32.3407 29.75 32.0001 29.75H16.0001C15.6595 29.75 15.3616 29.5205 15.2748 29.1911C15.188 28.8617 15.3341 28.5152 15.6305 28.3474C16.0733 28.0966 16.451 27.7455 16.7332 27.3221C17.0075 26.9106 17.1842 26.4422 17.2501 25.9524V23C17.2501 22.9883 17.2503 22.9765 17.2509 22.9648C17.3168 21.56 17.7638 20.1995 18.544 19.0293C19.2437 17.9796 20.1879 17.1185 21.2926 16.5184Z" fill="#111827"/>
<path fill-rule="evenodd" clip-rule="evenodd" d="M21 28.25C21.4142 28.25 21.75 28.5858 21.75 29V30C21.75 30.5967 21.9871 31.169 22.409 31.591C22.831 32.0129 23.4033 32.25 24 32.25C24.5967 32.25 25.169 32.0129 25.591 31.591C26.0129 31.169 26.25 30.5967 26.25 30V29C26.25 28.5858 26.5858 28.25 27 28.25C27.4142 28.25 27.75 28.5858 27.75 29V30C27.75 30.9946 27.3549 31.9484 26.6517 32.6517C25.9484 33.3549 24.9946 33.75 24 33.75C23.0054 33.75 22.0516 33.3549 21.3483 32.6517C20.6451 31.9484 20.25 30.9946 20.25 30V29C20.25 28.5858 20.5858 28.25 21 28.25Z" fill="#111827"/>
</svg>
