<svg width="12" height="12" viewBox="0 0 12 12" fill="none" xmlns="http://www.w3.org/2000/svg">
<path fill-rule="evenodd" clip-rule="evenodd" d="M10.7652 3.23483C10.9116 3.38128 10.9116 3.61872 10.7652 3.76517L6.76516 7.76516C6.61872 7.91161 6.38128 7.91161 6.23484 7.76516L4.5 6.03033L1.76517 8.76516C1.61872 8.91161 1.38128 8.91161 1.23483 8.76516C1.08839 8.61872 1.08839 8.38128 1.23483 8.23484L4.23483 5.23483C4.38128 5.08839 4.61872 5.08839 4.76517 5.23483L6.5 6.96967L10.2348 3.23483C10.3813 3.08839 10.6187 3.08839 10.7652 3.23483Z" fill="#00CD69"/>
<path fill-rule="evenodd" clip-rule="evenodd" d="M6.625 3.5C6.625 3.29289 6.79289 3.125 7 3.125H10.5C10.7071 3.125 10.875 3.29289 10.875 3.5V7C10.875 7.20711 10.7071 7.375 10.5 7.375C10.2929 7.375 10.125 7.20711 10.125 7V3.875H7C6.79289 3.875 6.625 3.70711 6.625 3.5Z" fill="#00CD69"/>
</svg>
