<svg width="24" height="24" viewBox="0 0 24 24" fill="none" xmlns="http://www.w3.org/2000/svg">
<path fill-rule="evenodd" clip-rule="evenodd" d="M5.05907 1.51405C4.95882 1.54699 4.86995 1.62577 4.8287 1.71828L4.80763 1.76555L4.80467 6.30501C4.80168 10.9089 4.80279 11.0902 4.83717 11.566C4.9583 13.2429 5.35126 14.6019 6.01645 15.6445C6.38582 16.2234 6.81463 16.6709 7.36076 17.0472C7.60287 17.2141 7.73835 17.2949 8.01354 17.4368C8.94752 17.9183 10.0554 18.2008 11.3017 18.2753C11.6637 18.2969 12.2976 18.2872 12.6701 18.2543C14.3516 18.1059 15.8061 17.5485 16.7913 16.6751C16.9217 16.5595 17.1898 16.2797 17.2988 16.1455C18.1373 15.1129 18.6516 13.655 18.8154 11.8466C18.8644 11.3054 18.8738 11.0156 18.8739 10.0353L18.874 9.19603H16.4611H14.0482L14.0482 10.0754C14.0482 10.559 14.0436 11.0404 14.0381 11.1451C14.0003 11.8631 13.8677 12.4437 13.637 12.9018C13.4201 13.3323 13.1437 13.6235 12.7665 13.8186C12.0203 14.2046 11.0989 14.0866 10.4937 13.5275C10.08 13.1455 9.79708 12.4997 9.68688 11.6862C9.63068 11.2713 9.63482 11.6419 9.62904 6.50042C9.62402 2.0306 9.62287 1.78325 9.60672 1.7405C9.58276 1.67703 9.52551 1.60266 9.47053 1.56358C9.37427 1.49515 9.54582 1.49993 7.21151 1.50067C5.53242 1.5012 5.0898 1.50396 5.05907 1.51405ZM14.3324 1.50951C14.2474 1.53053 14.1567 1.59854 14.1082 1.67762C14.0431 1.78389 14.0482 1.50019 14.0482 5.02917V8.22401H16.4611H18.874V6.82299V5.42198L18.6782 5.40996C17.8602 5.35976 17.1351 5.07304 16.5046 4.55054C16.2561 4.34459 15.9607 4.01699 15.7762 3.74268C15.3608 3.12503 15.1309 2.4165 15.0965 1.64781L15.0899 1.5L14.7262 1.50102C14.5262 1.50159 14.3489 1.50541 14.3324 1.50951ZM19.3702 19.7566C19.2676 19.7934 19.1916 19.8703 19.1588 19.9707C19.1386 20.0329 19.1393 20.144 19.1604 20.2001C19.2024 20.312 19.2854 20.3867 19.4002 20.416C19.5165 20.4458 19.631 20.408 19.7158 20.3118C19.7931 20.2241 19.8024 20.1847 19.8024 19.943V19.738L19.6114 19.7383C19.4535 19.7386 19.4117 19.7418 19.3702 19.7566ZM10.5231 20.2193C10.1455 20.2619 9.84437 20.5053 9.73538 20.856C9.64699 21.1405 9.6842 21.462 9.83282 21.6979C9.92599 21.8458 10.0419 21.9496 10.2005 22.0271C10.357 22.1037 10.4258 22.1179 10.6392 22.1176C10.8198 22.1173 10.8245 22.1168 10.9151 22.0853C11.0691 22.0318 11.1955 21.9406 11.2956 21.8107C11.3282 21.7684 11.3624 21.7205 11.3716 21.7042L11.3884 21.6745L11.2276 21.5929C11.1391 21.548 11.0656 21.5125 11.0642 21.514C11.0629 21.5155 11.0423 21.544 11.0186 21.5774C10.7981 21.8885 10.3167 21.8274 10.1457 21.4666C10.1274 21.428 10.1056 21.3694 10.0972 21.3363C10.0772 21.2571 10.0772 21.0848 10.0972 21.0056C10.1547 20.7784 10.3138 20.6191 10.5283 20.5741C10.7384 20.5299 10.9124 20.6076 11.0502 20.8069C11.0646 20.8277 11.0662 20.8272 11.2274 20.7464L11.39 20.6649L11.3524 20.6048C11.2152 20.3853 11 20.2485 10.7456 20.2192C10.6495 20.2081 10.6226 20.2081 10.5231 20.2193ZM4.80513 20.8879C4.80822 21.5307 4.80846 21.5374 4.83036 21.6117C4.86736 21.7372 4.91413 21.8186 5.0005 21.9078C5.09012 22.0004 5.18715 22.0563 5.32502 22.0949C5.39886 22.1156 5.42788 22.1179 5.61032 22.1175C5.78945 22.117 5.82254 22.1144 5.89077 22.0948C6.16211 22.0168 6.32439 21.8484 6.39095 21.5757C6.41232 21.4882 6.41269 21.476 6.41285 20.8653L6.413 20.2441L6.22268 20.2413L6.03236 20.2386L6.02848 20.8376C6.02434 21.4781 6.02436 21.4778 5.97405 21.5797C5.90424 21.7213 5.71613 21.8037 5.53103 21.7739C5.36248 21.7467 5.25716 21.6584 5.20668 21.5021C5.18604 21.4381 5.18544 21.4221 5.18213 20.8378L5.17873 20.239H4.99036H4.802L4.80513 20.8879ZM7.40427 20.4143V20.5896L7.82597 20.5922L8.24768 20.5948L7.82614 21.186L7.4046 21.7772L7.40444 21.9351L7.40427 22.0929H8.08607H8.76787V21.9226V21.7522H8.33752C8.10082 21.7522 7.90716 21.7503 7.90716 21.7479C7.90716 21.7455 8.09647 21.4773 8.32785 21.1517L8.74853 20.5599V20.3995V20.239H8.0764H7.40427V20.4143ZM12.5116 21.1534C12.3235 21.6564 12.1676 22.0735 12.165 22.0804C12.1613 22.0902 12.2077 22.0929 12.3774 22.0929H12.5944L12.6503 21.9376L12.7061 21.7823H13.0908H13.4755L13.5117 21.885C13.5316 21.9415 13.5563 22.0114 13.5666 22.0403L13.5854 22.0929H13.8024H14.0194L14.0066 22.0603C13.9995 22.0424 13.8438 21.6253 13.6607 21.1334L13.3277 20.2391L13.0906 20.2391L12.8536 20.239L12.5116 21.1534ZM14.7929 21.1652V22.0929H14.9813H15.1698L15.1723 21.7647L15.1749 21.4365H15.3138H15.4528L15.7539 21.995L16.0549 22.5534L16.2711 22.5536C16.4479 22.5538 16.4864 22.5514 16.4824 22.5404C16.4796 22.5331 16.3336 22.2713 16.1579 21.9587C15.9635 21.6129 15.843 21.3887 15.85 21.3861C15.8563 21.3837 15.8809 21.3748 15.9046 21.3663C15.9665 21.344 16.031 21.2985 16.0858 21.2383C16.1837 21.131 16.2254 21.0163 16.2269 20.8503C16.228 20.7264 16.2151 20.662 16.1684 20.5597C16.1044 20.4193 15.9665 20.3063 15.8059 20.2624C15.7548 20.2484 15.6717 20.2452 15.2692 20.2417L14.7929 20.2376V21.1652ZM17.2203 21.1657V22.0943L17.6675 22.0903C18.0891 22.0866 18.1195 22.0851 18.1956 22.0645C18.387 22.0127 18.5038 21.9453 18.6332 21.8121C18.715 21.7279 18.732 21.7041 18.776 21.6116C18.8426 21.4715 18.8651 21.3782 18.8713 21.2161C18.8771 21.0637 18.8657 20.9728 18.8247 20.8454C18.7275 20.5435 18.503 20.3472 18.1632 20.2669C18.0845 20.2484 18.0351 20.2459 17.6482 20.2418L17.2203 20.2371V21.1657ZM15.7019 20.6159C15.8556 20.6903 15.8891 20.9062 15.7647 21.0194C15.695 21.0829 15.6833 21.0852 15.4142 21.0889L15.17 21.0923V20.8404V20.5885L15.4142 20.5917C15.6385 20.5945 15.662 20.5965 15.7019 20.6159ZM18.0761 20.6049C18.1777 20.6271 18.2597 20.6731 18.3333 20.7493C18.4455 20.8654 18.4931 21.0077 18.4843 21.201C18.4741 21.4247 18.3689 21.5997 18.1922 21.6866C18.0837 21.74 18.0408 21.7468 17.8102 21.747L17.6023 21.7472L17.5998 21.1685L17.5973 20.5898L17.8029 20.5899C17.9465 20.5901 18.0288 20.5946 18.0761 20.6049ZM13.2324 21.0382L13.3686 21.4265L13.2297 21.4293C13.1533 21.4308 13.0283 21.4308 12.9519 21.4293L12.813 21.4265L12.9492 21.0382C13.0241 20.8246 13.0878 20.6499 13.0908 20.6499C13.0937 20.6499 13.1575 20.8246 13.2324 21.0382Z" fill="#718096"/>
<path d="M15.693 1.5H17.7564C18.3364 1.5 18.8067 1.97025 18.8067 2.55033V4.76771V4.76771C17.0274 4.76771 15.6092 3.2773 15.693 1.5V1.5Z" fill="#718096"/>
</svg>
