<svg width="50" height="32" viewBox="0 0 50 32" fill="none" xmlns="http://www.w3.org/2000/svg">
<path d="M48.6957 13.3012C48.6347 13.2872 48.5711 13.2704 48.5075 13.2536C48.1082 13.1443 47.625 13.1723 47.1596 13.2003C46.9383 13.2144 46.7068 13.2284 46.4881 13.2256H46.4067C46.3635 13.2228 46.3177 13.22 46.2745 13.2256C46.0964 13.2424 46.0914 13.2452 45.9413 13.3433L45.8497 13.4021C45.5801 13.5759 45.308 13.7245 45.0435 13.8702C44.6416 14.0916 44.2627 14.299 43.9066 14.5793C43.7947 14.6661 43.721 14.7418 43.6548 14.8091C43.3166 15.1482 43.0978 15.1762 42.5332 14.9576L42.3959 14.9072C42.0678 14.7839 41.699 14.6465 41.493 14.1729C41.4193 14.0047 41.3964 13.8225 41.3735 13.6628C41.3608 13.5675 41.348 13.4722 41.3277 13.4134C41.2463 13.1695 41.1064 12.9117 40.9716 12.6594C40.9436 12.609 40.9182 12.5585 40.8902 12.5081C40.3994 12.5249 39.8678 12.5529 39.4533 12.7211C39.4177 12.7351 39.3744 12.7631 39.3261 12.794C39.232 12.8528 39.115 12.9285 38.9649 12.9677C38.263 13.1443 37.5992 13.0098 36.9582 12.8752C36.5564 12.7912 36.1749 12.7127 35.7985 12.7127H35.7858C35.6179 12.7127 35.4475 12.7183 35.2771 12.7239C34.1173 12.7575 32.8025 12.7912 31.897 11.6084C31.7775 11.4515 31.7775 11.2217 31.897 11.0647C31.953 10.9918 32.0064 10.9274 32.0598 10.8629C32.2633 10.6163 32.3421 10.5238 32.3192 10.3192C32.1615 10.1454 32.0827 9.93242 32.0191 9.75305C31.986 9.66056 31.9555 9.57648 31.9199 9.51202C31.8512 9.3887 31.7622 9.27099 31.6681 9.14487C31.5817 9.02996 31.4926 8.90944 31.4087 8.77491C31.3146 8.62356 31.2637 8.43577 31.218 8.27322C31.1951 8.18914 31.1594 8.06302 31.1391 8.02658C31.106 7.99015 30.8644 7.99857 30.7601 8.00417C30.7016 8.00417 30.6432 8.00977 30.5923 8.00977C30.4829 8.00977 30.3787 7.95653 30.3075 7.86404C30.2134 7.88646 30.1243 7.90326 30.0353 7.92008C29.9692 7.93129 29.903 7.94531 29.8395 7.95932C29.6487 8.00136 29.4605 7.87804 29.402 7.67624C29.2799 7.25584 29.4122 6.95035 29.4987 6.74856C29.5495 6.63084 29.5801 6.55799 29.5775 6.48231C29.5775 6.35339 29.4351 6.19363 29.3003 6.03949C29.2621 5.99745 29.2265 5.9554 29.1909 5.91336C28.84 5.49576 28.4788 5.25473 28.1151 5.19868C27.9752 5.17626 27.8074 5.18747 27.6319 5.19868C27.2504 5.2239 26.8155 5.24912 26.4187 4.96605C26.1974 4.8063 26.0448 4.59329 25.9126 4.40551C25.7956 4.24016 25.6939 4.10002 25.5692 4.01594C25.4065 3.90663 25.3454 3.90663 25.3454 3.90943C25.3531 3.90943 25.3047 3.96269 25.2106 4.20932C24.9308 4.93802 24.1602 5.25473 23.5422 5.50977C23.3565 5.58545 23.181 5.65831 23.0361 5.73398C22.8224 5.84609 22.6189 5.98063 22.4002 6.12356C22.0721 6.34217 21.7313 6.56638 21.3397 6.71493L21.3041 6.72894C20.948 6.86627 20.5767 6.9924 20.2842 6.93354C19.9052 6.85787 19.6865 6.56639 19.5288 6.35338C19.4678 6.27211 19.4093 6.19363 19.3508 6.13757C19.2618 6.05069 19.216 5.92738 19.2236 5.79565C19.2312 5.66673 19.2923 5.54901 19.3889 5.47334C19.5644 5.34161 19.7602 5.25472 19.951 5.17064C20.2969 5.0193 20.5106 4.9128 20.5818 4.68017C20.6962 4.2962 20.6352 3.62356 20.5818 3.08544C20.5614 2.85562 20.5411 2.63703 20.5334 2.45205C20.5029 1.70653 20.4622 1.02268 20.3656 0.330414C20.2715 0.515391 20.185 0.694767 20.1265 0.860126C19.9688 1.30295 19.8645 1.79061 19.7552 2.3063C19.6992 2.56695 19.6433 2.8276 19.5797 3.08544C19.4398 3.65999 19.2745 4.22055 19.1143 4.76427C18.8904 5.5294 18.6564 6.31976 18.4937 7.14655C18.2063 8.59834 17.8146 10.5882 15.7876 11.0451C15.5943 11.0871 15.1009 11.1796 14.6914 11.0955C14.4956 11.0535 14.3303 10.9526 14.1853 10.8629C14.1115 10.8181 13.9971 10.748 13.9564 10.7424C13.8343 10.762 13.814 10.7928 13.7682 10.8545C13.7148 10.9302 13.6054 11.0843 13.3969 11.1039C13.1527 11.1264 12.9569 10.9498 12.6618 10.6527C12.2931 10.2827 11.9497 10.0669 11.614 9.99688C11.3495 9.94082 11.0443 9.96045 10.7213 9.98287C10.4847 9.99968 10.2406 10.0165 10.004 10.0025C9.82347 9.99128 9.64799 9.96886 9.47759 9.94924C9.00707 9.89038 8.63828 9.84273 8.25932 10.0529C8.00753 10.1931 7.76338 10.3752 7.50651 10.5658C7.33356 10.6947 7.15554 10.8265 6.97496 10.947C6.78167 11.0759 6.57057 11.1824 6.3671 11.2889C5.99323 11.4823 5.63971 11.6645 5.41081 11.9419C5.32179 12.0484 5.18699 12.0961 5.05982 12.0681L4.75715 12.0036C3.65335 11.7626 2.27995 11.4627 1.35672 12.0316C0.619157 12.4857 0.573386 13.0238 0.50726 13.8422C0.48437 14.1308 0.456405 14.4475 0.392822 14.7811C1.21177 14.9716 1.87049 15.6527 2.4173 16.216L2.6106 16.415C3.61521 17.4324 4.38328 18.091 5.26327 18.6852C6.1687 19.299 6.88593 19.9408 7.44038 21.0955C7.55991 21.3421 7.6642 21.6196 7.76593 21.8887C8.11691 22.8108 8.38649 23.4217 8.92822 23.4834C9.63272 23.5647 10.383 23.5563 11.1079 23.5479C11.3291 23.5479 11.5479 23.5423 11.7666 23.5423H11.7767C12.7915 23.5423 13.0789 23.6348 13.3078 24.5877C14.1395 24.6297 15.2967 24.3775 16.0775 23.9739C16.8024 23.5983 17.8553 23.2256 18.748 23.5955C19.2567 23.8057 19.6382 24.2205 19.8824 24.8287C20.1392 25.4677 20.0273 26.1908 19.9307 26.827C19.9001 27.0316 19.8696 27.2222 19.8543 27.4016C19.8467 27.4968 19.8315 27.6146 19.8162 27.7491C19.7959 27.9257 19.7577 28.262 19.7374 28.6067C19.8467 28.4133 19.9841 28.2508 20.1774 28.1779C20.3122 28.1275 20.5283 28.1022 20.7827 28.2704C20.9488 28.3788 21.1209 28.4329 21.299 28.4329C21.3371 28.4329 21.3931 28.4273 21.4567 28.4217C21.9043 28.3853 22.2654 28.3741 22.4765 28.6151C22.6546 28.8197 22.6342 29.1056 22.6189 29.3158C22.6164 29.3606 22.6113 29.4027 22.6139 29.4363C22.6342 29.5764 22.6622 29.6437 22.7385 29.7474L22.7817 29.8063C22.9445 30.0277 23.1658 30.3332 23.3489 30.4453C23.4226 30.4901 23.4532 30.4929 23.4532 30.4929C23.4583 30.4873 23.5066 30.4537 23.5396 30.4257C23.6363 30.3528 23.766 30.2519 23.9542 30.193C24.412 30.0445 24.8749 30.5238 25.348 31.0731L25.4293 31.1656C25.704 31.4767 25.8286 31.6168 26.1542 31.7177C26.4238 31.8018 26.7086 31.8298 26.9808 31.8438C26.9782 31.8326 26.9732 31.8214 26.9706 31.813C26.7977 31.2665 26.9757 30.8825 27.1308 30.5434C27.1563 30.4873 27.1842 30.4313 27.2097 30.3696L27.2351 30.3107C27.403 29.9268 27.5607 29.5652 27.5988 29.1813C27.6319 28.8478 27.5021 28.3517 27.2936 28.2284C27.2529 28.2115 27.1079 28.1975 27.0113 28.1891C26.6959 28.1611 26.3042 28.1247 26.0855 27.7967C25.999 27.6678 25.91 27.4408 25.9787 27.1017C26.111 26.4542 26.5916 26.3365 26.879 26.2665C26.9909 26.2384 27.1079 26.2104 27.1563 26.1684C27.2402 26.0927 27.2987 25.9358 27.2987 25.7732C27.2987 25.6583 27.2707 25.5602 27.2249 25.5182C27.0138 25.322 26.7544 25.1734 26.4797 25.0165C26.2534 24.8875 26.0194 24.753 25.8007 24.5849C25.5616 24.3999 25.264 24.0944 25.2157 23.688C25.1903 23.4778 25.3124 23.2788 25.5006 23.2256C25.6303 23.1891 25.7396 23.1751 25.8286 23.1639C25.9914 23.1415 26.0524 23.1331 26.1822 23.0126C26.2457 22.9537 26.2992 22.8976 26.3475 22.85C26.6552 22.5333 26.9375 22.3231 27.5378 22.7519C28.199 23.2256 28.606 23.9963 28.9951 24.7418C29.0943 24.9324 29.1935 25.1174 29.2927 25.2939C29.4122 25.1398 29.5267 24.9576 29.6055 24.8091C29.6589 24.7082 29.7454 24.6353 29.8471 24.6101C29.9488 24.5821 30.0582 24.6045 30.1447 24.6689C30.427 24.8735 30.6253 25.2211 30.7907 25.5574C30.8059 25.563 30.8237 25.5686 30.839 25.5714C30.9763 25.6134 31.1162 25.6583 31.2383 25.7087C31.3553 25.7536 31.513 25.7732 31.6808 25.79C31.9148 25.8152 32.1564 25.8433 32.3802 25.9526C32.5888 26.0563 32.7058 26.1908 32.8101 26.3085C32.8431 26.3478 32.8787 26.387 32.922 26.4318C33.306 26.8214 33.7842 27.0484 34.2343 27.054C34.5141 27.0512 34.9312 26.7738 35.038 26.4991C35.1194 26.2945 35.0457 26.1011 34.9109 25.7788C34.7888 25.4901 34.654 25.165 34.6743 24.7754C34.6972 24.3887 34.9287 23.9038 35.2237 23.6207C35.4348 23.4189 35.6764 23.3265 35.9078 23.3461C36.3249 23.3853 36.4852 23.7076 36.5513 24.0019C36.7471 23.8618 37.0218 23.7889 37.4237 24.0131C37.4542 24.0299 37.4822 24.0467 37.5102 24.0664C37.5076 24.0552 37.5025 24.0411 37.5 24.0299C37.4135 23.7413 37.3041 23.3797 37.4135 22.9705C37.5076 22.6146 37.7925 22.0821 38.1307 21.7373C38.0773 21.6953 38.0188 21.6505 37.9756 21.6168C37.6704 21.3898 37.3245 21.1292 37.3525 20.7031C37.3804 20.2911 37.7518 20.0921 37.8739 20.0249C38.3952 19.7446 39.0819 19.8876 39.6873 20.0137C39.8805 20.0529 40.0662 20.0921 40.229 20.1146C40.2442 19.9997 40.2544 19.8707 40.262 19.7446C40.2976 19.2485 40.3434 18.632 40.8165 18.3377C41.1013 18.1611 41.4319 18.1443 41.7244 18.1275C41.8669 18.1191 42.0017 18.1135 42.1009 18.0882C42.3577 18.0266 42.6909 17.8332 42.9707 17.5838C43.1792 17.3988 43.37 17.1886 43.5734 16.97C43.7642 16.7626 43.96 16.5496 44.1737 16.3534C44.695 15.8797 45.3716 15.8881 45.9718 15.8937C46.1219 15.8937 46.2668 15.8965 46.4067 15.8937C46.4932 15.8909 46.6051 15.8937 46.7297 15.8965C46.9357 15.9049 47.363 15.9189 47.48 15.8405C47.4978 15.8237 47.5156 15.7956 47.536 15.7704C47.5995 15.6863 47.686 15.5742 47.8183 15.4901C48.0141 15.3668 48.2099 15.3192 48.3829 15.2771C48.5685 15.2323 48.6855 15.2015 48.772 15.1202C49.1001 14.8091 49.2705 14.2794 49.212 13.7357C49.184 13.475 49.1357 13.4358 48.683 13.3209L48.6957 13.3012Z"/>
</svg>
