<svg width="99" height="110" fill="none" xmlns="http://www.w3.org/2000/svg"><path d="M66.619 107.208a5.969 5.969 0 0 0-.387-.269c-.335-.21-.753-.196-1.16-.179-.165.005-.335.011-.493 0-.727-.045-.86-.536-1-1.051a3.167 3.167 0 0 0-.23-.662c-.166-.319-.456-.563-.733-.796a5.706 5.706 0 0 1-.285-.249c-.344-.32-.743-.46-1.086-.552-.178-.048-.392-.037-.6-.028-.273.014-.555.025-.764-.09-.254-.137-.404-.474-.536-.771l-.087-.19c-.068-.138-.127-.283-.185-.421-.074-.174-.143-.339-.224-.493-.094-.174-.165-.261-.224-.269-.058-.006-.122.059-.206.151a2.075 2.075 0 0 1-.168.171.67.67 0 0 1-.582.168c-.262-.044-.516-.235-.68-.507-.31-.518-.426-.939-.426-1.553v-.01l.005-.01a.282.282 0 0 1 .193-.148c.364-.081 1.01.451 1.32.707.048.039.089.072.117.092.173.132.323.247.381.216.051-.025.074-.177.092-.395.013-.146 0-.342-.01-.55-.026-.465-.056-.992.14-1.264l.01-.014h.015c1.246.017 1.907 1.491 2.39 2.57l.136.297c.262.572.933.959 1.528 1.301.15.087.293.168.422.249.143.09.283.182.425.275.262.174.534.35.806.507.17.098.33.177.489.255.386.194.752.376 1.116.76.142.148.267.328.39.499.198.277.401.563.668.728.42.261.893.474 1.35.679.168.075.334.148.494.224.033.017.069.034.104.05l1.16-1.353a.368.368 0 0 1 .127-.098l10.68-5.045-.87-4.148a.454.454 0 0 1 .102-.393l4.036-4.448a.388.388 0 0 1 .096-.078l2.885-1.611 1.597-1.786c-.27-.042-.504-.255-.857-.743-.272-.375-.445-.782-.61-1.171-.054-.123-.105-.25-.163-.373-.273-.602-.646-1.112-1.043-1.65-.14-.188-.277-.379-.415-.575-.272-.392-.43-.816-.58-1.225-.066-.18-.13-.35-.2-.518-.616-.401-.75-1.59-.852-2.472a8.802 8.802 0 0 0-.062-.468c-.147-.86-.49-1.046-1.172-1.416a9.96 9.96 0 0 1-.608-.347l-.285-.177c-1.182-.731-2.653-1.645-3.922-2.026-.572-.171-1.236-.194-1.938-.216-1.141-.037-2.324-.076-3.26-.78-.842-.63-1.234-1.639-1.613-2.617-.13-.333-.251-.65-.389-.942-.04-.086-.145-.26-.254-.445-.521-.875-.758-1.326-.684-1.693.079-.381.47-.656 1.264-1.09.099-.054.18-.098.229-.13.47-.302.948-.565 1.411-.823.855-.474 1.661-.92 2.394-1.572 1.185-1.057 2.052-2.4 2.97-3.82.158-.244.313-.486.473-.73.39-.59.888-1.146 1.368-1.684.791-.883 1.608-1.796 1.949-2.867.241-.762-1.03-1.595-1.79-2.093-.14-.093-.268-.177-.377-.253a.444.444 0 0 1-.166-.462l1.058-4.47a.423.423 0 0 1 .191-.267.341.341 0 0 1 .308-.022l8.993 3.576 1.91-3.509.346-4.114c.018-.21.173-.373.366-.381l4.4-.182 1.11-6.396-16.743-4.059a.401.401 0 0 1-.283-.285l-2.304-8.224-3.56 3.117a.348.348 0 0 1-.22.09l-4.939.25-2.596 3.668a.36.36 0 0 1-.496.104L55.42 23.44l-4.92 9.35a.378.378 0 0 1-.309.21l-4.115.258a.39.39 0 0 1-.379-.275l-1.643-4.935-20.173-8.223a.402.402 0 0 1-.227-.252l-2.795-8.51-4.875-2.323a.404.404 0 0 1-.18-.18L11.54.172.825 3.419 8.46 16.16c.056.093.077.207.056.317a.429.429 0 0 1-.165.266l-5.226 3.725 5.369 7.02c.063.085.096.191.089.3l-.354 5.701a.46.46 0 0 1-.12.28l-6.62 6.802c.504.844 1.198 1.766 1.8 2.161.44.289.917.485 1.377.676.86.356 1.75.723 2.47 1.687.51.687.551 1.494.59 2.203.025.496.048.961.216 1.365.109.263.33.496.567.745.315.334.676.712.811 1.245.148.58.094 1.216.043 1.835-.035.426-.068.83-.035 1.178.068.692.277 1.348.496 2.04.094.294.19.597.274.905.232.838.041 1.53-.13 2.141-.188.681-.325 1.172.057 1.794.953 1.556 1.116 3.417 1.126 5.062l37.563 30.38c.089.071.145.183.155.304l.142 1.751 11.76 9.378 2.814 1.917 3.982-1.491a.356.356 0 0 1 .382.09l.046.047.17-.199c-.264-.008-.529-.03-.776-.128-.287-.115-.526-.292-.757-.463l-.013.014ZM46.827 77.732c-.044 0-.097-.005-.155-.011-.313-.025-.837-.067-.957.157-.063.12-.056.384-.048.62.005.162.01.313-.008.411l-.007.034-.03-.006c-.321-.064-.66-.322-.932-.53-.04-.03-.079-.058-.117-.089a8.746 8.746 0 0 0-.417-.289c-.18-.12-.366-.243-.539-.384-.348-.283-.74-.67-.697-1.163.056-.639.435-.69.837-.742.14-.02.285-.04.427-.082h.02c.123.042.32.06.532.079.328.028.636.056.738.174.137.162.05.493-.03.818-.052.196-.098.384-.09.51.198-.11.338-.26.486-.42.086-.093.173-.188.277-.278l.023-.022.02.025c.056.073.117.146.176.219.221.266.45.54.526.924l.01.045h-.045Z"/></svg>