<svg width="56" height="28" viewBox="0 0 56 28" fill="none" xmlns="http://www.w3.org/2000/svg">
<path d="M54.5098 9.36626C54.0062 9.15886 53.2687 9.28497 52.4294 9.71939C51.5621 10.1678 50.0971 10.5406 48.978 10.3836C48.8178 10.3612 48.6881 10.2295 48.6525 10.0557C48.622 9.89316 48.5355 9.46436 48.477 9.41671C48.4134 9.36626 48.1006 9.36626 47.7929 9.36626C47.5767 9.36626 47.3579 9.36625 47.1418 9.37186C46.3966 9.38027 45.6259 9.38867 44.8756 9.30179C43.8456 9.18127 43.4259 8.07983 43.0902 7.19418C42.991 6.93073 42.8969 6.68409 42.7927 6.47108C42.3196 5.48173 41.7143 4.94081 40.8928 4.38308C39.967 3.75808 39.1659 3.07142 38.1231 2.0148L37.9247 1.81021C37.2915 1.15719 36.6378 0.478943 35.8443 0.554616C35.7832 0.560221 35.7248 0.548997 35.6663 0.523773C35.473 0.43689 34.8702 0.501365 34.387 0.554616C33.5349 0.647104 32.6626 0.742385 32.1717 0.386444C31.8436 0.70595 31.5791 1.11795 31.3044 1.54957C31.0552 1.93634 30.8009 2.33992 30.483 2.68746C30.3253 2.86122 30.1625 3.03218 29.9972 3.20314C29.7734 3.43576 29.5419 3.6768 29.3283 3.92624C29.1477 4.13364 29.0434 4.34945 28.9239 4.6017C28.8323 4.79228 28.7357 4.98847 28.6009 5.19586C27.8811 6.30573 26.5103 7.26704 25.1954 6.76256C24.8851 6.64204 24.702 6.38139 24.5519 6.17119C24.4807 6.0703 24.412 5.97221 24.3434 5.91335C24.0432 5.6471 23.5804 5.43129 22.9725 5.27994C22.5986 5.18465 22.2324 5.15101 21.8789 5.11738C21.1718 5.05012 20.4419 4.98004 19.6916 4.44753C19.4322 4.26256 19.2185 4.07478 19.0278 3.90662C18.5624 3.49743 18.2546 3.22556 17.5705 3.21996C17.3772 3.21996 17.1814 3.21436 16.9804 3.20875C16.1945 3.18913 15.3858 3.17232 14.6635 3.33207C14.6075 3.76368 14.3659 4.02995 14.1446 4.26818L14.0912 4.32422C14.0251 4.39709 13.9615 4.47276 13.8954 4.55123C13.7224 4.76143 13.524 4.99687 13.2697 5.16223C13.1883 5.21548 13.0942 5.26032 12.9925 5.30796C12.8882 5.35841 12.6924 5.45091 12.6491 5.50976C12.6415 5.549 12.6568 5.7536 12.6644 5.8601C12.672 5.94979 12.6771 6.03386 12.6771 6.10393C12.6771 6.32534 12.5194 6.51032 12.3185 6.52433C11.8912 6.55236 11.291 6.67568 11.1079 6.8018C11.0545 6.84104 10.9451 6.98678 10.8739 7.08487C10.7951 7.19137 10.7137 7.29788 10.6297 7.38476C10.411 7.60898 10.177 7.80517 9.94812 7.99855C9.80824 8.11626 9.66581 8.23397 9.53101 8.35729C9.33772 8.53386 9.21309 8.87018 9.07829 9.22332C8.89771 9.70258 8.69426 10.2463 8.23901 10.5182C7.92618 10.7059 7.56757 10.7396 7.2522 10.7732C7.0411 10.7928 6.84524 10.8124 6.6901 10.8713C6.2501 11.0395 5.97289 11.3057 5.81266 11.7177C5.75925 11.8522 5.7211 11.9868 5.67786 12.1297C5.56595 12.5053 5.44135 12.9285 5.06494 13.2844C4.52575 13.7973 3.81107 14.072 3.18032 14.3158L2.93869 14.4111C2.81915 14.4587 2.65384 14.512 2.46563 14.5708C2.05361 14.7026 1.08715 15.0109 0.942182 15.3024C0.850622 15.5126 1.13803 16.4599 1.40254 16.8158C1.65942 17.1605 2.06633 17.3819 2.49361 17.6174C2.72505 17.7435 2.96415 17.8752 3.18542 18.0294C3.8594 18.5058 4.28666 18.6852 5.01151 18.8057C5.16411 18.8309 5.40319 18.8337 5.65752 18.8365C6.44087 18.8449 7.41496 18.8534 7.84987 19.484C8.06097 19.7894 8.11183 20.1762 7.99992 20.6387C7.88038 21.1347 7.91091 21.6056 7.94397 22.1465L7.96176 22.4184C7.97194 22.5949 7.9745 22.7855 7.97704 22.9845C7.98213 23.3769 7.98974 23.7805 8.05587 24.0888C8.10165 24.3018 8.25935 24.5008 8.42721 24.7138C8.5086 24.8175 8.58997 24.9212 8.66372 25.0305C8.77309 25.193 8.87484 25.3696 8.96894 25.5378C9.29449 26.1123 9.52338 26.4655 9.9176 26.4991C11.0392 26.6028 12.3134 26.3814 13.4096 26.1515C13.9717 26.0338 14.4753 25.7844 15.0093 25.5209C15.7189 25.1706 16.4514 24.8062 17.3365 24.767C17.8325 24.7446 18.3309 24.7726 18.8142 24.7979L19.0888 24.8119C19.1829 24.8175 19.2847 24.8287 19.3915 24.8427C19.5339 24.8623 19.7145 24.8847 19.8468 24.8707C19.8264 24.6437 19.7577 24.4615 19.6484 24.1756L19.623 24.1112C19.5924 24.0327 19.5492 23.9402 19.5008 23.8393C19.2923 23.4049 18.9464 22.6818 19.4042 22.197C19.7043 21.8831 20.2918 21.8662 20.8717 21.8747H20.9836C21.1311 21.8747 21.2965 21.8887 21.4669 21.8999C21.8178 21.9251 22.2171 21.9531 22.4766 21.8662C22.9038 21.7233 23.1658 21.3225 23.471 20.8573C23.7152 20.4845 23.9669 20.0977 24.3332 19.8203C24.7477 19.5064 25.2666 19.5064 25.6837 19.5036H25.7575C25.9686 19.5036 26.2051 19.484 26.4569 19.4671C26.9935 19.4279 27.5505 19.3859 28.0388 19.4868C28.166 19.512 28.2728 19.6073 28.3211 19.7418C28.3669 19.8651 28.3974 19.9912 28.4178 20.1146C28.6136 19.98 28.84 19.8623 29.0612 19.8203C29.1045 19.8119 29.1299 19.8035 29.1452 19.795C29.4046 19.6885 29.5597 19.8343 29.6538 19.9212L29.725 19.9856C29.9768 20.2098 30.0404 20.5434 30.0913 20.8124C30.1142 20.9329 30.1498 21.1151 30.1905 21.16C30.2973 21.2721 30.4168 21.2468 30.8288 21.0226C30.9102 20.9778 30.9916 20.9357 31.0705 20.8965C31.8843 20.5069 32.4896 21.1039 32.9322 21.5383C33.1153 21.7177 33.2882 21.8887 33.4612 21.9952C33.7893 22.197 34.2115 22.1717 34.6591 22.1437C35.0864 22.1185 35.5264 22.0904 35.9562 22.2446C36.1139 22.3006 36.2182 22.4632 36.2182 22.6454C36.2182 22.9004 36.241 23.1919 36.2614 23.475C36.2716 23.6123 36.2817 23.7468 36.2894 23.8758C36.2945 23.9514 36.297 24.0187 36.2995 24.086C36.3174 24.526 36.3199 24.5344 36.5717 24.6493C36.9303 24.8119 37.3093 24.8903 37.7086 24.9744C37.9146 25.0165 38.118 25.0613 38.324 25.1146C38.5529 25.1762 38.7742 25.2575 38.9879 25.336C39.0514 25.3584 39.115 25.3836 39.1786 25.406V23.2087C39.1786 22.9761 39.349 22.7883 39.5601 22.7883H40.1196C40.229 22.7883 40.3384 22.7743 40.4452 22.7575C40.8063 22.7098 41.3048 22.6398 41.6634 23.2928C41.8516 23.6319 41.933 23.9935 42.0144 24.341C42.0602 24.5428 42.1034 24.7334 42.167 24.9071L42.1848 24.9548C42.3094 25.3051 42.4798 25.7816 42.2866 26.1796C42.223 26.3113 42.0958 26.4767 41.8466 26.5551C42.0653 26.7737 42.2891 27.0008 42.4849 27.2782C42.5968 27.438 42.7189 27.5865 42.8461 27.7463C42.8486 27.7519 42.8537 27.7547 42.8563 27.7603C42.8842 27.693 42.9097 27.623 42.9376 27.5529C43.0572 27.239 43.1945 26.8859 43.4641 26.6C44.016 26.017 44.7587 25.8124 45.4734 25.6499C45.5318 25.6359 45.6361 25.6218 45.7633 25.605C45.9057 25.5854 46.2287 25.5434 46.4195 25.4929C46.3635 25.4144 46.2796 25.3163 46.2211 25.2491C46.0074 25.0024 45.7862 24.7446 45.7938 24.4083C45.804 23.8954 46.244 23.6263 46.5364 23.447C46.6 23.4077 46.6585 23.3741 46.6967 23.3405C46.7221 23.318 46.7526 23.2844 46.7857 23.2508C46.9535 23.0742 47.2359 22.7799 47.5919 22.8724C47.7751 22.9201 47.9022 23.0798 48.0981 23.3377C48.1387 23.3909 48.1744 23.4386 48.1972 23.4666C48.5177 23.7553 48.889 24.0159 49.179 24.156C49.2069 24.17 49.2273 24.1785 49.2426 24.1841C49.2731 24.156 49.3214 24.1084 49.3595 24.0663L49.418 24.0047C49.5198 23.901 49.6139 23.7833 49.7131 23.66C49.8479 23.4918 49.9852 23.318 50.1581 23.1583C50.1734 23.1443 50.1963 23.1218 50.2217 23.0966C50.5549 22.7715 50.7635 22.6034 50.9822 22.5921C51.1399 22.5865 51.2772 22.665 51.6333 22.8976C51.6358 22.8976 51.6384 22.9004 51.6409 22.9032C51.7198 22.8528 51.796 22.7995 51.8647 22.7407C51.6078 22.5389 51.3077 22.4072 50.9771 22.2614C50.7151 22.1465 50.443 22.026 50.1734 21.8606L50.1327 21.8354C49.9013 21.6953 49.6418 21.5355 49.5808 21.1992C49.5427 20.989 49.6012 20.7704 49.7563 20.5546C49.9318 20.3079 50.1632 20.1286 50.3896 19.952C50.5066 19.8595 50.6185 19.7726 50.7075 19.6857C50.8601 19.5372 51.0102 19.3831 51.1577 19.2289C51.2696 19.114 51.3815 18.9963 51.4959 18.8842C51.7147 18.6656 51.9461 18.4974 52.1699 18.3321C52.3352 18.2115 52.4929 18.0966 52.6379 17.9677C53.1033 17.5557 53.3755 16.9083 53.3958 16.1796C53.1847 15.8909 53.1924 15.4117 53.2941 14.9997C53.3399 14.8147 53.4899 14.6886 53.6629 14.6886C53.7977 14.6886 53.9553 14.7026 54.1257 14.7194C54.375 14.7418 54.7717 14.7782 55.0439 14.7334C54.9091 14.1953 54.9752 13.4358 55.0668 12.637C55.082 12.5109 55.0948 12.4016 55.1024 12.3119C55.1202 12.1045 55.1532 11.8915 55.1863 11.6841C55.2702 11.1375 55.3567 10.5742 55.1914 10.1678C55.0312 9.76704 54.7997 9.512 54.4869 9.38308L54.5098 9.36626Z"/>
</svg>
