<svg width="34" height="44" viewBox="0 0 34 44" fill="none" xmlns="http://www.w3.org/2000/svg">
<path d="M32.6908 33.1022C32.6527 33.0322 32.612 32.9621 32.5713 32.8892C32.2915 32.4016 31.9431 31.7906 32.2432 31.0759L32.3322 30.8685C32.5637 30.3276 32.7315 29.9352 32.6527 29.3775C32.6425 29.313 32.5942 29.2233 32.5433 29.128C32.4619 28.9767 32.3576 28.7889 32.3348 28.5479C32.3068 28.276 32.3882 28.0798 32.4823 27.9425C32.3246 27.9201 32.1567 27.8752 32.0092 27.7463C31.6506 27.4352 31.7116 26.9083 31.7447 26.6252L31.7498 26.572C31.8159 25.9498 31.7981 25.5322 31.6811 25.0277C31.6353 24.8343 31.6023 24.6437 31.5692 24.4559C31.4777 23.9234 31.4039 23.503 31.0733 23.1359C31.0249 23.0826 30.9919 23.0546 30.9664 23.035C30.7146 22.8332 30.7198 22.623 30.7274 22.3343C30.7376 21.9672 30.8622 21.628 30.9766 21.3394C31.0733 21.0983 31.2055 20.8825 31.3352 20.6723C31.409 20.5518 31.4827 20.4313 31.5438 20.3164C31.1623 20.0922 30.6638 19.7138 30.6435 19.3158C30.6282 19.0383 30.7605 18.8085 30.8952 18.6264C30.5824 18.3097 30.3967 17.9565 30.2162 17.6146C30.1322 17.4548 30.0458 17.2895 29.9466 17.1297C29.8856 17.0316 29.8041 17.012 29.5447 16.9924C29.2929 16.9756 28.9471 16.9503 28.6953 16.6252C28.5223 16.4038 28.5452 16.1404 28.5605 15.9806C28.5274 15.975 28.4943 15.9722 28.4638 15.9666C28.2832 15.9442 28.0594 15.9133 27.8661 15.762C27.5202 15.4901 27.2761 14.91 27.0879 14.3354C26.4495 14.0972 26.0832 13.3937 26.0069 12.7856C25.9256 12.1185 25.7679 11.6981 25.4652 11.3281C25.2948 11.1208 25.01 10.9386 24.7378 10.7648C24.5903 10.6723 24.4403 10.5742 24.3029 10.4733C24.0537 10.2856 23.8324 10.0754 23.6188 9.86796C23.4179 9.67458 23.2271 9.49239 23.0211 9.33544C22.7566 9.13645 22.4921 8.94587 22.2301 8.75529C21.5078 8.23399 20.7626 7.69588 20.1115 7.03164C19.7173 6.62806 19.4579 6.11796 19.2061 5.62188C19.084 5.38085 18.9696 5.15103 18.8399 4.93803L18.7915 4.85956C18.5626 4.4784 18.3312 4.08602 18.1176 3.68804C18.0387 3.63759 17.9319 3.57033 17.8429 3.4414C17.6597 3.17515 17.642 2.9229 17.6394 2.68467C17.6292 1.93075 18.1532 1.74017 18.4991 1.61405L18.5448 1.59723C18.583 1.58322 18.6211 1.5692 18.6593 1.55799C18.6542 1.54958 18.6491 1.54119 18.6466 1.53558C18.6008 1.53838 18.5245 1.558 18.4762 1.56921C18.4227 1.58322 18.3719 1.59443 18.3261 1.60284C18.2625 1.61405 18.1811 1.61965 18.0947 1.62525C18.0107 1.63086 17.8556 1.63927 17.7971 1.66169C17.7157 1.72895 17.6114 1.75979 17.5097 1.74298C17.4283 1.72896 17.3444 1.70934 17.263 1.68692C17.2223 1.67571 17.1791 1.6645 17.1384 1.65609C16.9578 1.61686 16.8281 1.43748 16.8332 1.23289L16.8408 0.938606C16.8434 0.804078 16.8459 0.669548 16.851 0.535019C16.8204 0.551835 16.7899 0.568649 16.762 0.585465C16.6958 0.6219 16.6297 0.658325 16.5687 0.697562L16.4669 0.762036C16.1414 0.97504 15.6937 1.26372 15.1342 0.918986C15.0503 0.868537 14.9842 0.798472 14.9206 0.728405C14.8621 0.851723 14.8011 1.01707 14.768 1.10396C14.7298 1.20485 14.6968 1.29454 14.6688 1.35059C14.3967 1.91954 14.0126 2.27267 13.5726 2.64263C13.5447 2.66505 13.5218 2.68748 13.5014 2.7071C13.5116 2.72392 13.5243 2.74073 13.537 2.76035C13.5726 2.73793 13.6057 2.7155 13.6413 2.69307C13.8422 2.56415 14.033 2.44083 14.2034 2.29229C14.2949 2.21382 14.4119 2.18299 14.5238 2.21102C14.6357 2.23905 14.7324 2.32312 14.7833 2.43523C14.8748 2.63983 14.8748 2.84163 14.8774 2.98737C15.0122 3.0182 15.1571 3.02661 15.3148 3.03782C15.4674 3.04903 15.6251 3.06024 15.7904 3.09107C15.9074 3.11349 16.0066 3.19195 16.0625 3.30686C16.088 3.35731 16.2075 3.46663 16.2813 3.52829C16.3499 3.58995 16.4135 3.6488 16.4669 3.70486C16.7086 3.9627 16.8815 4.21494 16.9832 4.66337C17.1028 5.18747 17.324 6.48792 16.767 7.28949C16.6831 7.41 16.6043 7.50249 16.533 7.58657C16.3881 7.75753 16.3143 7.84161 16.2813 8.05461C16.2406 8.30686 16.238 8.58714 16.2737 8.9627C16.3067 9.31023 16.4618 9.57367 16.6424 9.87636C16.7594 10.0754 16.8815 10.2828 16.9832 10.5322C17.0061 10.5854 17.0163 10.6443 17.0163 10.7032V13.5255C17.5351 13.4974 18.204 13.5087 18.4889 13.9543C18.5804 14.0972 18.5881 14.2458 18.5881 14.3495C18.6517 14.3915 18.7356 14.4531 18.8043 14.554C19.1807 15.1202 18.8704 15.6107 18.7025 15.8741C18.6618 15.9358 18.6211 16.0002 18.5906 16.0647C18.4202 16.401 18.4329 16.7766 18.6237 17.1213C18.6542 17.1746 18.6873 17.2334 18.7229 17.2923C18.9213 17.6286 19.1705 18.049 19.1552 18.5142C19.1374 19.0664 18.8093 19.2317 18.5703 19.3522L18.494 19.3915C18.204 19.5428 18.0006 19.7362 17.7437 19.9828L17.6089 20.1118C16.9629 20.7228 16.4415 20.7592 15.7446 20.2407C15.2614 19.882 14.8189 19.7895 14.3509 19.9548C13.7685 20.1594 13.6362 20.165 13.097 19.7951C13.0029 19.7306 12.8783 19.6661 12.7461 19.5961C12.4358 19.4335 12.0848 19.2486 11.8686 18.9403L11.5278 18.5647C11.3091 18.5983 11.0878 18.4974 10.9683 18.4414C10.9276 18.4218 10.864 18.3937 10.8411 18.3881C10.7292 18.3657 10.5995 18.3685 10.4596 18.3741C10.363 18.3741 10.2663 18.3797 10.1697 18.3741C9.56944 18.3461 9.104 17.9733 8.69198 17.6426C8.54701 17.5249 8.40966 17.4156 8.26977 17.3231C8.2418 17.3035 8.21383 17.2839 8.18586 17.2643C8.15788 17.368 8.12482 17.466 8.0943 17.5613L8.06887 17.6398C8.03835 17.7351 8.0129 17.8444 7.98238 17.9621C7.90608 18.276 7.81707 18.6292 7.64667 18.8926C7.21939 19.5456 6.29872 19.3438 5.78242 19.0524C5.64254 18.9739 5.50772 18.8618 5.37801 18.7525C5.32206 18.7076 5.26103 18.6572 5.19999 18.6095V23.4077C5.58149 23.5535 5.97825 23.8898 6.22241 24.3018C6.46657 24.7138 6.51997 25.1454 6.37246 25.521C6.22749 25.8881 5.91467 26.2104 5.61455 26.5187C5.4645 26.6729 5.32461 26.8186 5.23051 26.9447C5.14658 27.0568 5.0652 27.1689 4.98127 27.2811C4.70913 27.6538 4.42683 28.0406 4.09365 28.4021C3.6155 28.9178 3.19586 29.5568 2.82453 30.1174C2.42014 30.7312 1.95979 31.3029 1.51216 31.8578C1.31124 32.1073 1.11032 32.3567 0.914488 32.6118L0.825478 32.7267C0.484672 33.1611 0.428719 33.2732 0.571145 33.5675C0.672878 33.7777 0.784771 33.9767 0.906851 34.1869C1.08234 34.4924 1.26291 34.8063 1.40788 35.1706C1.46129 35.3079 1.51215 35.4425 1.56047 35.5742C1.78937 36.188 1.98776 36.7205 2.42521 37.1829C2.72787 37.5024 3.13734 37.6622 3.56971 37.8304C3.67653 37.8724 3.7859 37.9144 3.89272 37.9593C4.54127 38.2283 5.16947 38.545 5.64507 38.7889C5.96808 38.9542 6.25294 39.0664 6.58103 39.1953L6.77178 39.2709C7.03374 39.3746 7.27789 39.4952 7.51696 39.6129C7.71534 39.711 7.90356 39.8034 8.09939 39.8847C8.44783 40.0305 8.78864 40.2014 9.11927 40.3668C9.8136 40.7115 10.4672 41.0366 11.1743 41.174C11.6422 41.2637 12.1357 41.3281 12.6138 41.3898C13.6718 41.5271 14.768 41.67 15.7828 42.1017C17.2935 42.7435 19.0281 42.9256 20.6761 43.0294C21.5663 43.0854 22.3497 43.0322 23.0007 42.8752C23.6086 42.7295 24.1147 42.6426 24.5852 42.6118C24.4835 42.3119 24.3818 41.998 24.3716 41.5776C24.3665 41.387 24.4784 41.2188 24.6437 41.1628C25.1041 41.0086 25.5186 40.9301 25.9179 41.5327C25.979 41.6252 26.0451 41.7317 26.1036 41.841C26.3147 41.4907 26.5996 41.2721 27.3015 41.3421C27.5024 41.3617 27.7008 41.4206 27.8839 41.5103C27.8661 41.443 27.8483 41.3786 27.8331 41.3113C27.8026 41.1908 27.8254 41.0591 27.8916 40.9582C27.9577 40.8545 28.062 40.79 28.1764 40.7816C28.2603 40.776 28.3367 40.7704 28.4053 40.7676C28.8072 40.7452 28.8478 40.7451 29.0589 40.4256C29.1098 40.3472 29.1658 40.2743 29.2192 40.1986C29.3463 40.0249 29.4557 39.8763 29.4964 39.7194C29.5676 39.4503 29.5498 39.1252 29.532 38.7805C29.5244 38.6628 29.5193 38.5422 29.5168 38.4189C29.3413 38.4694 29.1658 38.5366 28.9852 38.6067C28.6978 38.716 28.4002 38.8309 28.0722 38.8926C27.8814 38.929 27.6728 38.9514 27.4694 38.971C27.0268 39.0159 26.5716 39.0635 26.2867 39.2597C26.1214 39.3746 25.9663 39.5036 25.801 39.6409C25.5288 39.8679 25.244 40.1005 24.8981 40.2827C24.1986 40.6499 23.4815 40.8348 22.5709 40.8853C22.3141 40.8993 22.0394 40.8993 21.752 40.9021C21.1924 40.9021 20.6151 40.9049 20.1573 41.0086C20.0759 41.0282 19.9742 41.1151 19.8674 41.2076C19.6893 41.3618 19.4681 41.5523 19.1603 41.5803C18.8602 41.6084 18.5779 41.4318 18.349 41.2917C18.2676 41.2412 18.1939 41.1964 18.1379 41.1712C17.9217 41.0731 17.6954 41.0086 17.4563 40.9385C17.3291 40.9021 17.2019 40.8629 17.0748 40.8208C16.4262 40.605 15.7243 40.5013 14.9257 40.5013C14.7146 40.5013 14.5442 40.3135 14.5442 40.0809V38.5899C14.5442 38.3573 14.7146 38.1695 14.9257 38.1695C15.0808 38.1695 15.1622 38.1471 15.3148 38.0994C15.5691 38.0209 15.854 37.8948 16.1287 37.7743C16.266 37.7155 16.4008 37.6538 16.5305 37.6005C17.0545 37.3847 17.6801 37.1353 18.3363 36.9223C18.8068 36.7709 19.29 36.6476 19.758 36.5299C20.5846 36.3197 21.3679 36.1207 22.1004 35.776C22.2861 35.6863 22.4997 35.776 22.5913 35.9722C22.6701 36.1403 22.7388 36.3169 22.81 36.4907C22.8761 36.656 22.9423 36.8158 23.0135 36.9699C23.0796 36.9475 23.1432 36.9251 23.2068 36.9027C23.3924 36.841 23.5704 36.7793 23.6925 36.6925C23.8121 36.6056 23.9189 36.4458 24.0334 36.2721C24.1554 36.0871 24.2927 35.8797 24.481 35.7143C25.0557 35.2126 25.923 34.9968 26.5563 34.8399C27.4897 34.6073 28.4002 34.5148 29.3387 34.5624C30.3459 34.6101 31.3327 34.8147 32.2864 35.0165C32.3322 35.0249 32.378 35.0361 32.4212 35.0445C32.5128 34.9156 32.612 34.7894 32.7086 34.6661C32.9045 34.4195 33.1054 34.1644 33.1944 33.9486C33.2249 33.873 33.0062 33.5759 32.9248 33.4638C32.8383 33.3461 32.757 33.2368 32.6959 33.1218L32.6908 33.1022Z"/>
</svg>
