<svg width="71" height="79" viewBox="0 0 71 79" fill="none" xmlns="http://www.w3.org/2000/svg">
<path d="M68.8801 50.7104C68.8598 50.6123 68.8394 50.517 68.8165 50.4245C68.3307 50.4441 67.8094 50.5226 67.1583 50.6824C66.6216 50.8113 66.0138 50.8786 65.3398 50.8786C65.1109 50.8786 64.8718 50.8702 64.6277 50.8561C62.9186 50.7496 61.1128 50.5563 59.5054 49.8752C58.5822 49.4828 57.5343 49.3455 56.5221 49.2138C56.0338 49.1493 55.5302 49.0848 55.0418 48.9895C54.2407 48.8354 53.5108 48.4739 52.8037 48.1207C52.4833 47.961 52.1501 47.7956 51.8245 47.6583C51.6109 47.5686 51.4049 47.4649 51.204 47.3668C50.9674 47.2519 50.7462 47.1426 50.5122 47.0473L50.324 46.9744C49.9781 46.8371 49.678 46.7194 49.3219 46.5372C48.859 46.299 48.2461 45.9907 47.623 45.7328C47.5212 45.6908 47.4195 45.6515 47.3152 45.6095C46.8243 45.4189 46.3157 45.2227 45.896 44.7771C45.3441 44.1942 45.0949 43.5271 44.8533 42.8825C44.805 42.7536 44.7566 42.6246 44.7058 42.4929C44.5862 42.1874 44.4285 41.9156 44.2607 41.6241C44.136 41.4083 44.0089 41.1869 43.8944 40.9458C43.4977 40.1162 43.9148 39.5865 44.248 39.1605L44.3319 39.054C44.5303 38.7962 44.7363 38.5411 44.9398 38.2889C45.3721 37.7508 45.8197 37.1958 46.2038 36.6129C46.5929 36.0243 47.0329 35.3573 47.5568 34.7911C47.857 34.466 48.1138 34.1157 48.386 33.7429C48.4699 33.628 48.5538 33.5131 48.6403 33.3982C48.7649 33.23 48.9251 33.0675 49.093 32.8937C49.327 32.6527 49.589 32.3808 49.6729 32.1734C49.7288 32.0333 49.6398 31.8483 49.5839 31.753C49.3728 31.3971 48.9836 31.1617 48.8183 31.1617C48.6072 31.1617 48.4368 30.9739 48.4368 30.7413V25.3405C48.419 25.22 48.4317 25.1051 48.4394 25.0154L48.4445 24.9677C48.4597 24.7603 48.6098 24.5978 48.798 24.581C49.2075 24.5473 49.5559 24.836 49.8357 25.0686C49.945 25.1583 50.0493 25.2452 50.1307 25.2928C50.4766 25.489 50.9293 25.5395 51.026 25.3881C51.1175 25.248 51.1862 24.9733 51.2447 24.7295C51.2777 24.595 51.3108 24.4632 51.3464 24.3511L51.3718 24.2698C51.4253 24.1017 51.4761 23.9307 51.5092 23.7654C51.3871 23.6729 51.2625 23.5804 51.1429 23.4907C50.797 23.2273 50.4384 22.9582 50.0798 22.7144C49.9755 22.6443 49.8611 22.5798 49.7441 22.5154C49.4669 22.3584 49.1515 22.1819 48.9201 21.9072C48.7954 21.7586 48.7039 21.6017 48.6199 21.4616C48.5233 21.299 48.4394 21.1589 48.3249 21.0496C47.656 20.4162 47.0278 19.7267 46.42 19.0569C46.1504 18.7598 45.8808 18.4627 45.6061 18.1712C45.5298 18.0899 45.456 18.0002 45.3848 17.9106C45.2628 17.7592 45.1483 17.6191 45.0313 17.5518C44.7871 17.4117 44.4489 17.35 44.1234 17.2912L43.9224 17.2547C43.607 17.1931 43.3324 17.0894 43.0679 16.9885C42.9025 16.9268 42.7474 16.8652 42.5795 16.8147C42.5007 16.7895 42.4117 16.7671 42.315 16.739C41.8064 16.6017 41.1756 16.4279 40.8196 16.0496C40.6949 15.9179 40.667 15.7105 40.7509 15.5423L40.7661 15.5115C41.0001 15.0462 41.3206 14.41 41.6945 14.0457C42.1217 13.6309 42.633 13.7626 43.0068 13.8579C43.2256 13.9139 43.4316 13.9672 43.5689 13.9167C43.8258 13.8242 44.4743 13.202 44.5862 12.9358C44.7058 12.6555 44.7312 12.2043 44.7515 11.8035C44.7643 11.5933 44.7744 11.3943 44.7973 11.2065C44.8202 11.0075 44.9677 10.8562 45.1483 10.8422C45.2373 10.8366 45.2958 10.8198 45.334 10.8058C45.3238 10.7833 45.3085 10.7525 45.2856 10.7133C44.9906 10.2284 44.7083 9.76875 44.9194 8.97839C44.9398 8.89992 44.9652 8.82146 44.9881 8.74578C45.072 8.47673 45.0898 8.38984 45.0415 8.30015C45.0135 8.25531 44.8812 8.15721 44.8024 8.10115C44.5582 7.92178 44.2251 7.68075 44.2403 7.24634C44.2454 7.06697 44.3548 6.91001 44.5099 6.85957C44.6015 6.82874 44.6803 6.79511 44.7566 6.76148C44.922 6.69141 45.0924 6.61854 45.3289 6.58491C45.5222 6.55968 45.7104 6.55127 45.896 6.54567C46.008 6.54286 46.1148 6.53726 46.2216 6.52885C46.2496 6.10845 46.2267 5.76371 46.1555 5.55911C46.0944 5.37974 45.9291 5.28726 45.6468 5.14152C45.5578 5.09667 45.4637 5.04623 45.3696 4.99018C45.3696 4.99298 45.367 4.99858 45.3645 5.00138C45.306 5.1191 45.2475 5.23961 45.1839 5.35172C45.1483 5.41618 45.1076 5.47785 45.0669 5.53951C45.0008 5.64041 44.9448 5.72448 44.9169 5.80856C44.9169 5.81977 44.9169 5.859 44.9169 5.89544C44.9092 6.058 44.8965 6.25979 44.7744 6.42235C44.5455 6.72504 44.2073 6.70543 43.9835 6.69422C43.9148 6.69141 43.8105 6.68301 43.7775 6.69422C43.7673 6.70823 43.7113 6.82033 43.6783 6.8848C43.5867 7.06697 43.4722 7.29678 43.2459 7.38367C42.961 7.49297 42.6864 7.45094 42.4702 7.26596C41.8878 6.76708 41.9793 5.40778 41.9819 5.39377C41.9946 5.25083 42.02 5.07986 42.048 4.90049C42.1116 4.4913 42.2286 3.72897 42.0454 3.52157C41.9946 3.46552 41.959 3.39264 41.9437 3.31697L41.6258 1.71664H39.7666L39.0443 2.31362C38.9299 2.40891 38.7747 2.42571 38.6476 2.35565L34.9953 0.374146L27.9961 1.61295L23.9039 2.933C23.8657 2.94421 23.8251 2.95262 23.7818 2.94981L3.81668 2.13985C3.64119 2.13144 3.49367 1.99692 3.45806 1.80914L3.30038 0.993545L0.909642 6.73065C0.917272 6.78951 0.922347 6.84835 0.929977 6.90721C0.945237 7.05575 0.960518 7.19589 0.983408 7.3052C1.02919 7.24074 1.07749 7.15105 1.12327 7.06137C1.19194 6.93244 1.26318 6.79791 1.33439 6.72785C1.80745 6.2654 2.27796 6.04118 3.01807 5.93188C3.15287 5.91226 3.2902 5.91786 3.42245 5.92627C3.57251 5.93467 3.72766 5.94028 3.87263 5.90945C3.94893 5.89263 4.02269 5.85341 4.09899 5.81417C4.18546 5.76933 4.27701 5.72168 4.37365 5.70486C4.75261 5.6404 4.82637 5.78054 4.92048 5.95711C4.97643 6.06081 5.03747 6.17851 5.1799 6.28221C5.49527 6.51203 5.94034 6.43075 6.37016 6.35228C6.96021 6.24578 7.56808 6.13367 7.74611 6.91001C7.97755 6.98008 8.22934 6.96607 8.4735 6.95486L8.59048 6.94925V6.98569C8.59048 7.57706 8.85755 8.1544 9.21107 8.32817C9.45523 8.44868 9.72481 8.37862 9.99186 8.11797C10.4141 7.70878 10.4878 7.63591 11.0473 7.71719C11.5153 7.78445 11.9146 7.84891 12.3393 7.9442C12.8251 8.05351 12.8429 8.03389 13.1812 7.71719L13.2295 7.67235C13.5322 7.38928 13.6441 7.44812 13.9162 7.59106C13.962 7.61348 14.0129 7.64152 14.0688 7.66955C14.1273 7.69757 14.2138 7.73401 14.3155 7.77605C14.7835 7.97224 15.5668 8.30295 15.6787 8.72336C15.7093 8.83266 15.6915 8.94196 15.6279 9.04566C15.6813 9.11012 15.8924 9.1886 15.9814 9.19701C16.312 9.1802 16.6961 9.19141 16.9937 9.3904L17.0165 9.40441L17.0064 9.43243C16.897 9.73512 16.9275 9.95654 17.0954 10.0518C17.3319 10.192 17.8151 10.035 18.0618 9.63704L18.0847 9.59779L18.1127 9.63423C18.1763 9.72111 18.2348 9.83321 18.2907 9.93971C18.3823 10.1191 18.479 10.3041 18.6112 10.3882C18.7613 10.4862 18.9418 10.5115 19.0614 10.447C19.1402 10.405 19.1886 10.3293 19.2038 10.2228V10.1948H19.2318C19.6362 10.1527 20.0838 10.3825 20.5162 10.6068C20.7196 10.7105 20.9129 10.8114 21.091 10.873C21.3733 10.9739 21.6505 11.0972 21.9175 11.2149C22.093 11.2906 22.2736 11.3719 22.4542 11.4448C22.5406 11.4784 22.6475 11.5092 22.7594 11.5401C23.0773 11.6269 23.4385 11.7278 23.5834 12.0025L23.5961 12.0249L23.5809 12.0445C23.3825 12.28 23.1307 12.2659 22.8866 12.2519C22.6958 12.2407 22.5 12.2323 22.3296 12.3416C22.1744 12.4425 22.0651 12.6387 22.0625 12.8153C22.0625 12.9442 22.121 13.0535 22.2329 13.1264C22.3499 13.2048 22.5381 13.1011 22.734 12.9918C22.9679 12.8629 23.2095 12.7312 23.4028 12.8489C23.5402 12.933 23.5834 13.0479 23.6241 13.1488C23.675 13.2805 23.7106 13.3758 23.9344 13.3758H23.9471C24.0692 13.3758 24.1735 13.2469 24.2828 13.1096C24.3693 13.003 24.4558 12.8937 24.5575 12.8461C24.7635 12.748 24.9924 12.7648 25.2162 12.7844L25.3281 12.7928C25.88 12.8321 26.5057 12.8741 26.9915 13.2357C27.1034 13.3198 27.2026 13.4347 27.2967 13.5468C27.4417 13.7177 27.5765 13.8775 27.7545 13.9251C28.0597 14.0092 28.2911 13.799 28.5149 13.5916C28.5556 13.5552 28.5963 13.5159 28.637 13.4823L28.6675 13.4571L28.6853 13.4963C28.7209 13.5776 28.7616 13.6869 28.8074 13.8186C28.9193 14.1381 29.0745 14.5726 29.2576 14.6819C29.6264 14.8977 29.9036 14.3848 30.1249 13.9728L30.2495 13.743L30.2317 13.9027C30.2012 14.2026 30.1452 14.5081 30.0638 14.8136C30.3436 14.4941 30.7709 14.2559 31.1524 14.0429C31.221 14.0036 31.2846 13.9672 31.3482 13.9308L31.4398 13.8775L31.3914 13.9784C31.2159 14.3427 30.9514 14.6454 30.6971 14.9397C30.5216 15.1415 30.341 15.3489 30.191 15.5759C30.7861 15.4442 31.4143 15.2452 31.7017 14.6763C31.7246 14.6118 31.75 14.5501 31.7755 14.4969L31.834 14.5277C31.8136 14.5894 31.7882 14.6482 31.7602 14.7043C31.6636 14.993 31.6204 15.3881 31.6636 15.6684C31.8721 15.4778 32.068 15.2676 32.2587 15.063C32.5029 14.7996 32.7572 14.5249 33.0395 14.2951L33.1489 14.2054L33.0853 14.3399C32.9708 14.5866 32.7699 14.8332 32.5588 15.0967C32.2256 15.5115 31.8823 15.9403 31.8594 16.3859C32.0476 16.3214 32.2002 16.1589 32.3605 15.9851C32.5181 15.8169 32.6784 15.6432 32.8869 15.5535C32.9505 15.5255 33.0217 15.5059 33.0929 15.4834C33.2506 15.4358 33.4134 15.3881 33.4515 15.2788C33.4744 15.2116 33.4515 15.1191 33.3803 15.0014L33.3473 14.9453H33.4083C33.9653 14.9705 34.4333 14.7856 34.7613 14.4212C35.0996 14.0457 35.2649 13.5103 35.2395 12.8685L35.2344 12.7424C35.2217 12.4397 35.2141 12.2575 35.3056 12.1482C35.3819 12.0557 35.5142 12.0193 35.8117 12.0053C36.094 11.9913 36.3713 11.9044 36.6434 11.8175C36.9562 11.7166 37.2818 11.6157 37.6099 11.6297H37.6455L37.6404 11.6718C37.6099 11.868 37.5285 12.0922 37.442 12.3304C37.3072 12.7004 37.1699 13.0815 37.2258 13.3506C37.6633 13.1993 37.7167 12.3781 37.7523 11.8287C37.7599 11.7166 37.765 11.6101 37.7752 11.526V11.5036L37.7981 11.498C37.971 11.4448 38.1567 11.456 38.3347 11.4672C38.5179 11.4784 38.6908 11.4896 38.851 11.4335C39.1613 11.3242 39.4792 10.9683 39.759 10.6572C39.9014 10.4974 40.0362 10.3461 40.1634 10.234C40.2371 10.1695 40.3389 10.0518 40.4584 9.9173C40.8399 9.48569 41.3613 8.89711 41.7453 9.00922C41.9208 9.06247 42.0454 9.25866 42.1167 9.59218C42.1828 9.90328 41.9335 10.6908 41.7631 10.9094C41.697 10.9935 41.6131 10.9851 41.5495 10.9767C41.5088 10.9711 41.4834 10.9711 41.4732 10.9823C41.3943 11.0972 41.3613 11.2149 41.3231 11.3411C41.3053 11.4027 41.2875 11.47 41.2621 11.5372C40.8577 12.6303 40.4025 13.3478 39.8684 13.7318L39.8353 13.7542L39.82 13.7149C39.7717 13.5832 39.7437 13.4431 39.7183 13.3057C39.6751 13.0871 39.6344 12.8769 39.5123 12.6976C39.2376 13.4683 37.9354 15.3797 37.1521 15.1247C37.0275 15.0826 36.913 15.0098 36.8011 14.9397C36.5493 14.7772 36.3102 14.6258 35.9618 14.8248C35.7431 14.9509 35.7049 15.2312 35.6668 15.5283C35.6464 15.6796 35.6261 15.8366 35.5803 15.9711L35.5701 15.9963L35.5447 15.9907C35.3794 15.9599 35.2548 15.9207 35.1454 15.8842C34.9216 15.8141 34.7613 15.7609 34.4129 15.8366C34.3671 15.8478 34.3163 15.859 34.2578 15.8702C33.9119 15.9431 33.332 16.0636 33.1285 16.2346C32.9759 16.3635 32.8996 16.5204 32.8259 16.6746C32.7216 16.8904 32.6148 17.1174 32.2943 17.2519C32.246 17.2744 32.1417 17.2912 32.0146 17.3164C31.6585 17.3808 31.0583 17.4902 30.9743 17.776C30.9387 17.8909 30.9947 18.0339 31.1422 18.1992C31.2312 18.3001 31.3253 18.3057 31.422 18.3085C31.5339 18.3142 31.6458 18.3198 31.745 18.4627C31.8467 18.6112 31.8365 18.7486 31.8238 18.8943C31.8187 18.9644 31.8111 19.04 31.8187 19.1185C31.8289 19.2334 31.8492 19.3371 31.8696 19.438C31.9128 19.6482 31.9535 19.8444 31.895 20.0967C31.8772 20.1807 31.8391 20.2424 31.8085 20.3013C31.7602 20.3881 31.717 20.4638 31.7424 20.5927C31.7678 20.7132 31.8823 20.8338 32.0069 20.9599C32.2384 21.1981 32.4978 21.47 32.2155 21.8203C32.0908 21.9716 31.9001 21.9969 31.7144 22.0221C31.455 22.0557 31.2312 22.0838 31.1803 22.4145C31.5415 22.5126 31.9459 22.4649 32.274 22.4285L32.3477 22.4201L32.302 22.4845C32.1316 22.7256 31.834 22.7788 31.5491 22.8321C31.3787 22.8629 31.2185 22.8909 31.0837 22.9582C31.2439 23.0423 31.3635 23.1376 31.4398 23.2385L31.4627 23.2693L31.4321 23.2917C31.2388 23.4234 31.0939 23.4487 30.9896 23.4655C30.8243 23.4935 30.7709 23.5019 30.748 23.9055C30.7225 24.382 30.7454 24.8836 30.7683 25.3713C30.781 25.66 30.7963 25.9571 30.7988 26.243C30.8065 27.0053 30.9057 27.6163 31.1371 28.3506L31.1473 28.387C31.2668 28.7654 31.3914 29.1577 31.4347 29.5473C31.4957 30.1078 31.3889 30.5086 31.1219 30.7413C30.9591 30.8814 30.7429 30.9515 30.486 30.9515C30.2291 30.9515 29.9595 30.887 29.6518 30.7609C29.194 30.5703 29.1558 30.5451 28.9676 30.0658C28.8812 29.8444 28.8201 29.7407 28.7642 29.7239C28.7209 29.7071 28.6675 29.7435 28.5887 29.7996C28.4844 29.8696 28.3445 29.9649 28.1258 30.0126L28.1029 30.0182L28.0927 29.9985C27.9986 29.8248 27.9707 29.6734 27.9478 29.5389C27.9122 29.3371 27.8867 29.1914 27.6349 29.0737C27.4569 28.9924 27.2712 28.9391 27.0729 28.8831C26.8592 28.8214 26.6354 28.7598 26.4294 28.6561C26.086 28.4851 25.7071 28.3337 25.2722 28.1936C25.2061 28.1712 25.1348 28.1516 25.0611 28.132C24.6516 28.017 24.1429 27.8741 24.0387 27.4089C23.9853 27.1734 24.0514 26.9324 24.115 26.7026C24.1608 26.5372 24.204 26.3831 24.2065 26.2289C24.2192 25.5198 23.4893 25.234 22.7848 24.9565C22.3931 24.8024 22.0244 24.6594 21.8005 24.4464C21.4928 24.1549 21.3275 23.6897 21.3885 23.2917C21.414 23.132 21.4953 22.9862 21.5716 22.8461C21.6734 22.6639 21.77 22.4901 21.7497 22.294C21.7344 22.1314 21.5691 21.9296 21.4114 21.7334C21.2003 21.4728 20.9841 21.2065 21.063 20.9795C21.124 20.8057 21.3351 20.7973 21.5386 20.7889C21.6912 20.7833 21.8463 20.7777 21.8896 20.6936C21.9175 20.6404 21.8997 20.5479 21.8387 20.4162L21.8336 20.4078V20.3965C21.8514 20.1387 21.7802 19.9229 21.6276 19.7491C21.1723 19.239 20.1143 19.2474 19.7582 19.2643C19.7277 19.4969 19.7303 19.7351 19.7328 19.9677C19.7328 20.1163 19.7379 20.2676 19.7303 20.419L19.7252 20.5199L19.6718 20.4358C19.4912 20.1555 19.2826 19.9453 19.0588 19.7211C18.9393 19.6006 18.8147 19.4745 18.6926 19.3371C18.2882 18.8747 18.156 18.7878 17.5201 18.8186C17.4464 18.8214 17.3421 18.8186 17.22 18.8186C16.8182 18.813 16.2103 18.799 16.0119 18.9896C15.8797 19.1157 15.8517 19.4016 15.8212 19.679C15.8008 19.8724 15.783 20.0546 15.7296 20.1835L15.7143 20.22L15.6838 20.1976C15.3786 19.9846 15.076 19.7379 14.7835 19.4997C14.4834 19.2559 14.1731 19.0008 13.8526 18.7794C13.227 18.345 12.7183 17.9526 12.2682 17.4621C12.1741 17.3612 12.0825 17.2491 11.9909 17.1398C11.7671 16.8708 11.5357 16.5905 11.261 16.4111C11.2457 16.5513 11.2381 16.6998 11.2432 16.8427V16.9128L11.1948 16.8736C10.7421 16.5401 10.1546 16.0944 9.61291 15.6348C9.49846 15.5367 9.39673 15.4386 9.30008 15.3433C8.95928 15.007 8.71002 14.766 8.21153 14.9257L8.16322 14.9397C7.80207 15.0546 7.62148 15.1135 7.16877 15.0042C6.66265 14.8809 6.19468 14.6454 5.74451 14.4156C5.34775 14.2138 4.93573 14.0064 4.50591 13.8831C4.0532 13.7514 3.95146 13.8467 3.82938 13.9728L4.63308 16.882C4.65851 16.9717 4.65342 17.067 4.62544 17.1538L0.6604 28.642C1.06479 28.7822 1.47681 28.9083 1.899 29.0204C2.44327 29.1605 2.99772 29.2194 3.58268 29.2839C4.2058 29.3511 4.85179 29.4212 5.48 29.5978C5.96832 29.7351 7.45364 30.1499 7.4689 31.5456C7.47398 31.924 7.43073 32.2939 7.39258 32.6499C7.34935 33.0479 7.30611 33.4234 7.32391 33.8074C7.33408 34.0316 7.34171 34.2586 7.35188 34.4828C7.36714 34.9088 7.38497 35.3377 7.41041 35.7637C7.42312 35.9627 7.43327 36.1701 7.44344 36.3747C7.46887 36.9128 7.49686 37.4677 7.57824 37.9722C7.652 38.4262 7.82241 38.8606 8.00299 39.3231C8.09455 39.5585 8.18864 39.7995 8.27257 40.049C8.33869 40.248 8.40738 40.5002 8.47859 40.7693C8.61593 41.285 8.84737 42.1482 9.04575 42.3416C9.16274 42.4537 9.20345 42.6331 9.15258 42.7956L7.93941 46.5989L11.7162 50.6011L24.6542 53.2552C24.794 53.2833 24.9085 53.3954 24.9492 53.5439L26.203 58.0338C26.2234 58.1067 26.2259 58.1852 26.2081 58.258C26.0479 58.9811 25.3256 59.4043 24.7483 59.6341C23.9013 59.9705 23.2553 60.304 22.5839 60.7524C21.9531 61.1756 21.4445 61.5792 21.035 61.9884C20.8112 62.2098 20.7654 62.4817 20.7069 62.8292C20.6433 63.2076 20.5696 63.6364 20.2491 64.026C20.1296 64.1717 19.9973 64.2894 19.8676 64.4015C19.626 64.6145 19.4734 64.7546 19.4352 64.9761C19.4022 65.1694 19.4683 65.5002 19.5293 65.7888C19.5624 65.9514 19.5955 66.1056 19.6133 66.2513C19.6362 66.4279 19.5548 66.6016 19.4098 66.6829C19.2648 66.7642 19.0894 66.739 18.9724 66.6156C18.924 66.5652 18.8783 66.5147 18.835 66.4615C18.8274 66.6156 18.835 66.781 18.8376 66.9295C18.8376 66.9884 18.8427 67.0472 18.8427 67.1061L25.0611 78.1879L26.8033 78.7821C26.8084 78.7513 26.8134 78.7204 26.8185 78.6924C26.8592 78.4626 26.8999 78.2243 26.8719 78.0814C26.8465 77.9637 26.7321 77.832 26.61 77.6919C26.4218 77.4761 26.1878 77.2042 26.1217 76.8034C26.0683 76.4783 26.0886 76.1616 26.1064 75.8561C26.1267 75.5254 26.1446 75.2143 26.0632 74.9536C25.9665 74.6509 25.6613 74.295 25.5291 74.1436C25.4579 74.0596 25.351 73.9699 25.2391 73.8746C25.0204 73.6868 24.7737 73.4766 24.6262 73.1823C24.2981 72.5265 24.5245 72.1874 24.6389 72.0725C24.8042 71.9043 25.0229 71.9267 25.1832 71.9436C25.206 71.9436 25.2264 71.9491 25.2467 71.9491C25.3765 71.9183 25.5062 71.8483 25.6537 71.7698C25.702 71.7446 25.7503 71.7165 25.8012 71.6913C25.8012 71.4054 25.8139 71.1168 25.8292 70.8337C25.8368 70.6936 25.8419 70.5562 25.847 70.4189C25.8546 70.2199 25.9869 70.0517 26.1675 70.0209C26.6024 69.9424 27.0144 69.7827 27.4518 69.6145C27.724 69.508 28.0088 69.4015 28.2987 69.3118C28.8939 69.1296 29.4966 69.04 30.0816 68.9559C30.5699 68.8858 31.0354 68.8158 31.4881 68.698C31.6356 68.1992 31.8645 67.5798 32.2282 67.1622C32.3299 67.0445 32.4876 67.0024 32.6275 67.0529C32.8132 67.1229 32.9988 67.1033 33.0675 67.0501C33.1285 66.9996 33.1845 66.8959 33.243 66.7838C33.3574 66.5708 33.4973 66.3045 33.7949 66.1616C33.9399 66.0915 34.1077 66.128 34.2196 66.2541C34.5604 66.638 35.0335 66.9884 35.4557 67.1678C35.5905 67.2238 35.8601 66.9436 36.0559 66.739C36.15 66.6409 36.2416 66.5456 36.328 66.4671C36.473 66.3382 36.679 66.3438 36.8189 66.4783C37.1215 66.7698 37.4802 66.9828 37.8591 67.207C38.0677 67.3303 38.2813 67.4593 38.4899 67.5994C38.6272 67.6947 38.762 67.8012 38.8943 67.9077C39.1232 68.0899 39.3597 68.2804 39.5835 68.3729C39.9116 68.5103 40.3185 68.5074 40.7127 68.5018H40.9162C41.0129 68.5018 41.1044 68.499 41.1909 68.4962C41.6233 68.4822 42.0709 68.4682 42.5389 68.8101C42.9127 69.0792 43.2662 69.3062 43.5918 69.4828C44.9957 70.2395 46.2724 70.6123 47.5034 70.6207C47.7705 70.6207 48.035 70.6319 48.302 70.6431C48.5691 70.6543 48.8361 70.6627 49.1057 70.6655C49.3982 70.6655 49.6907 70.6403 49.9984 70.6151C50.441 70.5758 50.8988 70.5366 51.3744 70.5814C51.8932 70.6291 52.3536 70.9542 52.7605 71.2401C52.8673 71.3157 52.9716 71.3886 53.0708 71.4531C53.17 71.5175 53.2615 71.582 53.3505 71.6465C53.7168 71.9099 53.7982 71.9379 53.9253 71.8567C53.9889 71.8146 54.0474 71.767 54.1034 71.7165C54.2305 71.6072 54.3908 71.4727 54.612 71.3998C55.0826 71.2401 55.5454 71.383 55.9549 71.5091C56.077 71.5456 56.194 71.582 56.3084 71.61C57.0562 71.7782 57.8879 71.8595 58.6534 71.8342C58.8772 71.8258 58.9764 71.8006 59.0171 71.7838C59.0171 71.7502 59.0069 71.6801 58.9739 71.5568C58.7246 70.6992 58.7653 70.0629 59.1214 69.2894C59.4037 68.6756 59.803 68.4206 60.1565 68.1936C60.3447 68.073 60.5227 67.9609 60.6906 67.7928C60.9983 67.4901 61.3239 66.9015 61.4307 66.4475C61.4892 66.2008 61.5197 65.7048 61.4841 65.5758C61.4638 65.4974 61.3697 65.4049 61.273 65.3068C61.1509 65.1835 61.0136 65.0433 60.922 64.8471C60.5838 64.1269 61.0111 63.4346 61.3544 62.8769C61.4739 62.6835 61.596 62.4845 61.657 62.3275V58.258C61.657 58.1936 61.6723 58.1291 61.6952 58.0731C61.774 57.8965 61.9495 57.804 62.125 57.8488C62.2369 57.8769 62.3285 57.9581 62.3793 58.0674C62.5294 58.1936 62.972 58.4598 63.1322 58.5327C63.3026 58.6084 63.3026 58.6084 63.4781 58.401C63.5798 58.2805 63.707 58.1291 63.8901 57.9946C64.1292 57.8236 64.4395 57.8012 64.7167 57.7844C64.8108 57.7788 64.9532 57.7676 65.0422 57.7479C65.0422 57.7395 65.0422 57.7283 65.0422 57.7199C65.0346 57.5714 65.0193 57.3444 65.1363 57.137C65.3093 56.8259 65.645 56.7053 65.9171 56.6353C66.0697 56.596 66.2274 56.6633 66.3164 56.8034C66.4512 57.0136 66.4995 57.235 66.5453 57.4312C66.5529 57.4677 66.5606 57.5013 66.5708 57.5377C66.6089 57.4761 66.6521 57.42 66.7081 57.3724C66.9345 57.1762 67.2066 57.2154 67.4024 57.2435C67.4558 57.2519 67.5372 57.2631 67.5652 57.2603C67.6466 57.221 67.7204 56.7726 67.7458 56.6241C67.8552 55.9626 67.7178 55.2479 67.5703 54.4912C67.4584 53.9111 67.3414 53.3141 67.3388 52.7115C67.3388 52.5181 67.4584 52.3472 67.6288 52.2995C67.7992 52.2519 67.9772 52.3416 68.0586 52.5153C68.4096 53.2636 68.8292 54.2418 68.9768 55.1751C69.0581 55.6964 69.0531 56.2177 69.0505 56.7222C69.0505 56.8539 69.0505 56.9856 69.0505 57.1117C69.0887 57.1117 69.1243 57.1117 69.1599 57.1117H69.3354C69.521 57.1117 70.0068 56.8202 70.4061 56.2933C70.6553 55.9626 70.7952 55.6235 70.7647 55.4273C70.7444 55.3517 70.5867 55.1358 70.5028 55.0209C70.4265 54.9172 70.3552 54.8163 70.3018 54.7267C70.134 54.4324 70.0017 54.1353 69.872 53.8326C69.5795 53.1515 69.3303 52.4509 69.0658 51.5596C68.9818 51.2821 68.9233 50.9991 68.8648 50.7272L68.8801 50.7104Z"/>
</svg>
