<svg width="56" height="37" viewBox="0 0 56 37" fill="none" xmlns="http://www.w3.org/2000/svg">
<path d="M13.5214 32.4913C14.3149 32.3203 15.1568 32.3399 15.9757 32.3596C16.1716 32.3652 16.3649 32.368 16.5556 32.3708C17.5043 32.3792 17.9799 32.7996 18.4834 33.2424C18.6666 33.405 18.8548 33.5703 19.0837 33.7329C19.6763 34.1533 20.2536 34.2093 20.925 34.2738C21.3065 34.3102 21.6982 34.3467 22.123 34.456C22.8554 34.6409 23.4048 34.9016 23.8016 35.2547C23.9389 35.3752 24.0406 35.5238 24.1322 35.6527C24.2365 35.8013 24.328 35.9302 24.4247 35.9666C25.325 36.3142 26.383 35.5967 26.9578 34.7054C27.0647 34.5429 27.1435 34.3775 27.2274 34.2037C27.3622 33.9235 27.5021 33.6348 27.7539 33.3433C27.9803 33.0798 28.2193 32.8304 28.4482 32.5922C28.6059 32.4268 28.7661 32.2615 28.9187 32.0905C29.1909 31.7934 29.4172 31.4375 29.6563 31.0619C30.0251 30.4846 30.4066 29.8904 30.9814 29.4672C31.0755 29.3971 31.195 29.3775 31.3018 29.4139C31.4112 29.4504 31.5002 29.5372 31.5434 29.6522C31.6375 29.8988 32.838 29.7671 33.2882 29.7194C33.8096 29.6634 34.2775 29.6129 34.6336 29.6662C34.6997 29.3579 34.7277 29.0468 34.7531 28.7469C34.8218 27.9033 34.9007 26.9476 35.9917 26.2777C37.1591 25.5602 38.6851 25.8938 39.911 26.16L40.0153 26.1824C40.3205 25.8881 40.6892 25.6948 41.0479 25.5098C41.2437 25.4089 41.4268 25.3136 41.5871 25.2071C41.7549 25.0978 41.9177 24.9745 42.083 24.8512C42.3501 24.6522 42.6222 24.4504 42.9172 24.285C43.4996 23.9599 44.0414 24.03 44.5678 24.0944C44.723 24.114 44.8832 24.1337 45.0485 24.1449C45.2444 24.1561 45.4555 24.1449 45.6767 24.1253C46.0353 24.1 46.4041 24.0748 46.7653 24.1533C47.2434 24.257 47.7038 24.5373 48.1794 25.0137C48.2353 25.0698 48.2786 25.1118 48.3167 25.1454C48.4312 25.0361 48.599 24.9296 48.8661 24.8904C49.1408 24.8512 49.3747 24.9941 49.5629 25.1118C49.6621 25.1735 49.7639 25.2351 49.8376 25.2519C50.0284 25.2912 50.3361 25.2744 50.6413 25.2043C52.0707 24.882 52.4191 23.6516 52.7548 21.9504C52.9252 21.0844 53.1643 20.2716 53.3932 19.4896C53.5509 18.9571 53.7111 18.405 53.8484 17.85C53.9095 17.6034 53.9629 17.3484 54.0163 17.0989C54.1282 16.5776 54.2427 16.0367 54.4207 15.5378C54.5072 15.2912 54.6318 15.0502 54.7488 14.8175C54.8582 14.6045 54.9675 14.3859 55.0362 14.1841C54.7539 14.0384 54.3444 13.9935 54.1715 14.0972L53.9552 14.2234C53.472 14.5064 52.9735 14.8007 52.7472 15.1707C52.7116 15.2295 52.6811 15.294 52.6506 15.3556C52.503 15.6639 52.2538 16.1796 51.4882 16.0395C51.1932 15.9863 50.9821 15.7312 50.7965 15.5042C50.71 15.4005 50.6235 15.294 50.5523 15.2407C50.1683 14.9521 49.8427 14.9044 49.2425 14.8764L49.0187 14.8652C48.3956 14.84 47.9047 14.8175 47.2332 14.4392C46.6228 14.0945 46.2922 13.4722 46.1218 13.0126C45.8293 12.2251 45.8853 11.6 46.31 10.9218C46.6279 10.4089 46.7068 10.1286 46.7119 9.48682C46.7119 9.28783 46.7246 9.08884 46.7373 8.89266C46.7653 8.43862 46.7932 8.01263 46.6762 7.66229C46.6177 7.48852 46.5618 7.31755 46.5033 7.14378C46.3533 6.70096 46.1981 6.24412 46.0633 5.77327C46.0404 5.69759 46.0303 5.62192 46.0252 5.54905C45.7556 5.71161 45.4656 5.84614 45.196 5.81812C44.6619 5.76206 44.4229 5.08662 44.2321 4.5429C44.1863 4.41398 44.1431 4.29064 44.1075 4.21497C44.0312 4.05242 43.9473 3.89267 43.8608 3.73011C43.6955 3.41621 43.5225 3.0911 43.403 2.73236C43.3063 2.44648 43.2987 2.15501 43.2911 1.89716C43.2911 1.81028 43.286 1.72339 43.2809 1.64211C43.0011 1.69536 42.963 1.71498 42.8943 1.88594C42.8256 2.0541 42.7773 2.37642 42.7697 2.70434C42.7672 2.83046 42.7112 2.95096 42.6196 3.02664C42.5281 3.10511 42.4085 3.13314 42.2966 3.10231C42.1542 3.06308 42.022 2.97339 41.8973 2.85568C41.8923 3.0883 41.8592 3.32652 41.7549 3.54793C41.7066 3.64883 41.6227 3.7245 41.5235 3.75813C41.4243 3.78896 41.3149 3.77496 41.2259 3.7161C40.8037 3.44424 40.5061 3.11351 40.351 2.74076C40.2543 3.11632 40.0127 3.37418 39.8042 3.59559C39.7864 3.61521 39.7686 3.63482 39.7508 3.65443C40.0458 4.31026 39.6668 5.0782 39.3998 5.61351C39.3337 5.74524 39.2701 5.87417 39.2192 5.99469C39.1429 6.16846 38.97 6.26373 38.797 6.2273C38.6851 6.20208 38.5732 6.16846 38.4613 6.13482C38.4511 6.13202 38.441 6.12921 38.4282 6.1236C38.1586 6.56923 37.8458 6.97562 37.5381 7.36799C37.2685 7.71553 37.0116 8.04345 36.7929 8.39098C36.6962 8.54233 36.5233 8.60679 36.3656 8.55354C36.1113 8.46666 35.9002 8.33492 35.6967 8.206C35.5238 8.09669 35.3661 7.99861 35.2033 7.93975C35.1372 8.12193 35.0481 8.28729 34.9439 8.43022C34.8345 8.57596 34.6489 8.6236 34.4937 8.54793C34.186 8.39659 34.0715 8.10231 33.9876 7.8865C33.9825 7.87249 33.9774 7.85847 33.9723 7.84726C33.7587 7.99861 33.3492 8.28728 33.161 8.45824C33.1763 8.48347 33.1941 8.51431 33.2068 8.53673C33.3212 8.73572 33.4967 9.03559 33.4179 9.45039C33.3619 9.74467 33.2653 9.91284 33.2017 10.0221C33.1941 10.0362 33.1864 10.0502 33.1788 10.0614C33.1839 10.081 33.1941 10.1174 33.217 10.1819C33.2449 10.252 33.3238 10.3529 33.4001 10.4509C33.5476 10.6415 33.7155 10.8573 33.7612 11.1404C33.8375 11.6141 33.5908 11.9644 33.4103 12.2222C33.306 12.3708 33.2017 12.5221 33.2119 12.6146C33.222 12.6959 33.2729 12.78 33.3594 12.9117C33.4967 13.1219 33.6849 13.4106 33.6544 13.8422C33.6112 14.4448 33.2373 14.9156 32.9347 15.2968C32.8914 15.3529 32.8482 15.4061 32.8075 15.4593C32.7414 15.5462 32.6778 15.6499 32.6091 15.7592C32.426 16.0563 32.2174 16.3927 31.8487 16.5748C31.7088 16.6449 31.5434 16.6141 31.4315 16.4963C31.1111 16.1656 31.1136 15.5911 31.1162 15.0362C31.1162 14.7279 31.1187 14.3775 31.0551 14.215C30.9534 13.9599 30.7805 13.8282 30.5439 13.8282C30.2235 13.8282 29.8928 14.072 29.758 14.4056C29.7275 14.484 29.7072 14.5793 29.6894 14.6802C29.6385 14.9549 29.5597 15.3669 29.1146 15.5434C28.7382 15.692 28.3872 15.5687 28.0718 15.1707C27.8251 14.8596 27.7742 14.5064 27.7335 14.2234C27.7081 14.0384 27.6852 13.8814 27.6191 13.7497C27.4589 13.4302 27.2045 13.2116 26.9654 13.0659C26.9069 13.1527 26.8434 13.2424 26.7671 13.3293C26.6577 13.4526 26.4873 13.4919 26.3423 13.4218C26.1363 13.3237 26.0117 13.1387 25.91 12.993C25.8795 12.9481 25.8388 12.8865 25.8108 12.8557C25.7498 12.8921 25.62 12.9986 25.5386 13.0659C25.4242 13.1612 25.3174 13.248 25.2156 13.3069C24.7731 13.5563 24.5086 13.9515 24.2034 14.4056C24.0635 14.613 23.9211 14.826 23.7507 15.0362C23.6134 15.2071 23.3768 15.2267 23.2166 15.0782L21.0115 13.007L18.8828 14.1029C18.7378 14.1785 18.5648 14.1449 18.4504 14.0188L15.2432 10.4538L13.9284 11.0675C13.908 11.1853 13.8877 11.317 13.8724 11.4403C13.8571 11.5412 13.8444 11.6337 13.8317 11.715C13.7885 11.9784 13.7045 12.1326 13.6231 12.2811C13.6003 12.3203 13.5774 12.3652 13.5519 12.4156C13.4858 12.5502 13.3561 12.6343 13.2162 12.6343C13.2137 12.6343 13.2086 12.6343 13.206 12.6343C13.0636 12.6314 12.9339 12.539 12.8729 12.396C12.4914 11.5188 12.382 10.4958 12.527 9.17292C12.6491 8.06306 12.6592 6.96441 12.6592 5.93583C12.6592 5.77047 12.6643 5.60511 12.6719 5.44255C12.6948 4.80914 12.7127 4.30747 12.3973 3.90388C11.8835 3.24525 11.4664 2.6651 11.1154 1.96723C11.0162 1.77104 10.9527 1.57485 10.8916 1.38427C10.8382 1.22171 10.7899 1.07037 10.7237 0.935843C10.594 0.675193 10.4033 0.49862 10.093 0.265997C9.97601 0.223956 9.51822 0.453764 9.29949 0.568675C9.06296 0.68919 8.8417 0.804103 8.64332 0.851749L8.54413 0.874175C8.03038 0.99469 7.62598 1.08999 7.35893 1.51039C7.25974 1.66734 7.17327 1.83269 7.07917 2.00926C6.90622 2.33717 6.72566 2.67911 6.45607 2.979C6.15341 3.31532 5.85328 3.36856 5.61421 3.4106C5.49722 3.43022 5.38531 3.44985 5.26323 3.5031C5.14115 3.55635 5.05466 3.62921 4.96565 3.70769C4.59686 4.02719 4.24845 4.11127 3.74741 3.47786C3.56684 3.24804 3.39898 3.00982 3.23875 2.7828C3.10904 2.59783 2.97931 2.41286 2.84197 2.23068C2.7733 2.141 2.69955 2.05691 2.6258 1.97563C2.32568 2.55298 1.93402 3.06587 1.54997 3.56475C0.990442 4.29345 0.46143 4.98292 0.247791 5.81812C0.143514 6.23011 0.130798 6.67293 0.120624 7.14378C0.118081 7.28111 0.112982 7.41565 0.107895 7.55298C0.0748319 8.37697 0.0417699 9.33549 0.0773765 10.266C0.11044 11.1572 0.140965 11.9728 0.400384 12.7408C0.502117 13.0406 0.616559 13.3293 0.741182 13.6348C0.875978 13.9683 1.01333 14.3131 1.13032 14.6718L1.20408 14.896C1.48385 15.7536 1.77379 16.6393 1.93911 17.5558C2.00778 17.9369 2.08663 18.3405 2.22651 18.7217C2.24685 18.7777 2.27481 18.8338 2.30279 18.887C2.30279 18.887 2.30279 18.8898 2.30279 18.8926C2.6614 18.6936 3.01238 18.6292 3.51087 18.6432H3.56682C4.04751 18.6572 4.35272 18.6965 4.57145 19.3383C4.63758 19.5289 4.70878 19.725 4.77999 19.9156C4.82831 20.0474 4.87665 20.1819 4.92243 20.3136C5.00636 20.5518 5.08266 20.7789 5.17931 20.9891C5.35734 21.3786 5.46415 21.359 5.55063 21.3394C5.58878 21.331 5.60402 21.3282 5.69558 21.0871C5.73119 20.9919 5.77189 20.8826 5.83039 20.7732C5.88888 20.6583 5.99061 20.5827 6.11015 20.563C6.4891 20.5014 7.00033 20.8181 7.26992 21.0115C7.5802 21.2329 7.93118 21.5524 8.18551 21.8467C8.4195 22.1185 8.6179 22.4184 8.80865 22.7099C8.89512 22.8416 8.97902 22.9705 9.06804 23.0967C9.23335 23.3321 9.33255 23.5984 9.42666 23.8534C9.4292 23.8618 9.43175 23.8674 9.43429 23.8758C9.58689 24.1056 9.71915 24.3495 9.81834 24.6129C9.88701 24.7979 9.83105 25.0109 9.68099 25.123C9.53093 25.2351 9.33001 25.2155 9.2003 25.0754C8.99174 24.8512 8.86713 24.5625 8.7654 24.2934C8.47037 23.873 8.07871 23.489 7.69467 23.1163C7.51918 22.9453 7.34877 22.7772 7.18855 22.609L7.16563 22.5866C6.91384 22.3203 6.81719 22.2306 6.61881 22.2559C6.63153 22.2895 6.6519 22.3371 6.67988 22.396C6.83757 22.7127 7.04101 22.9986 7.25719 23.3013C7.5217 23.6712 7.79384 24.0524 7.99222 24.512L8.03037 24.6017C8.38898 25.4313 8.69673 26.146 9.24864 26.7766C9.62505 27.2054 10.0574 27.6118 10.4694 27.993C10.5711 28.0883 10.7059 28.1891 10.8484 28.2985C11.1358 28.5171 11.4334 28.7413 11.6292 29.0244C11.7029 29.1309 11.7258 29.271 11.6928 29.3999C11.6139 29.6914 11.3927 29.9605 11.118 30.109C10.8738 30.2379 10.617 30.2519 10.3982 30.1538C10.2812 30.1006 10.1846 30.0249 10.1032 29.9408C10.0981 30.0529 10.0956 30.1623 10.0981 30.2716C10.2482 30.3697 10.4059 30.4369 10.6195 30.493C11.2045 30.6471 11.6572 30.8349 12.1786 31.1432C12.8576 31.544 13.3129 32.0092 13.524 32.5081L13.5214 32.4913Z" />
</svg>
