<svg width="152" height="190" viewBox="0 0 152 190" fill="none" xmlns="http://www.w3.org/2000/svg">
<path d="M20.7027 20.1037C20.8222 20.1261 20.9265 20.2074 20.9825 20.3279C21.0384 20.4484 21.0384 20.5885 20.9825 20.7091L3.38009 59.1171L2.28137 70.7062L6.10908 78.8872C6.19555 79.0722 6.14723 79.2992 5.99208 79.4225L0 84.1731L12.4114 104.882L23.6555 101.474C23.8234 101.424 24.0039 101.505 24.0904 101.673L28.437 110.23L33.3456 112.57C33.4422 112.615 33.516 112.704 33.5541 112.814L36.3442 121.311L56.5179 129.535C56.6221 129.577 56.7061 129.669 56.7442 129.784L58.3516 134.607L61.9784 134.38L66.9887 124.86C67.0396 124.762 67.1235 124.692 67.2227 124.664C67.3219 124.635 67.4262 124.652 67.5127 124.708L79.4511 132.489L81.9486 128.957C82.0173 128.859 82.1216 128.8 82.2309 128.795L87.2209 128.542L91.1224 125.129C91.2216 125.042 91.3513 125.017 91.4734 125.056C91.5929 125.098 91.687 125.202 91.7252 125.333L94.1286 133.91L111.016 138.001C111.217 138.049 111.347 138.268 111.309 138.492L110.075 145.616C110.042 145.81 109.892 145.95 109.714 145.958L105.347 146.138L105.024 149.98C105.019 150.042 105.001 150.104 104.971 150.157L102.855 154.044C102.761 154.218 102.57 154.291 102.4 154.223L93.5055 150.686L92.6255 154.408C92.6637 154.434 92.7044 154.462 92.7476 154.487C93.7064 155.115 95.3138 156.169 94.8687 157.578C94.472 158.828 93.5945 159.809 92.745 160.759C92.2618 161.297 91.8066 161.808 91.4505 162.348C91.2928 162.589 91.1376 162.83 90.9825 163.072C90.0745 164.476 89.136 165.93 87.8695 167.057C87.0709 167.769 86.1909 168.257 85.3389 168.727C84.8862 168.977 84.4207 169.235 83.9706 169.526C83.9121 169.563 83.8154 169.616 83.6984 169.68C83.5255 169.776 83.0295 170.045 82.8617 170.21C82.943 170.451 83.2559 170.978 83.4161 171.247C83.5484 171.468 83.6526 171.642 83.7086 171.765C83.8586 172.085 83.9934 172.43 84.1232 172.763C84.4589 173.629 84.8048 174.523 85.4609 175.014C86.2138 175.577 87.282 175.614 88.3171 175.647C89.0343 175.67 89.7744 175.695 90.4332 175.894C91.7938 176.303 93.3097 177.242 94.5279 177.999L94.8128 178.175C95.0137 178.301 95.2019 178.402 95.385 178.5C96.12 178.898 96.7533 179.24 96.9721 180.515C96.9949 180.65 97.0153 180.829 97.0407 181.034C97.0967 181.513 97.2417 182.783 97.5469 182.901C97.641 182.937 97.7172 183.01 97.7605 183.108C97.8698 183.349 97.9589 183.584 98.0428 183.814C98.1801 184.19 98.3124 184.543 98.5209 184.846C98.6532 185.036 98.788 185.218 98.9228 185.403C99.3272 185.955 99.7468 186.524 100.055 187.208C100.113 187.34 100.169 187.472 100.225 187.603C100.378 187.965 100.523 188.307 100.739 188.607C101.006 188.974 101.092 189.036 101.118 189.044C101.153 189.038 101.286 188.994 101.392 188.952L101.453 188.926C101.629 188.856 101.804 188.809 101.977 188.778L102.038 188.71L104.488 184.722L104.203 181.594L101.39 179.114C101.321 179.055 101.275 178.971 101.255 178.876L100.431 174.773C100.395 174.596 100.467 174.411 100.609 174.319L102.529 173.066C102.595 173.024 102.672 173.004 102.748 173.007L106.204 173.259L109.322 171.384L108.46 164.98C108.435 164.792 108.526 164.61 108.684 164.535L110.642 163.584C110.691 163.562 110.744 163.548 110.795 163.548H120.022C120.579 163.041 121.07 162.772 121.881 162.772C122.723 162.774 123.346 163.029 124.003 163.299C124.181 163.371 124.361 163.444 124.552 163.517C124.877 163.638 125.2 163.691 125.317 163.671C125.328 163.657 125.335 163.64 125.345 163.624C125.384 163.556 125.432 163.475 125.506 163.399C125.643 163.262 125.788 163.161 125.928 163.063C126.004 163.01 126.078 162.957 126.152 162.901C126.424 162.676 126.721 162.48 127.006 162.292C127.596 161.9 128.153 161.53 128.507 160.956C128.792 160.496 129.005 159.899 129.199 159.327C129.323 158.966 129.303 158.596 129.28 158.167C129.27 157.987 129.262 157.808 129.262 157.623C129.265 156.684 129.216 155.642 129.125 154.764C129.061 154.145 128.893 153.528 128.718 152.878C128.596 152.43 128.471 151.967 128.382 151.502C127.767 148.301 127.907 146.048 128.799 144.804C129.31 144.089 130.056 143.716 131.009 143.691C131.709 143.674 132.345 143.87 132.958 144.061C133.265 144.156 133.555 144.246 133.85 144.31C134.626 144.479 135.43 144.585 136.205 144.686C136.559 144.731 136.912 144.778 137.266 144.829C137.452 144.857 137.625 144.893 137.792 144.93C138.365 145.053 138.683 145.103 139.057 144.823C139.352 144.605 139.575 144.294 139.812 143.968C139.998 143.713 140.186 143.45 140.422 143.214C141.577 142.063 144.626 142.161 145.776 142.651L146.079 142.78C146.722 143.055 147.348 143.324 147.979 143.565L151.911 132.178L151.142 129.394C150.936 129.361 150.735 129.271 150.54 129.179C150.311 129.072 150.097 128.971 149.883 128.968C149.594 128.96 149.342 129.069 149.098 129.176C148.714 129.341 148.352 129.501 147.874 129.232C147.684 129.125 147.488 128.957 147.282 128.781C147.134 128.655 146.984 128.523 146.834 128.419C146.659 128.629 146.755 128.817 146.865 129.036C146.921 129.142 146.976 129.254 146.999 129.372L147.007 129.414H146.969C146.954 129.414 146.938 129.414 146.926 129.414C146.486 129.414 146.053 129.145 145.845 128.733C145.718 128.484 145.73 128.237 145.743 127.996C145.753 127.786 145.766 127.587 145.689 127.388C145.539 127.433 145.138 127.519 144.82 127.36L144.774 127.337L144.812 127.301C144.86 127.256 144.909 127.22 144.952 127.186C145.127 127.046 145.234 126.962 145.158 126.679C145.071 126.359 144.914 126.365 144.654 126.37C144.621 126.37 144.588 126.37 144.553 126.37C143.996 126.37 143.907 126.463 143.696 126.679C143.619 126.757 143.525 126.852 143.388 126.965C143.156 127.155 142.899 127.141 142.599 127.124H142.543C142.401 127.113 142.248 127.093 142.088 127.074C141.709 127.026 141.315 126.979 140.995 127.074C140.727 127.152 140.641 127.332 140.532 127.559C140.481 127.662 140.43 127.769 140.354 127.881C140.008 128.394 139.725 128.172 139.43 127.94C139.275 127.817 139.115 127.69 138.924 127.634C138.55 127.522 138.299 127.752 138.077 128.016L138.037 128.063L138.006 127.926C137.96 127.724 137.907 127.494 137.803 127.306C137.681 127.489 137.528 127.629 137.38 127.763C137.172 127.951 136.958 128.147 136.826 128.467L136.816 128.492L136.79 128.486C136.645 128.45 136.536 128.279 136.419 128.1C136.312 127.937 136.203 127.766 136.06 127.682C135.224 127.189 134.677 126.998 134.43 127.113C134.273 127.186 134.178 127.371 134.087 127.55C133.995 127.727 133.901 127.909 133.749 127.982C133.428 128.136 132.945 127.901 132.713 127.718C132.645 127.665 132.591 127.615 132.543 127.57C132.385 127.421 132.299 127.34 131.996 127.396C131.861 127.421 131.714 127.539 131.572 127.651C131.409 127.78 131.254 127.901 131.126 127.878C130.976 127.847 130.831 127.637 130.702 127.449C130.643 127.365 130.59 127.287 130.544 127.242C130.254 126.945 130.137 126.976 129.906 127.037C129.791 127.068 129.646 127.105 129.445 127.113H129.425L129.415 127.093C129.285 126.788 129.29 126.435 129.293 126.096C129.298 125.754 129.3 125.403 129.173 125.087C129.112 124.938 128.924 124.848 128.741 124.762C128.486 124.641 128.224 124.515 128.278 124.221C128.296 124.125 128.375 123.996 128.456 123.859C128.575 123.66 128.713 123.436 128.652 123.324C128.609 123.243 128.466 123.212 128.224 123.237L128.156 123.243L128.197 123.181C128.438 122.805 128.967 122.825 129.394 122.839C129.471 122.839 129.55 122.845 129.611 122.845C130.185 122.845 130.435 122.735 130.928 122.517L130.981 122.494C131.078 122.452 131.172 122.413 131.266 122.374C131.592 122.239 131.9 122.113 132.192 121.894C132.533 121.642 132.884 121.382 133.301 121.171C133.965 120.835 134.476 120.56 135.018 120.092C135.771 119.445 137.286 119.296 138.177 119.571L138.199 119.577V119.602C138.207 119.714 138.245 119.787 138.316 119.826C138.535 119.941 139.158 119.795 140.898 118.447C140.933 118.419 140.959 118.399 140.977 118.388L141.068 118.321L141.025 118.433C140.972 118.57 140.9 118.705 140.832 118.834C140.705 119.078 140.572 119.33 140.544 119.605C140.923 119.375 141.623 118.952 141.857 118.646L141.918 118.568L141.913 118.669C141.895 119.086 141.971 119.355 142.142 119.487C142.475 119.745 143.146 119.448 143.795 119.159C144.466 118.859 145.099 118.576 145.45 118.828C145.555 118.904 145.608 118.999 145.656 119.092C145.71 119.187 145.758 119.28 145.865 119.347C145.977 119.417 146.15 119.428 146.333 119.442C146.595 119.459 146.865 119.479 147.01 119.678C147.264 120.031 147.058 120.398 146.875 120.726C146.763 120.928 146.656 121.118 146.651 121.295C146.989 121.494 147.363 121.457 147.724 121.421C147.806 121.412 147.93 121.37 148.062 121.326C148.172 121.289 148.284 121.253 148.383 121.23L151.059 114.809L148.116 99.7028C148.116 99.7028 148.111 99.6804 148.111 99.6692L146.267 84.501L130.267 81.8272C130.081 81.7964 129.944 81.6198 129.944 81.4124V62.4102C129.944 62.2841 129.995 62.1636 130.084 62.0851C130.173 62.0038 130.29 61.973 130.402 62.001L132.749 62.5448L133.049 36.7656L125.913 40.2578C125.729 40.3475 125.513 40.2662 125.419 40.0672L120.912 30.5661L116.001 19.1844L105.355 10.7931C105.312 10.7595 105.276 10.7147 105.248 10.6642L99.9656 0.812777L98.0835 0L86.3079 7.35145C86.2443 7.39069 86.1731 7.4075 86.1019 7.4047L65.3127 6.39013C65.3127 6.39013 65.2873 6.39013 65.2745 6.38733L48.6081 3.76401L23.2994 9.63283C23.2816 9.63564 23.2638 9.63844 23.246 9.64124L10.5803 10.5942L11.0024 18.4137L20.6925 20.1093L20.7027 20.1037ZM91.659 173.083C91.6234 173.136 91.5878 173.223 91.5522 173.31C91.4581 173.54 91.3488 173.797 91.1555 173.797C91.1504 173.797 91.1478 173.797 91.1427 173.797C91.0105 173.792 90.8884 173.652 90.7867 173.54C90.7536 173.503 90.7231 173.467 90.6951 173.441C90.5527 173.31 90.4408 173.184 90.3289 173.018C90.2093 172.844 90.1737 172.707 90.2221 172.601C90.3136 172.393 90.6926 172.382 90.9952 172.376C91.0283 172.376 91.0588 172.376 91.0893 172.376C91.3055 172.309 91.6769 172.29 91.832 172.458C91.893 172.525 91.9134 172.617 91.8854 172.724C91.86 172.828 91.7964 172.903 91.7379 172.979C91.7099 173.015 91.6819 173.046 91.659 173.083ZM98.1725 176.07L98.1445 176.093L98.1267 176.062C97.9741 175.799 97.7122 175.588 97.5011 175.434C97.4629 175.406 97.4248 175.378 97.3866 175.347C97.201 175.204 97.0076 175.056 96.794 175.042C96.382 175.008 96.3083 175.042 96.0565 175.356C95.97 175.465 95.8886 175.58 95.8123 175.689C95.5096 176.118 95.2222 176.522 94.6373 176.538C94.5686 176.538 94.505 176.538 94.4389 176.538C93.3961 176.538 92.7094 176.295 92.3407 175.799C92.3101 175.759 92.2796 175.717 92.2466 175.675C92.0024 175.356 91.6997 174.961 91.7862 174.526C91.8447 174.229 92.0889 174.038 92.3025 173.867C92.333 173.842 92.3635 173.82 92.3941 173.795C92.5441 173.671 92.7323 173.61 92.9129 173.551C93.1138 173.484 93.3224 173.416 93.4775 173.265C93.6632 173.086 93.8081 172.769 93.9379 172.491C93.9811 172.396 94.0243 172.304 94.065 172.222C94.1795 171.998 94.2659 171.74 94.3499 171.491C94.4719 171.124 94.6017 170.745 94.8204 170.454L94.8306 170.44H94.8458C95.296 170.462 95.5503 170.454 95.7945 170.44C95.9166 170.434 96.0437 170.395 96.1658 170.359C96.3159 170.314 96.471 170.269 96.6185 170.277C97.3205 170.325 97.819 171.421 98.0886 172.006L98.1166 172.068C98.2361 172.326 98.3505 172.592 98.4624 172.85C98.5515 173.052 98.6379 173.254 98.727 173.455C98.8745 173.786 98.9736 174.08 98.966 174.431C98.9558 174.98 98.5972 175.714 98.1623 176.068L98.1725 176.07Z"/>
</svg>
