<svg width="101" height="65" viewBox="0 0 101 65" fill="none" xmlns="http://www.w3.org/2000/svg">
<path d="M92.9871 7.03999L90.6752 10.86C90.5684 11.0394 90.3548 11.0983 90.1818 11.0002C89.4697 10.5938 88.6406 10.2799 87.842 9.97159L87.4554 9.82305C86.5983 9.49234 85.6776 9.0355 84.5585 8.38808C84.261 8.21711 83.91 8.14143 83.5361 8.06576C83.2029 7.99569 82.8596 7.92562 82.529 7.77708C82.4094 7.72383 82.2822 7.63134 82.1322 7.52204C82.0101 7.43516 81.7736 7.26139 81.649 7.21935C81.5192 7.37349 81.2904 7.84155 81.1886 8.05175C81.0894 8.25635 81.008 8.4189 80.9419 8.5226L80.8783 8.61788C80.5172 9.16721 80.1764 9.68291 79.655 10.1173C78.6402 10.9609 77.3406 10.79 76.1935 10.6414C75.7408 10.5826 75.3161 10.5265 74.9168 10.5265C74.8125 10.5265 74.7133 10.4789 74.6421 10.3976C74.5709 10.3163 74.5327 10.2042 74.5353 10.0893L74.6955 6.00579L68.9552 5.18459L67.1978 8.81407C67.1495 8.91497 67.0655 8.98785 66.9689 9.01868C66.8697 9.04951 66.7628 9.0355 66.6738 8.98225L61.0175 5.45646L53.0187 9.19804C52.9551 9.22887 52.8839 9.24009 52.8127 9.22608L47.6396 8.38527C47.5938 8.37686 47.548 8.36005 47.5073 8.33483L42.2681 5.06408C41.9756 4.99121 41.6983 4.8763 41.4313 4.76419C41.0447 4.60444 40.6785 4.4503 40.3021 4.43908C39.8494 4.42227 39.3814 4.42787 38.9312 4.43347C38.6692 4.43628 38.4073 4.43908 38.1453 4.43908C37.6367 4.43068 37.1585 4.54558 36.6499 4.66049C36.1921 4.76419 35.719 4.8707 35.2154 4.89312C34.5338 4.91554 34.1548 4.58763 33.7886 4.26532C33.6335 4.12799 33.4732 3.98786 33.2825 3.86734C33.0129 3.69918 32.7433 3.53663 32.4762 3.37687C31.8786 3.01813 31.2631 2.65097 30.6654 2.19694C30.0194 1.70647 28.7223 0.722725 27.7406 0.588196C27.354 1.33371 26.5681 2.28102 25.8763 2.65377C25.3193 2.95366 24.7064 2.7827 24.1672 2.63415C23.9535 2.5753 23.7526 2.51924 23.5669 2.49402L23.4398 2.4772C23.0252 2.42115 22.6463 2.36791 22.28 2.39593L19.8486 5.11452C19.8206 5.14816 19.785 5.17339 19.7494 5.19581L16.8653 6.80736L13.0223 11.0422L13.915 15.3051C13.9557 15.5041 13.8642 15.7059 13.6938 15.7872L2.79304 20.9357L1.76045 22.1408C1.81895 22.2277 1.85965 22.323 1.87745 22.4267C1.89271 22.5276 1.8749 22.6117 1.82149 22.679C1.71212 22.8107 1.4756 22.8443 1.23652 22.8443C1.21109 22.8443 1.18821 22.8443 1.16277 22.8443L0.537109 23.573L7.42699 30.6106L10.8808 32.92C10.8935 32.9284 10.9063 32.9396 10.919 32.9508L14.5966 36.1543L17.0738 36.8438C17.1272 36.8578 17.1756 36.8858 17.2163 36.9222L20.0267 39.383L21.0364 39.4222C21.1305 39.425 21.222 39.4671 21.2881 39.5399L25.6957 44.2681L37.0822 53.175L45.0708 54.6941C45.1344 54.5399 45.1903 54.3717 45.2437 54.2036C45.2971 54.041 45.3506 53.8813 45.4091 53.7327C45.4676 53.587 45.5922 53.4889 45.7372 53.4805L45.8872 53.4693C46.5815 53.4216 47.5302 53.3572 48.1075 53.7439C48.4789 53.9906 48.7663 54.3886 49.0486 54.7725C49.4046 55.2602 49.7404 55.7226 50.1575 55.7703C50.3126 55.7871 50.4703 55.7927 50.6229 55.7983C51.0298 55.8123 51.452 55.8263 51.8971 56.0562C51.9937 56.1066 52.1285 56.1543 52.271 56.2075C52.7669 56.3869 53.5172 56.6616 53.5401 57.4435C53.5452 57.6173 53.5731 57.6677 53.5731 57.6677C53.5935 57.6761 53.7207 57.6873 53.8046 57.6929C54.0004 57.7097 54.242 57.7294 54.5066 57.8555C54.8957 58.0433 55.1805 58.374 55.4272 58.6655C55.4603 58.7047 55.4934 58.7411 55.5239 58.7804C55.679 58.6346 55.8571 58.5057 56.2055 58.4637C56.5438 58.4216 56.8693 58.5141 57.1821 58.601C57.3856 58.6599 57.5789 58.7131 57.7493 58.7215C57.9248 58.7299 58.0723 58.8729 58.1054 59.0634C58.3114 60.2938 59.4661 61.9754 60.4325 62.4603C61.1853 62.8359 61.5287 63.1862 62.1188 63.8252C62.5511 64.2904 62.7393 64.4754 63.1615 64.425C63.5761 64.3773 63.9525 64.1559 64.3518 63.9205C64.7256 63.7019 65.1097 63.4749 65.5472 63.3852C66.155 63.2591 66.6687 63.6459 67.0808 63.957C67.1749 64.027 67.2664 64.0971 67.358 64.1587C67.531 64.2736 67.7141 64.3802 67.8946 64.4867L74.0927 55.434C74.1233 55.3891 74.1614 55.3527 74.2046 55.3247L81.5549 50.5517L85.8149 41.2047C85.8276 41.1795 85.8404 41.1543 85.8582 41.1319L89.9326 35.5181C90.0038 35.4172 90.1157 35.3611 90.2301 35.3611H94.3173L94.8209 30.4396L93.773 24.0663C93.745 23.8897 93.8188 23.716 93.9587 23.6263L100.34 19.6128C100.335 19.3073 100.34 19.0018 100.348 18.6991C100.353 18.4889 100.358 18.2787 100.358 18.0741C100.358 17.9817 100.365 17.8668 100.375 17.7463C100.388 17.5893 100.411 17.2586 100.37 17.1689C100.317 17.124 100.052 17.1156 99.9253 17.11C99.8643 17.11 99.8032 17.1072 99.7498 17.1016C99.6201 17.0932 99.5057 17.0119 99.4421 16.8886C99.3226 16.656 99.2615 16.401 99.2005 16.1571C99.1369 15.8909 99.0759 15.6414 98.9538 15.4873C98.6867 15.1481 98.0738 15.1538 97.6694 15.1594C97.4176 15.1594 97.1658 15.1762 96.914 15.1902C96.6114 15.207 96.296 15.2238 95.9806 15.2238C95.7568 15.2238 95.561 15.221 95.3041 15.022C95.1973 14.9407 95.121 14.8455 95.0523 14.7614C94.9938 14.6885 94.9404 14.624 94.8971 14.6044C94.7649 14.5456 94.5665 14.554 94.3554 14.5624C94.0146 14.5764 93.6306 14.5904 93.2974 14.341C93.1067 14.198 92.9998 14.013 92.9134 13.8645C92.8269 13.7132 92.7887 13.6571 92.7252 13.6347C92.6438 13.6123 92.3513 13.6347 92.158 13.6543C91.54 13.7076 90.899 13.7608 90.688 13.2563C90.5176 12.8415 90.7719 12.4183 90.9779 12.0792C91.0186 12.0091 91.0746 11.9223 91.1127 11.8466C90.922 11.4234 91.0415 10.8993 91.1407 10.4621C91.1763 10.3051 91.2093 10.1594 91.222 10.0417C91.2449 9.83706 91.4001 9.68291 91.5858 9.6745C91.7765 9.66609 91.8528 9.62406 91.9698 9.5596C92.1275 9.47272 92.3233 9.36621 92.6972 9.36621C92.7887 9.36621 92.893 9.37462 93.0049 9.38303C93.1957 9.39704 93.4551 9.41666 93.5695 9.36621C93.6509 9.32978 93.7806 9.22607 93.8951 9.13078C94.0146 9.03549 94.1367 8.9346 94.2639 8.85893L94.3351 8.81688C94.564 8.67955 94.6352 8.6347 94.6988 8.46093C94.7776 8.24793 94.7675 7.94245 94.7573 7.64816L92.9795 7.04277L92.9871 7.03999ZM11.7964 26.9166C11.8117 27.0876 11.8295 27.2838 11.7786 27.3679C11.7252 27.4604 11.6311 27.48 11.5395 27.4996C11.4429 27.522 11.3539 27.5416 11.2954 27.6341C11.2725 27.6733 11.2573 27.7098 11.2445 27.7434C11.2166 27.8163 11.1911 27.8864 11.0741 27.9368C10.8757 28.0209 10.6011 27.948 10.4459 27.8359C10.3925 27.7967 10.3391 27.7546 10.2882 27.7154C10.1356 27.5921 9.99066 27.4772 9.79736 27.4492C9.57101 27.4155 9.52014 27.494 9.38535 27.6958C9.24292 27.9088 8.90975 28.3404 8.53588 28.3404C8.46467 28.3404 8.39346 28.3264 8.32225 28.29C8.06029 28.161 8.03738 27.9368 8.01449 27.6986C8.0094 27.6538 8.00433 27.6061 7.99924 27.5585C7.98907 27.4912 7.95854 27.3903 7.92293 27.2838C7.84663 27.0483 7.76016 26.7821 7.82628 26.6308C7.87715 26.5102 8.01958 26.5074 8.14675 26.5018C8.2205 26.5018 8.28917 26.499 8.3324 26.4766C8.59691 26.3477 8.82327 26.045 8.96824 25.8152C9.0013 25.7591 9.03437 25.6891 9.06997 25.6162C9.1768 25.3892 9.29635 25.1285 9.53542 25.1285H9.53794C9.75921 25.1285 10.0492 25.2743 10.2755 25.4032C10.2984 25.4144 10.3213 25.4312 10.3467 25.448C10.3951 25.4817 10.4434 25.5153 10.4892 25.5237C10.7562 25.5686 11.0029 25.3611 11.2394 25.1622C11.387 25.0388 11.5243 24.9239 11.6692 24.8595L11.7023 24.8454L11.7125 24.8819C11.7405 24.9884 11.7354 25.1257 11.7303 25.2715C11.7227 25.4901 11.715 25.7395 11.8117 25.9441V25.9609C11.8142 26.1235 11.8066 26.2832 11.799 26.4402C11.7939 26.5411 11.7888 26.6392 11.7837 26.7401C11.7837 26.7821 11.7888 26.8494 11.7939 26.9222L11.7964 26.9166Z"/>
</svg>
