<svg width="193" height="211" viewBox="0 0 193 211" fill="none" xmlns="http://www.w3.org/2000/svg">
<path d="M126.686 166.707C126.993 166.339 127.283 165.995 127.558 165.689C127.69 165.541 127.904 165.524 128.057 165.647C128.563 166.059 129.265 166.331 129.941 166.594C130.112 166.662 130.279 166.726 130.44 166.791C130.869 166.967 131.358 167.054 131.877 167.144C132.594 167.27 133.334 167.399 133.965 167.794C134.979 168.427 134.921 169.767 134.873 170.843C134.863 171.056 134.855 171.264 134.855 171.454C134.855 171.839 135.002 172.111 135.295 172.27C136.104 172.707 136.241 173.004 136.561 173.881L136.645 174.117C136.823 174.624 136.979 175.061 137.314 175.381C137.602 175.656 137.95 175.726 138.357 175.807C138.721 175.88 139.13 175.964 139.517 176.216C140.015 176.544 140.921 177.323 141.226 178.021C141.406 178.436 141.386 178.851 141.368 179.215C141.358 179.434 141.348 179.638 141.381 179.823C141.46 180.249 141.684 180.58 142.032 180.782C142.136 180.841 142.304 180.863 142.467 180.885C142.691 180.913 142.943 180.947 143.159 181.09C143.365 181.227 143.505 181.471 143.627 181.687C143.675 181.771 143.726 181.861 143.764 181.911C143.894 182.082 144.021 182.267 144.148 182.455C144.39 182.811 144.642 183.178 144.914 183.436C145.148 183.66 145.448 183.797 145.766 183.94C146.081 184.083 146.409 184.232 146.717 184.481C147.121 184.809 147.46 185.171 147.788 185.518C148.06 185.81 148.319 186.084 148.612 186.342C148.879 186.575 149.217 186.785 149.576 187.009C150.059 187.309 150.56 187.62 150.916 188.018C151.264 188.405 151.32 189.019 151.381 189.669C151.44 190.294 151.498 190.939 151.824 191.14C151.977 191.236 152.06 191.261 152.266 191.325C152.427 191.376 152.597 191.407 152.775 191.443C153.035 191.491 153.302 191.544 153.566 191.653C154.263 191.945 154.586 192.253 154.899 192.917C155.107 193.36 155.395 193.646 155.827 193.839C156.542 194.162 157.315 194.193 158.131 194.226H158.192C159.014 194.263 159.891 194.277 160.794 194.038C161.494 193.853 162.208 193.725 162.898 193.598C163.205 193.542 163.516 193.486 163.823 193.425C164.866 193.217 165.983 193.013 167.163 192.999C168.602 192.976 170.027 193.584 171.28 194.117C171.486 194.204 171.692 194.26 171.909 194.316C172.216 194.397 172.532 194.481 172.834 194.647C173.122 194.804 173.422 194.997 173.686 195.168L173.727 195.193C173.798 195.241 173.854 195.311 173.887 195.395C174.098 195.961 174.633 196.505 175.149 197.032C175.429 197.318 175.719 197.615 175.958 197.915L176.263 198.298C176.97 199.19 177.7 200.112 178.384 201.017C178.392 201.028 178.399 201.037 178.404 201.048L184.422 210.709L186.161 210.162L191.609 206.281L171.13 172.11C171.018 171.922 171.059 171.67 171.227 171.538L177.25 166.763L173.521 158.795C173.488 158.722 173.473 158.64 173.48 158.559L174.597 146.768C174.602 146.718 174.615 146.667 174.635 146.623L192.034 108.66L182.558 107.001C182.38 106.97 182.247 106.808 182.237 106.611L181.797 98.4612L181.438 98.4892C181.319 98.5004 181.202 98.4444 181.126 98.3463L156.29 66.8973L154.919 65.1709C154.873 65.112 154.843 65.0419 154.83 64.9635L153.874 58.7275L121.075 29.4058C121.06 29.5992 121.045 29.7926 121.032 29.9803C120.945 31.1603 120.864 32.2757 120.294 33.4557C119.941 34.1872 119.956 34.4114 120.071 35.241C120.088 35.3671 120.111 35.496 120.137 35.6249C120.228 36.1182 120.33 36.676 120.137 37.2309C119.951 37.7634 119.938 38.338 119.923 38.9489C119.908 39.5851 119.89 40.2438 119.671 40.8884C119.567 41.1967 119.463 41.5162 119.358 41.8413C119.107 42.6176 118.845 43.422 118.552 44.1395C118.501 44.2628 118.453 44.3777 118.407 44.4926C118.097 45.2354 117.873 45.7735 117.797 46.6675C117.766 47.0179 117.751 47.3766 117.736 47.7269C117.715 48.1586 117.695 48.607 117.649 49.047C117.601 49.5067 117.486 49.7729 117.364 50.0588C117.316 50.1737 117.263 50.2942 117.209 50.4456C116.991 51.0565 117.029 52.116 117.191 52.7886C117.334 53.38 117.631 53.6967 118.005 54.1031C118.166 54.2768 118.331 54.4534 118.499 54.6664C119.595 56.0705 119.938 57.2589 119.714 58.9069C119.676 59.1871 119.661 59.4758 119.643 59.7561C119.585 60.7566 119.521 61.8889 118.389 62.598C118.049 62.8138 117.675 62.8839 117.344 62.9483C117.054 63.0044 116.779 63.0576 116.568 63.195C116.436 63.2819 116.337 63.4108 116.22 63.5621C115.996 63.8536 115.716 64.218 115.149 64.2572C114.796 64.2824 114.549 64.1563 114.351 64.0554C114.241 63.9994 114.147 63.9517 114.043 63.9321C113.872 63.8985 113.687 63.9405 113.476 63.9881C113.186 64.0526 112.858 64.1255 112.489 64.0162C112.341 63.9741 112.219 63.9041 112.112 63.8424C112.023 63.792 111.947 63.7471 111.878 63.7331C111.792 63.7135 111.675 63.7247 111.55 63.7359C111.41 63.7499 111.255 63.7639 111.093 63.7415C110.859 63.7079 110.653 63.6378 110.454 63.5705C110.233 63.4949 110.027 63.4248 109.811 63.4192C108.509 63.3884 108.361 63.2426 107.786 62.1047L107.7 61.9338C107.494 61.5302 107.125 61.1686 106.733 60.7875C106.334 60.3979 105.922 59.9971 105.657 59.5094C105.065 59.3833 104.724 58.9237 104.447 58.5481C104.21 58.2314 104.007 57.9568 103.686 57.8587C103.559 57.8194 103.44 57.7942 103.323 57.7662C102.99 57.6905 102.646 57.612 102.288 57.3261C102.191 57.2477 102.082 57.1776 101.967 57.0991C101.667 56.9001 101.326 56.6759 101.113 56.278C100.739 55.5857 100.23 55.0279 99.6934 54.4366C99.1847 53.876 98.6608 53.2987 98.2411 52.584C97.763 51.7712 97.4145 50.922 97.1348 50.1961C96.9974 49.8402 96.7965 49.5263 96.5829 49.1956C96.4125 48.9321 96.237 48.6602 96.0895 48.3548C95.8351 47.8278 95.8555 47.2757 95.8707 46.7881C95.8834 46.4433 95.8936 46.1182 95.8097 45.8379C95.7436 45.6193 95.652 45.454 95.5528 45.2802C95.3697 44.9579 95.1637 44.5935 95.1739 43.9433C95.1891 42.9988 95.4867 42.2533 95.7715 41.5302C95.9419 41.0986 96.12 40.653 96.2344 40.1681C96.4862 39.1003 96.9974 38.4024 97.5417 37.6625C97.7299 37.4075 97.9232 37.1412 98.1063 36.8581C98.7269 35.9024 98.8286 34.7869 98.9354 33.6014L98.9558 33.3688C99.0524 32.329 99.5153 31.5414 99.9629 30.7791C100.187 30.4007 100.418 30.0084 100.596 29.5908C100.909 28.8593 101.062 28.0801 101.222 27.2561C101.334 26.676 101.451 26.079 101.629 25.4932C102.506 22.6149 102.832 19.4927 102.552 16.676L83.8815 4.82062C83.65 5.17936 83.4059 5.50728 83.1668 5.82678C82.6378 6.53306 82.1393 7.2001 81.8519 8.11378C81.7222 8.52577 81.5442 8.93496 81.3763 9.33014C81.1398 9.87667 80.8981 10.4428 80.7888 10.9893C80.6667 11.6143 80.7048 12.3767 80.7405 13.1138C80.7583 13.4725 80.7761 13.8144 80.7761 14.1452C80.7761 14.375 80.7684 14.6048 80.7608 14.8374C80.7328 15.7203 80.7074 16.5527 81.0736 17.2589C81.1601 17.4299 81.239 17.5672 81.3102 17.6906C81.5899 18.1866 81.7756 18.5145 81.7171 19.3469C81.7018 19.5768 81.6866 19.8094 81.6713 20.0448C81.562 21.7741 81.4373 23.7331 80.6336 25.3951C80.5116 25.6474 80.3869 25.8968 80.2623 26.1407C79.5019 27.6457 78.8406 28.9574 79.3187 30.5577C79.6621 30.5437 80.0105 30.6978 80.3361 31.0089C80.5344 30.5437 80.8168 30.1429 81.3076 29.7561C81.5543 29.5599 81.8494 29.459 82.1113 29.3694C82.3326 29.2937 82.5615 29.2152 82.6632 29.1059C82.8184 28.9349 82.882 28.7331 82.9557 28.5005C83.0905 28.0689 83.2762 27.4803 84.1511 27.2842C84.2528 27.2617 84.3571 27.2842 84.441 27.3486C84.5249 27.4131 84.5834 27.5112 84.6038 27.6233C84.6928 28.1726 84.4156 28.5173 84.2477 28.7219C84.2172 28.7612 84.1765 28.8088 84.1562 28.8396C84.1562 28.9321 84.1918 28.9714 84.3571 29.1115C84.5097 29.2404 84.7182 29.4142 84.8276 29.7281C85.0845 30.4624 84.6801 31.6732 84.2782 32.2197C83.8535 32.7942 83.4618 32.797 83.1465 32.797C83.0066 32.797 82.8845 32.797 82.7421 32.8447C82.6632 32.8699 82.5055 32.9232 82.4419 32.9568C82.4292 33.0297 82.4267 33.2034 82.4267 33.3716C82.4267 33.4641 82.4267 33.5706 82.4216 33.6883C82.4063 34.3161 82.4547 34.9159 82.5081 35.5549C82.536 35.9052 82.5666 36.2668 82.5818 36.6311C82.653 38.0885 82.7599 40.2886 81.4882 41.4125C81.3687 41.5162 81.2059 41.533 81.0711 41.4573C80.6057 41.1855 79.6392 40.6249 79.1916 40.9501C78.9652 41.1238 78.365 42.5168 78.2633 43.0268C78.1615 43.5453 78.2785 44.1395 78.4006 44.7673C78.4794 45.1737 78.5634 45.5941 78.5837 46.0033C78.7363 49.1423 77.5969 52.0851 75.1019 54.9999C74.2702 55.9697 71.3454 58.9741 68.5859 56.959C66.8361 55.681 66.3732 53.3996 67.243 50.3587C67.2812 50.2297 67.3066 50.1064 67.332 49.9859C67.416 49.5963 67.505 49.1928 67.8483 48.7976C68.0314 48.5874 68.2553 48.4585 68.4536 48.3463C68.7181 48.1978 68.8835 48.0941 68.9649 47.8979C69.1581 47.4243 68.9598 45.9192 68.8962 45.4259L68.8885 45.3671C68.741 44.232 68.2171 43.1922 67.6652 42.0907C67.2405 41.2471 66.803 40.3727 66.5487 39.4506C65.9841 37.399 66.1265 34.2628 66.8691 32.4607C67.0167 32.1048 67.1743 31.7572 67.3269 31.4209C67.6347 30.7427 67.9272 30.1009 68.1332 29.3974C68.2705 28.9293 68.3646 28.4697 68.4638 27.982C68.5579 27.5252 68.6546 27.0543 68.7868 26.5835C69.0513 25.653 69.4862 24.8318 69.9059 24.0358C70.2645 23.3576 70.6053 22.7158 70.8444 22.0123C71.03 21.4742 71.058 20.9333 71.086 20.3615C71.1012 20.084 71.1165 19.7982 71.1496 19.5039C71.2055 19.0078 71.4268 18.607 71.6226 18.2539C71.821 17.8952 71.9914 17.5869 71.9736 17.2477C71.9049 15.9865 72.172 14.6721 72.7239 13.5454L72.7798 13.4333C72.9833 13.0157 73.1944 12.5841 73.4487 12.1777C73.7183 11.7433 74.0388 11.477 74.3491 11.222C74.4991 11.0958 74.6568 10.9669 74.8069 10.8184C75.8293 9.80099 76.5821 8.10817 76.7271 6.50223C76.75 6.23878 76.7678 5.98373 76.7856 5.72869C76.867 4.49271 76.9458 3.32679 77.6961 2.17769C77.9097 1.85257 78.1361 1.01737 78.0242 0.849213C78.0242 0.849213 78.0191 0.849213 78.0115 0.849213L0.00756836 28.778V196.359L23.8106 198.083C23.8309 198.083 23.8513 198.088 23.8742 198.094L31.0082 199.944C31.2142 199.717 31.4355 199.383 31.5932 199.041C31.7051 198.803 31.6873 198.419 31.5448 197.926C31.5347 197.889 31.5016 197.816 31.4711 197.752C31.3617 197.514 31.2117 197.186 31.3236 196.847C31.522 196.241 32.1476 196.18 32.5215 196.146C32.6029 196.138 32.6766 196.132 32.7402 196.121C33.2006 196.031 33.7143 195.81 34.1187 195.527C34.373 195.347 34.5282 195.126 34.5968 194.851C34.6121 194.792 34.5968 194.767 34.5892 194.756C34.5689 194.722 34.5205 194.686 34.4417 194.666C34.4264 194.7 34.4137 194.742 34.3985 194.787C34.3298 194.986 34.2281 195.291 33.8974 195.437C33.6965 195.524 33.4956 195.51 33.3354 195.499C33.2921 195.496 33.2489 195.493 33.2082 195.493C33.0836 195.493 32.9666 195.426 32.8954 195.314L30.9751 192.27C30.9319 192.203 30.909 192.124 30.9065 192.04L30.7513 185.644L29.0193 181.314C28.999 181.261 28.9863 181.202 28.9863 181.143V171.211C28.9863 171.059 29.06 170.922 29.177 170.846L31.1557 169.593C31.1761 169.476 31.1837 169.344 31.1913 169.204C31.2015 169.041 31.2117 168.873 31.2422 168.702C31.3109 168.318 31.4126 167.94 31.5092 167.575C31.5627 167.376 31.6135 167.18 31.6618 166.981C31.9899 165.605 32.2697 164.313 32.491 163.142C32.7835 161.597 33.2056 160.025 33.8211 158.189C33.9585 157.78 34.0882 157.348 34.2128 156.931C34.5129 155.925 34.8257 154.882 35.3064 153.94C35.9067 152.769 36.5476 151.841 37.7201 151.121C38.0125 150.941 38.3025 150.737 38.5848 150.541C38.7323 150.437 38.8773 150.336 39.0222 150.238C39.4597 149.941 40.5635 149.268 41.3774 149.428C42.2217 149.593 42.7355 150.266 43.1857 150.857C43.4069 151.149 43.618 151.424 43.852 151.628C44.1725 151.908 44.5896 152.015 45.0321 152.13C45.4467 152.236 45.8765 152.346 46.2834 152.603C46.9193 153.004 47.3669 153.324 47.7865 154.058C48.1096 154.627 48.3995 155.244 48.6793 155.838C48.8319 156.166 48.9845 156.491 49.1421 156.805C49.5287 157.578 49.5821 158.654 49.4982 159.504C49.5186 159.504 49.5414 159.509 49.5618 159.512C49.8543 159.549 50.0425 159.568 50.2205 159.464C50.3807 159.372 50.5333 159.268 50.6987 159.156C51.1387 158.853 51.5965 158.542 52.1916 158.492C52.5705 158.458 52.9597 158.492 53.3335 158.523C53.8371 158.565 54.3127 158.604 54.7375 158.492C54.7909 158.478 54.8392 158.441 54.913 158.383C54.9893 158.321 55.0986 158.237 55.241 158.189C55.2283 158.161 55.2131 158.13 55.1978 158.097C55.1647 158.027 55.1291 157.957 55.0961 157.878C54.9028 157.424 54.9562 157.116 55.0121 156.794L55.0299 156.69C55.0376 156.642 55.0401 156.583 55.0427 156.527C55.0554 156.281 55.0732 155.911 55.3708 155.717C55.5869 155.58 55.9634 155.757 56.177 155.88L56.1922 155.885C56.3652 155.941 56.5331 155.995 56.7009 156.082C56.8001 155.849 56.8611 155.529 56.9146 155.238C56.9527 155.031 56.9909 154.832 57.0417 154.655C57.2604 153.898 57.5428 153.164 57.8378 152.416C57.9065 152.242 57.9802 152.071 58.054 151.9C58.2676 151.41 58.4711 150.944 58.499 150.451C58.5296 149.916 58.4812 149.649 58.2701 149.148C58.0692 148.674 57.8912 148.416 57.5682 148.128C57.53 148.091 57.4893 148.06 57.4537 148.032C57.2833 147.892 56.8306 147.525 57.2198 146.9C57.352 146.684 57.5478 146.55 57.7208 146.432C57.7869 146.387 57.853 146.342 57.9065 146.295C57.9293 146.275 57.9471 146.253 57.9675 146.23C58.0641 146.121 58.2244 145.939 58.5143 145.93C58.7585 145.93 58.9187 146.04 59.0459 146.169C59.0662 146.118 59.084 146.07 59.1044 146.02C59.14 145.93 59.173 145.843 59.2086 145.759C59.2773 145.588 59.2722 145.538 59.2544 145.347C59.2493 145.286 59.2417 145.218 59.2366 145.143C59.2239 144.944 59.2315 144.692 59.3943 144.509C59.5596 144.327 59.7682 144.344 59.8775 144.355C59.8877 144.355 59.9004 144.355 59.9131 144.355C59.9182 144.274 59.9131 144.148 59.9081 144.066C59.8979 143.842 59.8877 143.61 59.9513 143.405C59.9894 143.287 60.0734 143.195 60.1802 143.15C60.287 143.105 60.4065 143.119 60.5032 143.181C60.61 143.251 60.6812 143.338 60.7295 143.402C60.8109 143.36 60.961 143.251 61.0602 143.144C61.2102 142.979 61.2815 142.738 61.3628 142.461C61.4162 142.284 61.4697 142.099 61.5485 141.917C61.6223 141.751 61.7876 141.656 61.9529 141.687C62.1182 141.718 62.2479 141.864 62.2683 142.049L62.2886 142.239C62.3191 142.517 62.3522 142.822 62.4031 143.091L64.4377 143.556C64.6158 143.596 64.7429 143.769 64.7429 143.968V145.544L65.9408 144.812C66.0248 144.762 66.1214 144.748 66.213 144.77L70.3662 145.849C70.4654 145.874 70.5519 145.944 70.6053 146.042L72.0931 148.764C72.1237 148.817 72.1415 148.879 72.1466 148.94L72.4924 153.013L73.4742 152.603C73.5555 152.57 73.6446 152.567 73.7285 152.598L75.3715 153.192L75.3486 151.99L73.3267 150.112L72.5281 149.958C72.3551 149.924 72.2228 149.764 72.2127 149.571L72.1389 148.276L69.0259 141.625L64.9998 139.784C64.8701 139.725 64.7811 139.593 64.7658 139.439L64.6081 137.755C64.5929 137.589 64.6666 137.43 64.7989 137.346L68.7181 134.885C68.8122 134.826 68.9267 134.812 69.0284 134.851L73.286 136.429L77.8182 136.592C77.8665 136.505 77.9199 136.424 77.9733 136.342C78.0623 136.205 78.1463 136.073 78.187 135.958C78.2302 135.835 78.1412 135.513 78.0776 135.277C77.9428 134.778 77.7393 134.027 78.3141 133.61C78.5176 133.461 78.7745 133.475 79.0466 133.489C79.1051 133.492 79.1865 133.498 79.2577 133.498C79.2094 133.411 79.1382 133.338 79.0364 133.24C78.8126 133.021 78.4794 132.693 78.599 132.012V130.154C78.599 129.986 78.6905 129.832 78.833 129.767C78.9754 129.7 79.1382 129.736 79.2475 129.854L90.5094 142.007C91.3283 142.295 92.0913 142.41 92.9713 142.388C93.4698 142.374 93.9174 142.354 94.3498 142.256C94.4363 142.236 94.5507 142.194 94.6728 142.149C94.9551 142.046 95.2756 141.931 95.5604 141.967C96.0996 142.04 96.5142 142.738 96.8168 143.248C96.8703 143.338 96.916 143.416 96.9593 143.484C97.1831 143.831 97.384 144.201 97.5773 144.557C97.7579 144.888 97.9435 145.23 98.1445 145.549C98.1928 145.625 98.2564 145.714 98.3276 145.815C98.7142 146.356 99.0092 146.805 98.9838 147.245C98.971 147.48 98.8413 147.654 98.7371 147.791C98.7116 147.825 98.6709 147.878 98.648 147.917C98.6913 147.993 98.765 148.102 98.8108 148.17C98.8871 148.282 98.9482 148.371 98.9888 148.456L99.0295 148.542C99.1694 148.839 99.2915 149.097 99.4975 149.291C99.9375 149.706 100.505 150.036 101.049 150.359C101.283 150.496 101.514 150.63 101.733 150.771C101.827 150.829 101.975 150.902 102.127 150.975C102.628 151.216 103.145 151.466 103.287 151.934C103.343 152.113 103.366 152.259 103.386 152.379C103.427 152.623 103.427 152.626 103.697 152.735C104.192 152.934 104.861 152.931 105.454 152.926C105.576 152.926 105.693 152.926 105.808 152.926C106.245 152.926 106.721 152.884 107.178 152.842C107.593 152.802 108.02 152.763 108.435 152.755C108.966 152.337 109.442 152.721 109.704 152.937C109.839 153.046 109.979 153.158 110.09 153.175C110.258 153.2 110.513 153.066 110.734 152.948C110.818 152.903 110.899 152.859 110.978 152.825C111.138 152.749 111.304 152.721 111.451 152.696C111.561 152.676 111.672 152.657 111.731 152.626C111.772 152.604 111.817 152.589 111.863 152.584L112.804 152.475C112.817 152.475 112.83 152.475 112.845 152.475C113.257 152.475 113.582 152.735 113.844 152.943L113.959 153.032C114.038 153.094 114.114 153.161 114.19 153.228C114.358 153.374 114.503 153.503 114.661 153.542C114.801 153.576 114.808 153.579 114.997 153.335C115.06 153.254 115.129 153.164 115.208 153.077L115.269 153.013C115.444 152.822 115.625 152.623 115.828 152.447C115.859 152.421 115.892 152.393 115.927 152.365C115.981 152.323 116.077 152.245 116.1 152.208C116.159 152.06 116.289 151.97 116.434 151.964C116.525 151.962 116.627 151.953 116.736 151.945C117.199 151.908 117.774 151.864 118.206 152.088C118.341 152.158 118.428 152.309 118.425 152.475C118.425 152.679 118.374 152.875 118.333 153.046C118.298 153.192 118.262 153.332 118.267 153.439C118.313 153.45 118.366 153.461 118.425 153.478C118.468 153.489 118.524 153.503 118.588 153.517C119.051 153.624 119.45 153.736 119.641 154.061C119.816 154.355 119.775 154.591 119.712 154.734C119.661 154.846 119.587 154.924 119.519 154.98C119.569 155.042 119.628 155.106 119.671 155.143C119.702 155.134 119.75 155.112 119.786 155.098C119.946 155.028 120.243 154.899 120.526 155.117C120.724 155.272 120.744 155.504 120.755 155.602C120.755 155.616 120.755 155.63 120.76 155.644C120.767 155.684 120.77 155.712 120.778 155.734C120.785 155.742 120.839 155.796 120.864 155.824C121.022 155.984 121.207 156.11 121.403 156.241C121.49 156.3 121.576 156.359 121.66 156.421C121.767 156.499 121.833 156.631 121.833 156.771V157.643C121.833 157.699 121.828 157.769 121.82 157.845C121.815 157.892 121.808 157.973 121.808 158.024C121.853 158.055 121.998 158.108 122.08 158.136C122.197 158.178 122.316 158.223 122.421 158.29C122.568 158.383 122.642 158.573 122.601 158.755C122.512 159.162 122.042 159.734 121.691 159.868C121.253 160.033 120.925 159.764 120.729 159.605C120.683 159.568 120.617 159.515 120.577 159.49C120.521 159.535 120.442 159.616 120.404 159.655C120.363 159.697 120.325 159.734 120.299 159.759L120.226 159.823C120.18 159.862 120.114 159.921 120.086 159.955C120.132 160.151 120.208 160.342 120.282 160.468C120.302 160.468 120.325 160.468 120.345 160.468C120.854 160.451 121.487 160.429 121.864 160.807C122.006 160.95 122.098 161.143 122.169 161.297L122.25 161.463C122.507 161.981 122.693 162.357 122.634 163.074C122.621 163.228 122.614 163.383 122.604 163.537C122.578 163.982 122.55 164.442 122.451 164.907C122.324 165.501 122.115 166.04 121.914 166.561C121.853 166.721 121.792 166.88 121.731 167.04C121.673 167.197 121.538 167.298 121.385 167.304C120.767 167.318 120.498 167.304 119.989 166.869C119.709 166.628 119.432 166.46 119.229 166.407C119.117 166.379 118.898 166.443 118.832 166.508C118.845 166.578 118.911 166.726 119.025 166.878C119.208 167.119 119.671 167.519 119.852 167.589C119.959 167.631 120.132 167.606 120.315 167.578C120.541 167.545 120.795 167.505 121.055 167.578C121.82 167.783 121.892 168.596 121.937 169.131C121.94 169.167 121.945 169.204 121.947 169.24C122.359 169.364 122.81 169.518 123.257 169.722V169.61C123.257 169.61 123.267 169.61 123.27 169.61C123.817 169.61 124.928 168.705 125.513 168.088C125.879 167.702 126.294 167.211 126.693 166.735L126.686 166.707ZM81.2364 96.2162C81.1779 96.4405 81.122 96.6507 81.1016 96.8356C81.0457 97.3401 81.0024 97.8558 80.9592 98.3547C80.9363 98.6181 80.9134 98.8816 80.888 99.145C80.8702 99.33 80.8549 99.5206 80.8397 99.7168C80.7481 100.888 80.6438 102.217 79.9876 103.153C79.8249 103.386 79.596 103.512 79.3772 103.632C79.1839 103.739 78.9856 103.848 78.8304 104.03C78.7668 104.106 78.7134 104.187 78.6626 104.263C78.543 104.439 78.4311 104.607 78.2073 104.706C77.9733 104.809 77.7114 104.806 77.4596 104.804C77.2943 104.804 77.1213 104.798 76.9611 104.829C76.7322 104.871 76.488 104.933 76.254 105.008L76.1294 105.048C75.7606 105.168 75.3766 105.291 75.0103 105.42C74.9595 105.437 74.9061 105.468 74.8476 105.502C74.7458 105.558 74.6339 105.619 74.5297 105.619C74.4788 105.619 74.4279 105.605 74.3821 105.566C74.1507 105.37 74.2829 104.619 74.3414 104.448C74.3949 104.299 74.4508 104.167 74.5042 104.039C74.611 103.786 74.7128 103.545 74.7586 103.24C74.7357 103.262 74.7077 103.276 74.6772 103.282C74.494 103.31 74.2626 102.968 74.1965 102.847C74.0642 102.601 73.9905 102.304 73.9218 102.018C73.8582 101.76 73.7946 101.494 73.6853 101.258C73.4055 100.658 73.2402 100.476 72.6145 100.336C72.4848 100.308 72.3577 100.275 72.2305 100.241C71.849 100.14 71.4522 100.036 71.0529 100.092C70.9563 100.106 70.8291 100.165 70.6943 100.227C70.4501 100.342 70.1958 100.46 70.0508 100.331C69.827 100.132 70.0102 99.5514 70.0686 99.4169C70.2289 99.0441 70.5239 98.7078 70.7859 98.4135C70.8291 98.3659 70.8698 98.3183 70.9105 98.2734C71.0962 98.0604 71.2538 97.825 71.4064 97.5952C71.5362 97.399 71.6735 97.1972 71.8261 97.0094C72.2356 96.5021 72.6679 96.2975 73.169 96.0565C73.3012 95.992 73.436 95.9276 73.5759 95.8547C74.2321 95.5128 74.9671 95.3166 75.6818 95.126C76.0429 95.0307 76.3278 94.9382 76.4321 94.7168C76.4956 94.5823 76.4855 94.4085 76.4041 94.1843C76.2845 93.8564 76.0302 93.7471 75.7632 93.6265C75.6614 93.5817 75.5546 93.5341 75.4554 93.4752C75.4376 93.464 75.4147 93.4528 75.3918 93.4388C75.2163 93.3379 74.9493 93.1809 74.8476 93.0072C74.784 92.9007 74.7891 92.783 74.7916 92.6708C74.7916 92.5671 74.7967 92.469 74.7484 92.3822C74.6416 92.186 74.3364 92.0739 74.0668 91.973C73.904 91.9141 73.7514 91.8581 73.6446 91.7852L73.609 91.7628L73.6395 91.7319C73.9676 91.3788 74.3593 91.2611 74.7051 91.1574C74.7942 91.1294 74.8806 91.1041 74.962 91.0761C75.2036 90.992 75.4503 90.8855 75.6869 90.7846C76.0277 90.6389 76.3812 90.4875 76.7347 90.3895C77.1696 90.2717 77.3756 90.4511 77.6579 90.6977C77.7241 90.7566 77.7927 90.8155 77.8716 90.8799C78.2149 91.1518 78.6066 91.3508 78.983 91.5414C79.3162 91.7095 79.6621 91.8861 79.9775 92.1131C80.4505 92.455 81.0304 92.9651 81.0991 93.4556C81.122 93.6266 81.0813 93.7835 80.9795 93.9208C80.9007 94.0273 80.7964 94.1058 80.7023 94.1759C80.5929 94.2572 80.4988 94.33 80.4988 94.4085C80.4988 94.4786 80.5701 94.5627 80.7176 94.672C80.7837 94.7196 80.8651 94.756 80.9516 94.7953C81.1499 94.8878 81.3559 94.9803 81.3865 95.2185C81.4195 95.5072 81.3254 95.8687 81.2339 96.2218L81.2364 96.2162Z"/>
</svg>
