<svg width="73" height="56" viewBox="0 0 73 56" fill="none" xmlns="http://www.w3.org/2000/svg">
<path d="M53.7086 4.55684C53.7035 4.04395 53.2533 3.68242 52.2945 3.41336C51.7222 3.2536 51.1347 3.18913 50.5091 3.12187C49.9241 3.05741 49.3188 2.99294 48.7262 2.83879C47.3248 2.47725 46.0786 1.94475 44.7586 1.3786L44.4585 1.24967C43.3877 0.792837 40.7274 0.818059 39.8932 1.65046C39.7025 1.84104 39.5397 2.06526 39.3667 2.30629C39.1048 2.67064 38.8352 3.0434 38.441 3.33768C37.7848 3.82535 37.1846 3.69641 36.6047 3.5731C36.4521 3.53946 36.2918 3.50584 36.124 3.48062C35.773 3.43017 35.4246 3.38252 35.0761 3.33768C34.2852 3.23398 33.4688 3.12748 32.6625 2.95371C32.337 2.88365 32.0165 2.78275 31.7088 2.68745C31.1213 2.50528 30.5719 2.33431 29.9844 2.34832C29.2596 2.36794 28.7255 2.62579 28.3567 3.14149C27.8455 3.85617 27.3826 5.47612 28.0871 9.14484C28.171 9.57645 28.2905 10.0221 28.4075 10.4537C28.5856 11.1123 28.7712 11.7906 28.8425 12.4857C28.9366 13.3937 28.9874 14.4728 28.9849 15.4425C28.9849 15.6078 28.9925 15.7704 29.0001 15.933C29.0256 16.4122 29.051 16.9083 28.8704 17.4352C28.6593 18.0546 28.4253 18.702 28.0947 19.2401C27.6445 19.9688 26.9909 20.406 26.3551 20.8264C26.0728 21.0142 25.8057 21.1908 25.5616 21.3898C25.4751 21.4598 25.3861 21.5243 25.2945 21.5888C25.175 21.6729 25.0631 21.7513 24.9766 21.8382C24.969 21.8494 24.9588 21.869 24.9461 21.8915C24.8901 21.9896 24.7935 22.1577 24.6078 22.2502C24.2289 22.4408 23.6032 22.2558 23.2649 22.1297C23.0665 22.0568 22.8783 21.9783 22.6952 21.9027C22.0772 21.6504 21.5431 21.4318 20.836 21.429H20.8233C20.1875 21.429 19.8594 21.6392 19.366 22.1045C19.2973 22.1689 19.2083 22.2054 19.1167 22.2054H9.83108L8.21095 22.9901L9.0706 29.3662C9.09349 29.54 9.01721 29.7138 8.87479 29.7978L5.42602 31.8718C5.36244 31.9111 5.29124 31.9279 5.21748 31.9223L1.76871 31.6728L0.186768 32.7042L0.921793 36.3645L3.75507 38.8645C3.83391 38.9346 3.8873 39.0383 3.89748 39.1504L4.2103 42.6061C4.21793 42.7042 4.19758 42.8023 4.14672 42.8836L1.88569 46.5635C2.10442 46.5803 2.32316 46.6112 2.5368 46.642L2.66397 46.6588C2.89541 46.6896 3.12939 46.7541 3.35575 46.8186C3.80846 46.9447 4.23829 47.0624 4.54349 46.897C5.09285 46.6028 5.88383 45.6695 6.16868 44.9772C6.22972 44.8287 6.36451 44.7306 6.51457 44.7306H6.52475C7.61076 44.7306 8.8824 45.5826 10.0981 46.5047C10.6602 46.9307 11.2324 47.2754 11.8403 47.6369C12.1124 47.7995 12.3871 47.9649 12.6618 48.1386C12.9034 48.2928 13.0967 48.4609 13.2671 48.6095C13.5825 48.8869 13.791 49.0747 14.1853 49.0551C14.6253 49.0355 15.05 48.9402 15.4976 48.8393C16.0215 48.7216 16.5607 48.5843 17.1482 48.6011C17.4076 48.6011 17.6645 48.6011 17.9239 48.5955C18.3843 48.5899 18.8573 48.5843 19.3279 48.6011C19.8289 48.6179 20.274 48.8029 20.7013 48.9794C20.9734 49.0915 21.2277 49.198 21.4846 49.2569C21.5227 49.2653 21.5609 49.2821 21.5965 49.3017L26.8256 52.5669L31.8232 53.3797L39.8958 49.6044C40.0051 49.554 40.1297 49.5624 40.2315 49.6268L45.7098 53.0433L47.4062 49.5372C47.48 49.383 47.6351 49.2961 47.7928 49.3186L54.1409 50.2266C54.3368 50.2547 54.4817 50.4424 54.4741 50.661L54.3139 54.7053C54.6343 54.7277 54.9624 54.7698 55.2829 54.8118C56.3842 54.9548 57.4244 55.0921 58.195 54.4531C58.6248 54.0943 58.9199 53.6487 59.2607 53.1302L59.3243 53.0349C59.3624 52.9789 59.4438 52.8107 59.515 52.6622C59.8456 51.9839 60.0872 51.5299 60.4026 51.4122C60.4713 51.3869 60.5399 51.3757 60.6112 51.3757C60.9291 51.3757 61.2572 51.6112 61.5497 51.8242C61.6463 51.8942 61.7633 51.9783 61.8141 52.0007C62.0736 52.1156 62.3661 52.1773 62.6763 52.2418C63.0884 52.3286 63.5156 52.4155 63.9124 52.6453C64.9984 53.276 65.886 53.716 66.7075 54.0327L67.089 54.1784C67.8062 54.4531 68.5438 54.7334 69.2229 55.0865L71.3695 51.5383L65.151 40.4537C65.1128 40.3864 65.095 40.3107 65.095 40.2323C65.095 40.151 65.0925 40.0613 65.0874 39.9688C65.0696 39.4867 65.0442 38.8253 65.4562 38.3993C65.5198 38.332 65.6012 38.2956 65.6826 38.2872C65.6699 38.1274 65.6698 37.9705 65.6978 37.8191C65.7919 37.281 66.1302 36.9839 66.4049 36.7457C66.5142 36.6504 66.616 36.5607 66.6948 36.4626C66.8703 36.2496 66.9135 35.9974 66.9669 35.6779C67.0356 35.2771 67.1195 34.781 67.5341 34.369C67.9792 33.9262 68.5235 33.489 69.1974 33.0405C69.9045 32.5669 70.6141 32.1997 71.4966 31.8494C71.9849 31.656 72.3283 31.401 72.4427 31.1543L71.2931 27.04L58.4697 24.4083C58.3959 24.3943 58.3298 24.355 58.2739 24.299L54.2376 20.0249C54.1308 19.91 54.0926 19.739 54.1409 19.5821L55.3617 15.7508C55.1252 15.3752 54.9523 14.7782 54.7463 14.0131C54.6776 13.7581 54.614 13.517 54.5555 13.3461C54.4792 13.1191 54.3927 12.8976 54.3012 12.6622C54.1104 12.1774 53.9146 11.6785 53.8256 11.1263C53.7366 10.5714 53.706 9.98845 53.678 9.42791C53.6679 9.22612 53.6577 9.02432 53.645 8.83094C53.617 8.39372 53.5992 7.95371 53.5839 7.5277C53.5763 7.30348 53.5661 7.08207 53.556 6.85785C53.5356 6.40382 53.584 5.9722 53.6297 5.5574C53.6679 5.21267 53.7035 4.88757 53.701 4.56526L53.7086 4.55684Z"/>
</svg>
