<svg width="58" height="80" viewBox="0 0 58 80" fill="none" xmlns="http://www.w3.org/2000/svg">
<path d="M30.5588 10.3499C30.5665 10.3891 30.5665 10.4312 30.5614 10.4732L30.012 15.8292C29.9891 16.0422 29.8264 16.2019 29.6331 16.2019H25.3882L21.4512 21.6251L17.158 31.0421C17.125 31.115 17.0741 31.1738 17.0105 31.2159L9.62978 36.0113L3.56141 44.879C3.61227 44.907 3.66568 44.935 3.71909 44.9631C4.3829 45.3162 5.0696 45.6806 5.69272 46.1878C6.25479 46.6447 6.33872 47.009 6.45572 47.5135C6.47606 47.606 6.50147 47.7097 6.52945 47.8246C6.5676 47.9759 6.63119 48.1385 6.69732 48.3123C6.82957 48.657 6.97965 49.0466 6.96947 49.4586C6.96693 49.5931 6.90589 49.7164 6.8067 49.7921C6.70751 49.8678 6.58032 49.8874 6.46587 49.8454C5.24253 49.3913 4.46683 50.6721 3.71655 52.1407C3.54106 52.4827 3.30198 52.8302 3.0451 53.203C2.59748 53.8532 2.08881 54.5875 2.08881 55.148C2.08881 55.5544 2.10407 55.9636 2.11933 56.4008C2.16256 57.6088 2.20834 58.8588 1.92349 60.0219C1.58777 61.4036 1.42501 62.435 1.52929 63.9344C1.61067 65.1088 1.90568 65.7618 2.45758 66.6222C2.50082 66.6923 2.56441 66.7736 2.63308 66.8661C2.91539 67.2416 3.23585 67.6704 3.20279 68.0993C3.16718 68.5477 2.76534 68.9597 2.44488 69.2932C2.36858 69.3717 2.30245 69.4417 2.25413 69.4978C2.15748 69.6127 2.02777 69.7472 1.87263 69.9042C1.61576 70.1676 0.845119 70.9636 0.847663 71.2523C0.969742 71.4821 1.57507 72.2696 1.72258 72.3845C1.75819 72.4042 1.91078 72.3678 2.15748 72.2669C2.188 72.2528 2.24142 72.2164 2.29229 72.18C2.48304 72.0426 2.80347 71.8128 3.25364 71.9726C3.59445 72.0931 3.75214 72.3621 3.86659 72.5583C3.91746 72.648 3.96326 72.7237 4.01413 72.7713C4.3295 73.0712 5.0645 73.1721 5.58589 72.9899C5.82242 72.9087 5.95721 72.7685 6.12762 72.5919C6.37941 72.3341 6.68971 72.0146 7.32045 71.9669C7.79606 71.9305 8.27164 71.9782 8.73453 72.023C9.10077 72.0595 9.44667 72.0959 9.79002 72.0903C10.8582 72.0763 11.9417 71.7315 13.1014 71.0337C13.8492 70.5852 14.3273 70.7814 14.9733 71.1289C15.0852 71.1906 15.1869 71.2495 15.2785 71.3083C15.5405 71.4681 15.7033 71.569 15.9856 71.5578C16.0466 71.5578 16.1025 71.5354 16.1966 71.4961C16.3798 71.4204 16.657 71.3055 17.0461 71.4625C17.4912 71.6447 17.7735 72.051 18.0228 72.4126C18.1754 72.634 18.3229 72.847 18.4831 72.9759C19.3148 73.6514 19.3962 74.0521 19.5157 74.9714L19.5513 75.2321C19.6505 75.9496 19.8438 76.3475 20.1744 76.5213C20.3753 76.625 20.6271 76.6783 20.8967 76.7343C21.2502 76.8072 21.6496 76.8913 22.0031 77.1183C22.6745 77.5443 23.1628 78.3655 23.5952 79.0886C23.6919 79.2511 23.786 79.4081 23.8801 79.5566C23.9538 79.4921 24.0276 79.4277 24.1013 79.3604C24.6812 78.8447 25.3374 78.2618 26.108 78.088C26.4768 78.0067 26.8456 77.9927 27.2016 77.9787C27.7306 77.9591 28.2291 77.9423 28.6564 77.704C28.8828 77.5779 29.1346 77.2276 29.3787 76.8885C29.7526 76.37 30.1366 75.8319 30.658 75.8038C31.5405 75.7618 32.1001 76.5661 32.5528 77.2164C32.68 77.4014 32.8046 77.5779 32.9216 77.7181C33.5752 77.1968 34.0305 77.2472 34.824 77.6116C35.0809 77.7293 35.3479 77.6928 35.6557 77.6536C35.8286 77.6312 36.0117 77.6059 36.205 77.6059C36.4568 77.6059 36.7264 77.648 37.0163 77.7853C37.7666 78.1413 38.2651 78.7438 38.7458 79.3268C38.901 79.5174 39.0535 79.6995 39.2112 79.8733L40.7372 75.162C40.6584 74.8733 40.6406 74.5426 40.6228 74.2231C40.6101 74.0073 40.5974 73.8027 40.5694 73.6373C40.5363 73.4496 40.5058 73.2618 40.4753 73.074C40.3914 72.5499 40.31 72.0566 40.1904 71.5578C40.0251 70.8739 39.9005 70.2965 39.9386 69.6099C39.9692 69.0465 40.1217 68.5168 40.2693 68.0039C40.3405 67.7573 40.4066 67.5247 40.46 67.2893L40.5084 67.0763C40.6025 66.6531 40.7016 66.213 40.8669 65.7702C40.9025 65.6749 40.9458 65.5712 40.989 65.4675C41.0984 65.2013 41.223 64.9014 41.2306 64.694C41.2332 64.6155 41.2561 64.537 41.2968 64.4726L44.6285 59.1166C44.6489 59.0858 44.6718 59.0578 44.6972 59.0325L45.829 57.9871C46.1087 57.0679 46.5335 56.0085 46.9786 55.134C47.2456 54.6071 47.5584 53.9821 47.8357 53.3431C48.0264 52.9059 48.1739 52.4266 48.3189 51.967C48.4156 51.6587 48.5122 51.342 48.6266 51.0337C48.7233 50.7702 48.8326 50.504 48.9395 50.2461C49.1709 49.6912 49.41 49.1194 49.4939 48.5673C49.5244 48.3655 49.6847 48.217 49.8703 48.217H52.317C52.3679 48.1749 52.4264 48.1469 52.4925 48.1357C52.6121 48.1161 52.7316 48.1609 52.818 48.2534C53.6472 49.1615 53.9219 49.2063 54.0007 49.1839C54.0109 49.1839 54.049 49.1363 54.0821 49.0157C54.1007 48.9503 54.0897 48.8747 54.049 48.7887C54.0109 48.7075 53.9651 48.6066 53.9193 48.4692C53.8252 48.1806 53.8074 47.8554 53.8608 47.4378C53.8812 47.2865 53.9091 47.1492 53.9397 47.0146C53.9753 46.8549 54.0083 46.7035 54.0134 46.5606C54.016 46.4933 54.0134 46.4233 54.0134 46.356C54.0083 46.1458 54.0032 45.8852 54.105 45.6245C54.2728 45.1873 54.6162 44.9182 54.9214 44.68C55.0892 44.5483 55.2469 44.4249 55.3563 44.2932C55.5038 44.111 55.636 43.9205 55.7734 43.7215C55.9285 43.4944 56.0913 43.2618 56.2846 43.032C56.8696 42.3369 56.9688 41.4065 57.0731 40.4227C57.0959 40.2069 57.1188 39.9883 57.1468 39.7725C57.1926 39.4109 57.2714 39.055 57.3452 38.7075C57.4393 38.2702 57.5283 37.8499 57.5614 37.4351C57.1595 37.379 56.9459 37.1856 56.9077 36.5045C56.9026 36.3952 56.9103 36.2551 56.923 36.0898C56.9306 35.9804 56.9433 35.7899 56.9433 35.6441C56.7755 35.6778 56.5516 35.7478 56.4728 35.7899C56.4092 35.8235 56.394 35.8459 56.366 35.8767C56.0761 36.2355 55.7988 36.0533 55.4479 35.8235C54.9417 35.49 54.6187 35.1621 54.4509 34.4642C54.4432 34.4306 54.4381 34.3941 54.4381 34.3577V32.592C54.3873 32.5948 54.3364 32.6004 54.2855 32.6032C53.7235 32.6481 53.024 32.7069 52.5612 32.1856C52.3577 31.9558 52.2305 31.6559 52.1186 31.3925C52.0449 31.2159 51.9737 31.0505 51.8923 30.9272C51.6736 30.5993 51.3302 30.3526 50.9691 30.092C50.5367 29.7809 50.0535 29.4334 49.7508 28.8897C49.4202 28.9541 49.0692 29.069 48.8784 29.1811L48.7233 29.2708C48.4664 29.4222 48.2019 29.5763 47.8967 29.7052C47.7848 29.7529 47.6576 29.7389 47.5559 29.666C47.4542 29.596 47.388 29.4754 47.3804 29.3409C47.355 28.9289 47.3702 28.5674 47.4287 28.2647C47.5305 27.7434 47.8407 27.2361 48.1129 26.7877C48.2172 26.6167 48.3164 26.4513 48.3901 26.3112C48.6012 25.9048 49.0412 25.0584 48.8784 24.453C48.8276 24.2596 48.5961 24.041 48.3927 23.8504C48.2808 23.7439 48.1638 23.6346 48.0646 23.5169C47.6627 23.0461 47.1617 22.4575 47.1464 21.6195C47.1312 20.8684 47.4287 20.2238 47.7187 19.5988C47.8713 19.2708 48.0137 18.9597 48.1027 18.6514C48.207 18.2871 48.1205 18.1021 47.8916 17.6845C47.8331 17.578 47.7721 17.4631 47.711 17.3398C47.3575 16.6139 47.2049 15.9777 47.2278 15.3443C47.2329 15.2322 47.2787 15.1257 47.355 15.05C47.4313 14.9743 47.533 14.9351 47.6347 14.9435C47.7975 14.9575 47.9908 14.8622 48.1943 14.7613C48.2502 14.7333 48.3062 14.7081 48.3596 14.6828C48.5122 14.6128 48.6775 14.5651 48.8378 14.5203C48.9751 14.4811 49.115 14.4418 49.232 14.3886C49.0972 13.9486 48.914 13.5534 48.6597 13.1582C48.5834 13.0405 48.5224 12.9171 48.4613 12.7966C48.3977 12.6705 48.3392 12.5528 48.2757 12.4659C48.2273 12.3987 48.1688 12.3622 48.0646 12.2949C47.9705 12.2361 47.856 12.166 47.7416 12.0511C47.3423 11.6559 47.3855 11.2804 47.4465 11.0926C47.6246 10.5461 48.296 10.3751 48.6623 10.3583C49.4736 10.3247 49.8653 10.2266 50.4528 9.7417C50.5418 9.66603 50.6359 9.59598 50.73 9.52311C51.376 9.02424 51.4599 8.87286 51.2819 8.50851C50.9207 7.75459 51.2208 7.32298 51.4396 7.00627C51.5515 6.84372 51.6481 6.70361 51.6914 6.50462C51.7295 6.32805 51.5591 6.02534 51.2666 5.75348C51.1496 5.64418 50.9182 5.59654 50.6944 5.55169C50.379 5.48723 50.0229 5.41717 49.7788 5.13129C49.4659 4.76694 49.4761 4.25687 49.4837 3.84767C49.4888 3.59263 49.4939 3.32916 49.4227 3.20024C49.1938 2.77983 48.4944 2.45751 48.0061 2.5528C47.8535 2.58083 47.706 2.65931 47.5483 2.74059C47.1973 2.92277 46.6657 3.19463 46.124 2.6397C45.5848 2.08477 44.9032 2.13801 44.041 2.20527L43.807 2.2221C43.2806 2.26134 42.9576 2.44351 42.4794 2.81627C42.0115 3.18062 41.485 3.59261 40.7143 3.2675C40.6304 3.23387 40.5567 3.20024 40.4854 3.16941C40.1268 3.01246 39.9641 2.93958 39.5266 2.95079C39.4681 2.95079 39.4045 2.95079 39.3384 2.95079C39.112 2.94799 38.8247 2.95081 38.6848 3.03769C38.6797 3.0461 38.6593 3.07693 38.6364 3.10776C38.5805 3.18343 38.5118 3.27592 38.4177 3.34879C38.2855 3.45249 38.1151 3.42444 37.9141 3.43565C37.3546 3.46368 36.5077 3.51132 36.1465 2.83868C36.0295 2.62287 35.9685 2.38466 35.9074 2.15203C35.8744 2.02311 35.8413 1.90259 35.8032 1.79889C35.7701 1.70921 35.7345 1.61672 35.6964 1.52143C35.5768 1.21874 35.4471 0.88241 35.381 0.532074L29.5313 4.212L30.541 10.3527L30.5588 10.3499Z"/>
</svg>
