<svg width="80" height="93" viewBox="0 0 80 93" fill="none" xmlns="http://www.w3.org/2000/svg">
<path d="M53.5205 56.03C53.3577 55.5844 53.2687 55.1359 53.1924 54.7155C53.0373 53.8607 52.7575 53.0031 52.4879 52.1763L52.4142 51.9521C52.3074 51.6213 52.1802 51.3074 52.0454 50.9739C51.9233 50.6712 51.7987 50.3573 51.6868 50.0322C51.3867 49.141 51.351 48.2189 51.318 47.3276C51.2798 46.3355 51.3154 45.3545 51.3485 44.5137C51.3536 44.382 51.3561 44.2531 51.3587 44.1213C51.3714 43.6197 51.3816 43.104 51.5138 42.5883C51.7732 41.5765 52.3811 40.7862 52.9661 40.0182C53.3679 39.4941 53.7494 38.9952 54.0165 38.4431C53.7367 38.2413 53.4366 38.062 53.1288 37.8798C52.8287 37.7032 52.5184 37.5182 52.2183 37.3052C51.8216 37.025 50.9619 36.3635 50.4583 35.5732C49.3342 36.7307 48.4008 36.683 47.7929 36.414C47.5946 36.3243 47.4114 36.1925 47.2334 36.0636C47.1062 35.9711 46.9893 35.8843 46.8799 35.8282C46.8392 35.8058 46.8036 35.789 46.7731 35.7722C46.4373 35.604 46.2924 35.4498 46.2771 34.9257C46.2695 34.6987 46.3076 34.4577 46.3458 34.2251C46.3687 34.0877 46.389 33.9588 46.3992 33.8467C46.4272 33.4852 46.4984 33.1096 46.8189 32.7929C46.9358 32.678 47.035 32.6051 47.1139 32.5463C47.2461 32.4482 47.2639 32.4341 47.3173 32.2492C47.4013 31.9521 47.4191 31.5317 47.3682 30.9964C47.3555 30.8815 47.3886 30.7666 47.4572 30.6769C47.5259 30.59 47.6251 30.5367 47.7294 30.5311C47.9532 30.5199 48.1948 30.548 48.4516 30.5788C48.8586 30.6264 49.3189 30.6797 49.5784 30.5367C49.6775 30.4807 49.7895 30.3237 49.8963 30.1696C50.0031 30.0154 50.115 29.8557 50.26 29.7239C50.6618 29.3596 51.2214 29.0989 51.6868 29.0569C52.2514 29.0037 52.287 29.0009 52.5693 28.488C52.6354 28.3675 52.699 28.2413 52.7626 28.1152C52.9101 27.8209 53.0627 27.5154 53.2687 27.2436C53.5765 26.84 53.8995 26.7671 54.1614 26.7083C54.2606 26.6858 54.3547 26.6634 54.4514 26.627C54.6854 26.5373 54.7947 26.4056 54.96 26.2094C55.0364 26.1169 55.1177 26.0216 55.2144 25.9263C55.5476 25.59 55.8884 25.618 56.1351 25.6376C56.1681 25.6376 56.1986 25.6432 56.2292 25.6432C56.2444 25.192 56.3741 24.752 56.4937 24.3512C56.5191 24.2643 56.5445 24.1802 56.5674 24.099C56.6081 23.9504 56.6386 23.7739 56.6692 23.5861C56.7734 22.9611 56.9032 22.1819 57.5975 21.9073C57.8289 21.8148 58.0731 21.7475 58.3096 21.683C58.5538 21.6158 58.7827 21.5513 58.9963 21.4644C59.2379 21.3663 59.271 21.2598 59.2608 20.6545C59.2608 20.5732 59.2583 20.4919 59.2583 20.4078C59.2583 19.8613 59.6423 19.6567 59.8712 19.5362C60.0162 19.4605 60.1052 19.4073 60.1383 19.3372C60.2247 19.1466 60.2705 18.9224 60.3188 18.6842C60.3672 18.4488 60.418 18.2049 60.5121 17.9583C60.5604 17.8322 60.6622 17.7369 60.7868 17.7116C60.8987 17.6864 61.0157 17.7172 61.1047 17.7957C61.1301 17.7397 61.1607 17.6808 61.1938 17.6248C61.4303 17.2324 61.7762 16.9689 62.0229 16.8176C62.8139 16.3355 63.353 16.5765 63.9075 16.8708C63.938 16.7335 63.9634 16.6046 63.9736 16.4784C63.9939 16.2626 64.1567 16.1001 64.3525 16.1001C64.3576 16.1001 64.3627 16.1001 64.3653 16.1001C64.7875 16.1169 65.1613 16.2486 65.52 16.3748C65.8404 16.4869 66.1431 16.5962 66.4508 16.6102C66.4559 16.6102 66.4584 16.6102 66.4635 16.6102C66.4635 16.5962 66.4686 16.5822 66.4712 16.5653C66.4966 16.4112 66.5169 16.2598 66.5398 16.1113C66.583 15.7974 66.6263 15.4751 66.7204 15.1304C66.8603 14.6063 66.7967 14.2027 66.7102 13.6421L66.6746 13.4095C66.578 12.7593 66.873 12.2324 67.135 11.7643C67.2698 11.5233 67.3969 11.2963 67.4605 11.0777C67.5139 10.8871 67.6818 10.7638 67.8598 10.7834C68.1497 10.8142 68.3532 11.002 68.516 11.1561C68.577 11.215 68.6355 11.2683 68.6838 11.2991C68.8593 11.414 69.0806 11.4785 69.3146 11.5485L69.4087 11.5766C69.9733 11.7475 70.7719 11.8008 71.4001 11.7223C71.3874 11.4252 71.3798 11.0973 71.4535 10.7946C71.5069 10.576 71.7053 10.4415 71.9062 10.4919C72.008 10.5171 72.2496 10.4583 72.8193 10.0295C73.0965 9.82208 73.3458 9.55862 73.6103 9.28115C73.8163 9.06534 74.0299 8.84114 74.2639 8.63934C74.4241 8.49921 74.5818 8.35346 74.7344 8.21333C75.561 7.44819 76.413 6.65784 77.7839 6.81479C77.8602 6.8232 77.9263 6.83161 77.9848 6.84002C78.0331 6.84563 78.0916 6.85403 78.1298 6.85684C78.1781 6.78397 78.2569 6.62701 78.2875 6.57096C78.4935 6.16457 78.7427 5.83665 78.9843 5.51995C79.1573 5.29293 79.32 5.07993 79.465 4.8417C79.61 4.60348 79.1802 4.05415 78.9741 3.7907C78.7885 3.55247 78.4172 3.54125 77.9161 3.59451C77.7127 3.61973 77.5219 3.45156 77.499 3.22174C77.4583 2.80134 77.2879 2.61637 76.9802 2.28566C76.9013 2.20157 76.82 2.11188 76.736 2.01659C76.6801 1.95213 76.6241 1.88486 76.5682 1.81759C76.4003 1.613 76.2401 1.41962 76.062 1.2963C75.8916 1.17859 75.5025 1.14775 75.416 1.22343C75.3397 1.37757 75.1973 1.44484 75.0396 1.41962C74.6785 1.36076 74.3275 1.201 73.9867 1.04686C73.6128 0.875892 73.2593 0.716141 72.9541 0.716141C72.8346 0.716141 72.6616 0.943168 72.4403 1.3916C72.3997 1.47568 72.3666 1.55135 72.3361 1.61581C72.1479 2.04182 71.9622 2.3389 71.273 2.27443C71.1026 2.25762 70.9423 2.2268 70.7999 2.20158C70.3522 2.1147 70.1437 2.08666 69.8792 2.3333C69.5257 2.66121 69.2968 3.02276 69.0348 3.43756C68.9509 3.56928 68.867 3.70101 68.7779 3.83834C68.2794 4.58946 67.4757 4.80807 66.8908 4.96502C66.4864 5.07433 66.2015 4.96503 65.9726 4.88095C65.8633 4.83891 65.7666 4.80247 65.6598 4.79126C65.5377 4.77444 65.3775 4.84731 65.2096 4.92578C65.1155 4.96782 65.024 5.00986 64.9299 5.04349C64.8078 5.08553 64.6832 5.11076 64.5637 5.13318C64.5255 5.14159 64.4899 5.1472 64.4517 5.1556C64.5662 5.34619 64.6552 5.55919 64.6145 5.78901C64.5509 6.15056 64.2254 6.42242 63.8032 6.73632C63.7244 6.79518 63.6531 6.84842 63.6099 6.88766C63.5362 6.95493 63.4573 7.02499 63.3759 7.09786C62.9639 7.46502 62.4959 7.87981 62.3382 8.33945C62.3179 8.39831 62.3154 8.47679 62.3103 8.57489C62.3052 8.67018 62.3001 8.76267 62.2874 8.85796C62.2212 9.27556 62.0737 9.6511 61.9313 10.0155C61.8931 10.1164 61.8525 10.2144 61.8169 10.3153C61.7253 10.562 61.649 10.8563 61.5651 11.1674C61.3769 11.8793 61.181 12.6136 60.7537 13.1264C60.0645 13.9532 59.1871 13.3114 58.8971 13.1012C58.7903 13.0227 58.6885 12.9555 58.5944 12.8938C58.1595 12.6051 57.7526 12.3361 57.6636 11.4729C57.6458 11.3131 57.6509 11.159 57.656 11.0076C57.6611 10.8002 57.6687 10.604 57.6102 10.4751C57.5542 10.3518 57.3991 10.1976 57.2592 10.0631C57.2007 10.0071 57.1448 9.951 57.0965 9.90055C56.8498 9.6371 56.4301 9.19428 56.0638 8.99248C56.0638 8.99809 56.0588 9.00369 56.0562 9.0093C55.896 9.44371 55.718 9.93699 55.3034 10.0771C55.1177 10.1388 54.9219 10.1164 54.7235 10.0099C53.7596 10.2873 52.4294 10.974 51.8648 11.627C51.6359 11.8933 51.6537 12.2436 51.702 12.7929C51.7504 13.3423 51.8114 14.0289 51.3867 14.6063C51.0789 15.0267 50.672 15.4779 49.9853 15.632L49.9599 15.6376C49.497 15.7413 49.4385 15.7554 49.1409 16.1085C49.0366 16.2318 48.9501 16.47 48.8662 16.6971C48.7416 17.0334 48.6119 17.3809 48.3652 17.5967C48.2151 17.7257 48.0473 17.7537 47.9099 17.7761C47.8412 17.7873 47.7548 17.8013 47.7268 17.8266C47.531 17.9947 47.4343 18.275 47.3402 18.6702C47.3097 18.7963 47.2944 18.942 47.2766 19.099C47.2436 19.3792 47.2054 19.6987 47.0808 19.9846C46.9664 20.2481 46.7781 20.4274 46.6154 20.5844C46.5289 20.6685 46.4475 20.747 46.3966 20.8198C46.3356 20.9039 46.2491 20.9628 46.1525 20.9768C46.0406 20.9964 45.921 21.0104 45.7939 21.0272C45.3615 21.0805 44.8707 21.1393 44.6468 21.4084C44.5833 21.4841 44.5299 21.6046 44.4714 21.7307C44.3696 21.9605 44.2399 22.2464 43.9779 22.4398C43.8406 22.5407 43.6931 22.5743 43.5863 22.5995C43.5685 22.6023 43.5456 22.6079 43.5252 22.6135C43.5303 22.692 43.538 22.7985 43.5151 22.9134C43.4591 23.1993 43.3599 23.4347 43.2455 23.6926C43.1539 23.9 42.925 23.9896 42.7368 23.8888C42.4519 23.7374 42.223 23.502 42.0043 23.2722C41.956 23.2217 41.9077 23.1741 41.8619 23.1264C41.8034 23.2946 41.7296 23.4347 41.6254 23.5356C41.4372 23.7178 41.2439 23.7654 41.1142 23.7963C40.9844 23.8271 40.9819 23.8271 40.9412 23.9084C40.753 24.2811 40.5953 24.9902 40.5394 25.4667C40.519 25.646 40.3969 25.7918 40.2342 25.8282C39.9773 25.8843 39.7331 26.0861 39.4737 26.3019C39.2575 26.4813 39.0337 26.6662 38.7743 26.7923C38.0088 27.1623 37.6171 26.9493 37.1618 26.6999C37.0525 26.641 36.9329 26.5765 36.793 26.5121C36.2335 26.2542 35.2925 26.6634 34.6719 26.9353L34.5219 26.9997C34.0285 27.2099 33.4714 27.7116 33.2222 28.1601C33.1688 28.2554 33.0849 28.3254 32.9857 28.3506C32.5406 28.4684 32.098 28.5104 31.6708 28.5468C31.2587 28.5833 30.8671 28.6197 30.4831 28.7206C30.0202 28.8439 29.514 29.5025 29.1783 29.9398L29.1529 29.9734C28.8477 30.3714 28.6315 30.831 28.4051 31.3187C28.2983 31.5457 28.189 31.7839 28.0669 32.0138C28.0389 32.0642 28.0135 32.1175 27.988 32.1707C27.8838 32.3809 27.7642 32.6163 27.604 32.8181C27.4412 33.0227 27.2454 33.16 27.0724 33.2834C26.9478 33.3702 26.8334 33.4543 26.7418 33.5496C26.6146 33.6842 26.4188 33.7038 26.2713 33.5973C26.1746 33.5272 26.0347 33.4767 25.8847 33.4207C25.7092 33.3562 25.5032 33.2778 25.315 33.1432C25.1166 33.4291 24.8572 33.6617 24.6156 33.8775C24.3307 34.1326 24.0611 34.3708 23.9467 34.6427C23.8678 34.8277 23.9492 35.2116 24.1145 35.4274C24.14 35.4611 24.2315 35.5704 24.3002 35.5507C24.3536 35.5367 24.407 35.5087 24.4604 35.4835C24.6029 35.4162 24.8394 35.3013 25.0658 35.4723C25.3048 35.6516 25.3099 35.9936 25.2972 36.2991C25.2743 36.8035 25.0174 37.4706 24.5673 37.7733C24.0535 38.118 23.3643 38.1516 22.8098 38.1797L22.6674 38.1881C22.2833 38.2077 21.8917 38.2413 21.5127 38.2749C21.1211 38.3086 20.7166 38.345 20.3148 38.3646C19.9206 38.3871 19.5162 38.3506 19.1271 38.3198C18.6032 38.275 18.1097 38.2357 17.6468 38.3142C17.4663 38.345 17.2908 38.4599 17.0899 38.5917C16.9729 38.6673 16.8534 38.7458 16.7211 38.8187C16.5685 38.8999 16.4057 38.9448 16.2633 38.984C16.2277 38.9952 16.1895 39.0037 16.1565 39.0149C16.1946 39.1578 16.2429 39.3007 16.2913 39.4493C16.3777 39.7099 16.4668 39.979 16.5202 40.2817C16.5405 40.405 16.5125 40.5311 16.4388 40.6264C16.3676 40.7217 16.2608 40.7777 16.1463 40.7806C15.7852 40.7806 15.4876 40.8422 15.2663 40.9599C15.1315 41.03 15.1137 41.0776 15.0552 41.2374C14.9967 41.3943 14.9179 41.6073 14.7093 41.8091C14.3329 42.1707 13.898 42.0922 13.5826 42.0361C13.4046 42.0053 13.2367 41.9745 13.1121 42.0193L13.0587 42.039C12.9163 42.0894 12.723 42.1623 12.5475 42.2436C12.6162 42.3248 12.6874 42.4201 12.7408 42.5434C12.8527 42.8041 12.8476 43.0676 12.8425 43.2778C12.8425 43.3226 12.8425 43.3674 12.8425 43.4123V43.5608C12.8527 44.2839 12.8552 44.7604 12.1278 45.2957C12.0871 45.3237 12.049 45.3489 12.0159 45.3685C12.0516 45.4106 12.11 45.4723 12.1507 45.5143C12.2906 45.6628 12.4508 45.8282 12.5144 46.0748C12.5958 46.3915 12.4941 46.6606 12.4229 46.8568C12.4025 46.91 12.3822 46.9633 12.3694 47.0137C12.3033 47.28 12.3008 47.5378 12.2983 47.8349V47.9582C12.2983 48.0759 12.2499 48.1881 12.1711 48.2665C12.0922 48.345 11.9854 48.3842 11.8786 48.373C11.6878 48.3534 11.4945 48.2441 11.3267 48.104C10.963 48.8523 10.4798 49.2531 9.79814 49.7632C9.22843 50.1892 8.55953 50.6965 7.91607 51.2514C7.61596 51.5092 7.31077 51.7587 7.00811 52.0053C6.13321 52.7172 5.30408 53.3927 4.62247 54.2783C4.4597 54.4913 4.22316 54.7239 3.97391 54.9678C3.52628 55.4106 2.84978 56.0776 2.88793 56.4588C2.90065 56.6017 3.05832 56.7278 3.18803 56.8091C3.28722 56.8708 3.3737 56.9184 3.44745 56.9605C3.87219 57.1959 4.14177 57.4061 4.04258 58.1348C3.9612 58.743 3.69669 59.169 3.18039 59.5165C2.96421 59.6623 2.60053 59.7912 2.18088 59.9397C1.82227 60.0658 1.12541 60.3125 0.883789 60.5087C1.04911 60.8029 1.22203 61.0972 1.40515 61.3999L1.45349 61.4812C1.59846 61.7222 1.72816 61.9745 1.85024 62.2211C2.08168 62.6779 2.30043 63.1124 2.60563 63.4235C3.2084 64.04 3.89508 64.5361 4.62247 65.0602C4.88952 65.2536 5.15912 65.447 5.42872 65.6516C5.67288 65.8366 5.88651 66.044 6.09507 66.243C6.30108 66.4392 6.49435 66.6269 6.70799 66.7867C6.82244 66.8708 6.9547 66.9576 7.09712 67.0473C7.40741 67.2435 7.75841 67.4677 8.00766 67.7732C8.52395 68.401 8.66892 69.0905 8.74014 69.6819C8.78846 70.077 9.03768 70.5115 9.41664 70.5787C9.55652 70.6039 9.67099 70.7104 9.71677 70.8562C9.93295 71.5456 10.1262 71.9604 10.289 72.0894C10.3246 72.1146 10.4543 72.1314 10.5332 72.1426C10.7163 72.165 10.9249 72.1931 11.0927 72.3472C11.3445 72.5742 11.314 72.8965 11.2987 73.0703C11.2987 73.0871 11.2962 73.1039 11.2936 73.1208C11.347 73.146 11.4411 73.1544 11.5734 73.1656C11.8531 73.1852 12.2728 73.216 12.5551 73.6645C12.6721 73.8523 12.7662 74.0288 12.8578 74.2026C13.0765 74.6174 13.2495 74.9453 13.631 75.2172C13.7174 75.2788 13.7759 75.3741 13.7963 75.4834C13.8166 75.5927 13.7963 75.7076 13.7428 75.8001C13.692 75.887 13.6259 75.9683 13.5623 76.0468C13.5216 76.0972 13.458 76.1757 13.4198 76.2373C13.5826 76.4027 13.9845 76.6662 14.1167 76.7082C14.2159 76.739 14.3075 76.8147 14.3558 76.9128C14.4041 77.0109 14.4245 77.1314 14.394 77.2379C14.2998 77.5798 14.1218 77.8685 13.9489 78.1488C13.8344 78.3366 13.725 78.5131 13.6564 78.6841C13.5699 78.8999 13.4758 79.1493 13.4707 79.3651C13.4707 79.3876 13.4707 79.4044 13.4707 79.424C13.5089 79.4576 13.5496 79.4969 13.5979 79.5501C14.0913 80.0994 14.1981 80.7104 14.2998 81.3046C14.3304 81.4756 14.3583 81.6493 14.4016 81.8259C14.5643 82.5266 14.5542 83.0731 14.4881 83.6785L14.4804 83.7373C14.4702 83.8298 14.4448 84.0456 14.4728 84.1073C14.4906 84.1073 14.605 84.1185 14.6813 84.1269C14.8441 84.1409 15.045 84.1605 15.2256 84.2698C15.3248 84.3315 15.396 84.438 15.4164 84.5613C15.4901 84.9957 15.2638 85.2396 15.1417 85.3713C15.1162 85.3993 15.0781 85.4414 15.0705 85.4582C15.0806 85.5198 15.129 85.6095 15.1798 85.7048C15.2587 85.8477 15.3553 86.0271 15.3884 86.2541C15.5054 87.0697 15.2511 87.6639 15.0044 88.2384L14.9179 88.4402C14.7983 88.7261 14.9458 89.012 15.2002 89.452C15.2434 89.5277 15.2866 89.6033 15.3299 89.6818C15.3655 89.7463 15.4291 89.8332 15.4977 89.9257C15.7368 90.2508 16.1005 90.7412 15.8691 91.2934C15.7343 91.6157 15.4952 91.9184 15.2663 92.2099C15.747 92.2995 16.2302 92.3808 16.7135 92.4229C17.3035 92.4761 17.8758 92.5966 18.4277 92.7143C18.9007 92.8152 19.3534 92.9133 19.8138 92.9694C19.7985 92.9189 19.7807 92.8629 19.7578 92.8012C19.6637 92.5266 19.5467 92.1874 19.6714 91.7866C19.7146 91.6465 19.7629 91.5316 19.8036 91.4391C19.8214 91.3971 19.8443 91.3466 19.857 91.3102C19.8392 91.2878 19.8036 91.2541 19.74 91.2065L19.59 91.0916C18.8905 90.5647 18.2852 90.1078 18.4098 88.7878C18.4277 88.6 18.5574 88.4487 18.7252 88.4178C19.1601 88.3365 19.4755 88.614 19.707 88.8186C19.7858 88.8887 19.8621 88.9531 19.9282 88.9952L20.002 89.0428C20.002 89.0428 20.0045 89.0428 20.0071 89.0456C20.0223 88.998 20.0401 88.9335 20.0529 88.8859C20.0885 88.7485 20.1317 88.5944 20.2029 88.4543C20.2767 88.3113 20.3555 88.1712 20.4344 88.0311L20.6378 87.6695C20.765 87.4397 20.8972 87.2071 21.0219 86.9716C20.9252 86.8707 20.8108 86.781 20.6836 86.6858C20.5157 86.5568 20.3275 86.4111 20.1571 86.2149C19.7578 85.7468 19.7833 85.1247 19.8011 84.6258C19.8062 84.4997 19.8112 84.3735 19.8087 84.2558C19.801 83.9223 19.6637 83.7065 19.473 83.4122C19.3356 83.1992 19.178 82.9554 19.066 82.6387C18.9312 82.2603 18.8728 81.8259 18.9058 81.4784C18.9262 81.2626 18.9999 81.0804 19.061 80.9206C19.1322 80.7413 19.1729 80.6264 19.1525 80.5311C19.1067 80.3209 18.832 80.0042 18.6311 79.7771C18.5497 79.6846 18.4734 79.595 18.4098 79.5165C18.1301 79.1634 17.7562 78.7177 17.3595 78.3814C17.2603 78.3001 17.2043 78.1684 17.2094 78.0339C17.2272 77.3948 18.4811 76.0103 19.0711 75.9739H21.2177V70.5871C21.1745 70.1471 21.4364 69.8696 21.6094 69.6847C21.6806 69.609 21.767 69.5137 21.7798 69.4633C21.8052 69.3568 21.7848 69.2979 21.7187 69.1437C21.617 68.9083 21.4491 68.5131 21.7925 67.9947C22.2121 67.3584 22.7462 67.0053 23.4253 66.9184C23.8857 66.8596 24.4884 66.8035 25.0556 66.9072C25.4625 66.9801 25.6049 67.1006 25.8262 67.308C25.8644 67.3444 25.905 67.3837 25.9559 67.4285C26.1492 67.6023 26.345 67.7088 26.6095 67.7844L26.6604 67.7985C27.2912 67.9806 27.7464 68.1124 28.1915 68.8523C28.3136 69.0569 28.4229 69.2671 28.5272 69.4716C28.6976 69.8052 28.8604 70.1219 29.0689 70.3825C29.3335 70.716 29.5929 70.8338 29.9515 70.9935C30.0812 71.0524 30.2185 71.114 30.3635 71.1897C30.7552 71.3915 30.9459 71.7026 31.129 72.0053L31.2003 72.1202C31.4317 72.4902 31.6301 72.8097 31.6657 73.3506C31.6708 73.4347 31.6657 73.5243 31.6555 73.6084C31.653 73.6505 31.6453 73.7121 31.6453 73.7542C31.7318 73.8438 32.0726 73.956 32.3804 73.9447C32.8051 73.9223 33.4867 73.7514 33.7283 73.5636C33.8581 73.4627 33.9114 73.2805 33.9903 72.9918C34.0183 72.8937 34.0437 72.7928 34.0768 72.6975C34.326 71.9492 34.7431 70.9206 35.5036 70.632C35.819 70.5143 36.147 70.5339 36.4853 70.6936C36.498 70.6768 36.5107 70.6628 36.5235 70.646C36.9355 70.1443 37.3602 69.6202 38.2173 69.6706C38.4055 69.6819 38.581 69.7155 38.7514 69.7463C38.993 69.7912 39.2194 69.836 39.4305 69.7996C39.8527 69.7267 40.3359 69.5137 40.7632 69.3287L41.0251 69.2138C41.2439 69.1213 41.4651 69.0372 41.6864 68.956C42.1239 68.7934 42.5359 68.6421 42.9098 68.4038L43.07 68.3029C43.4744 68.0507 43.8915 67.7929 44.1458 67.4481C44.2933 67.2491 44.3416 66.9997 44.3951 66.7082C44.4485 66.4279 44.5069 66.1112 44.6723 65.8085C44.8884 65.4162 45.2115 65.1639 45.6133 65.0742C46.2924 64.9229 47.0325 65.2704 47.5004 65.6432C47.6327 65.7497 48.1134 65.0995 48.294 64.8528C48.4974 64.5726 48.6755 64.3315 48.8586 64.1914C49.0112 64.0737 49.1663 63.9476 49.3189 63.8242C49.8429 63.3982 50.3846 62.9582 51.0077 62.6864C51.173 62.6135 51.3434 62.5574 51.5087 62.5014C51.8114 62.4005 52.0988 62.3024 52.315 62.1314C52.5769 61.924 52.5592 60.9879 52.549 60.4274C52.5439 60.1639 52.5388 59.9173 52.554 59.7155C52.5617 59.6174 52.5719 59.5221 52.5795 59.424C52.6024 59.1942 52.6253 58.9784 52.6024 58.7822C52.5897 58.6757 52.5693 58.5776 52.5515 58.4879C52.4777 58.1376 52.3887 57.7032 52.788 57.2155C53.0271 56.9268 53.3374 56.6662 53.6121 56.4336L53.6909 56.3663C53.6808 56.3439 53.668 56.3214 53.6579 56.2962C53.6172 56.2121 53.5765 56.1281 53.5434 56.0412L53.5205 56.03Z"/>
</svg>
