<svg width="70" height="64" viewBox="0 0 70 64" fill="none" xmlns="http://www.w3.org/2000/svg">
<path d="M69.7779 51.9145L64.4395 44.933C64.4242 44.9386 64.4115 44.9498 64.3962 44.9554L62.3387 45.6028C62.3031 45.6141 62.27 45.6197 62.2344 45.6197C62.1098 45.6197 61.9928 45.5524 61.919 45.4375L55.7565 35.544C55.08 34.6499 54.3577 33.7363 53.6583 32.8562L53.3531 32.4694C53.142 32.2032 52.88 31.9341 52.6003 31.6511C52.0586 31.0989 51.5016 30.53 51.2065 29.8517C50.9598 29.692 50.708 29.5322 50.4664 29.4005C50.2426 29.2772 49.9806 29.2071 49.7034 29.1343C49.472 29.0726 49.2329 29.0081 48.9989 28.91C47.7298 28.3719 46.4403 27.8226 45.1432 27.8394C44.0242 27.8534 42.9433 28.0524 41.931 28.2514C41.6182 28.3131 41.3079 28.3719 40.9951 28.428C40.316 28.5513 39.6166 28.6802 38.9426 28.8568C37.9456 29.1202 37.0097 29.1062 36.1348 29.0698H36.0737C35.2268 29.0334 34.3519 28.9969 33.5101 28.6186C32.9149 28.3523 32.4825 27.9207 32.1926 27.3041C31.9688 26.8276 31.7857 26.6567 31.2643 26.4381C31.071 26.3568 30.8497 26.3147 30.6157 26.2699C30.425 26.2335 30.2292 26.197 30.0308 26.1354C29.8019 26.0625 29.6493 26.0177 29.4178 25.8719C28.7489 25.4571 28.665 24.5519 28.5912 23.7531C28.5506 23.2991 28.5022 22.7862 28.342 22.6096C28.0597 22.2957 27.607 22.0126 27.1695 21.7408C26.8008 21.511 26.4167 21.2755 26.1039 20.9981C25.7809 20.715 25.496 20.4123 25.2239 20.118C24.9009 19.7733 24.5957 19.4482 24.2345 19.1539C24.0005 18.9661 23.7309 18.8428 23.4436 18.7139C23.0824 18.5513 22.7111 18.3804 22.3804 18.0665C22.0473 17.7498 21.7726 17.3462 21.5081 16.9566C21.3885 16.78 21.269 16.6062 21.1469 16.4465C21.0757 16.3512 21.0121 16.2391 20.9485 16.1326C20.8901 16.0317 20.7832 15.8439 20.7324 15.8075C20.6586 15.757 20.4984 15.7374 20.3458 15.7178C20.1245 15.6898 19.8753 15.6561 19.6464 15.5244C19.097 15.2077 18.7257 14.6612 18.6036 13.9885C18.5502 13.6999 18.5654 13.4168 18.5756 13.1702C18.5909 12.8675 18.6036 12.6068 18.507 12.3854C18.3188 11.9566 17.6117 11.2783 17.0954 10.9392C16.8258 10.7627 16.5155 10.701 16.1874 10.6337C15.7373 10.544 15.2261 10.4403 14.7835 10.0143C14.3054 9.55749 14.1019 8.98013 13.9035 8.41959L13.8221 8.19258C13.5424 7.42184 13.4915 7.32655 12.9294 7.02386C12.1639 6.61187 12.0622 6.33441 12.0622 5.45436C12.0622 5.24977 12.0723 5.03115 12.0825 4.80133C12.1308 3.69147 12.1232 2.87589 11.5586 2.52555C11.0499 2.20605 10.4065 2.09393 9.72738 1.97622C9.19583 1.88373 8.64647 1.78565 8.14289 1.58105C7.98521 1.51659 7.82242 1.45213 7.65711 1.38766C7.06451 1.15784 6.40325 0.899994 5.85134 0.527237C5.65042 0.75986 5.43678 1.0121 5.21551 1.27555C4.80858 1.76041 4.38639 2.2621 4.00489 2.66569C3.95402 2.71894 3.01808 3.69707 2.08976 4.16792C2.72814 4.58552 3.29021 5.14045 3.62848 5.89718C3.71495 6.09056 3.78107 6.27835 3.83957 6.4437C4.01506 6.93417 4.10662 7.15839 4.45506 7.30133C4.68141 7.39381 4.92557 7.45267 5.18754 7.51153C5.51308 7.5872 5.85134 7.66847 6.17689 7.82262C6.97295 8.20379 8.34127 9.31366 8.75837 10.247C8.77363 10.2806 8.79144 10.3142 8.8067 10.345C8.90589 10.5412 9.07374 10.8664 8.86519 11.3064C8.69224 11.6735 8.47097 11.7352 8.29039 11.738C8.21664 11.7912 8.1378 11.8136 8.06913 11.8193C8.06913 11.8613 8.06913 11.9061 8.06913 11.9398C8.06913 12.0995 8.06912 12.2537 8.03606 12.3854C7.99028 12.5816 7.81988 12.7161 7.63676 12.6965C7.45364 12.6797 7.30613 12.5227 7.28578 12.3209C7.26035 12.0491 7.06705 11.8949 6.89156 11.8445C6.72116 11.794 6.48718 11.8165 6.3473 12.0295C6.23539 12.2032 6.02429 12.2537 5.85389 12.1528C5.37066 11.8613 5.07563 11.326 4.78823 10.8103C4.70176 10.6561 4.61783 10.502 4.53135 10.3647C4.51101 10.4095 4.49066 10.4515 4.46777 10.4936C4.41182 10.6001 4.31772 10.673 4.20835 10.6982C4.09899 10.7206 3.98709 10.6898 3.90061 10.6169C3.6946 10.4375 3.54455 10.1741 3.47079 9.8714C3.27241 9.84337 3.06895 9.84336 2.85276 9.84336C2.58317 9.84336 2.30595 9.84336 2.02364 9.79011C1.82017 9.75087 1.66248 9.68642 1.54803 9.64158C1.5404 9.63878 1.53278 9.63597 1.52515 9.63316C1.50734 9.67801 1.48699 9.74526 1.45902 9.83775C1.41069 10.0059 1.38018 10.1797 1.34966 10.3647C1.28353 10.743 1.2174 11.1326 0.985961 11.525C0.919834 11.6371 0.858791 11.7268 0.807925 11.7996C0.785035 11.8333 0.757061 11.8753 0.739258 11.9033C0.749431 11.937 0.779944 12.0098 0.851157 12.1444C1.1589 12.7273 1.68283 13.3103 2.23982 13.9241C3.33091 15.1292 4.56951 16.497 4.35333 18.2795C4.24142 19.1987 3.61322 19.7817 3.05877 20.2974C2.93669 20.4123 2.81461 20.5244 2.69762 20.6393C2.0567 21.2839 1.93462 22.1612 1.79474 23.1786L1.7515 23.4868C1.72352 23.6886 1.68792 23.8792 1.65231 24.0614C1.49717 24.891 1.44884 25.2722 1.9041 25.6757C2.14826 25.8915 2.41022 26.1045 2.6671 26.3091C3.23172 26.7632 3.81414 27.2312 4.29229 27.8198C4.4042 27.9571 4.51356 28.0973 4.62292 28.2402C5.07309 28.8176 5.53851 29.4173 6.11331 29.7677C6.29388 29.877 6.50244 29.9414 6.72371 30.0087C6.917 30.0676 7.11538 30.1264 7.31376 30.2217C7.50959 30.317 7.66474 30.4543 7.80208 30.5776C7.91144 30.6757 8.01572 30.7682 8.11745 30.8159C8.1734 30.8411 8.2319 30.8747 8.28785 30.9084C8.33109 30.9336 8.37432 30.9616 8.41756 30.9784C8.4964 31.0093 8.59814 31.0205 8.71005 31.0317C8.84993 31.0457 9.00762 31.0653 9.16785 31.1242C9.22634 31.1466 9.28739 31.1662 9.34843 31.1886C9.62565 31.2839 9.94102 31.3904 10.2081 31.6146C10.4446 31.8108 10.6328 31.9874 10.7854 32.1528C10.9253 32.3069 11.0448 32.4807 11.1618 32.6488C11.2203 32.7329 11.2763 32.8142 11.3348 32.8927L11.4263 33.016C11.5509 33.1841 11.6705 33.3439 11.8053 33.4784C11.9223 33.5933 12.0596 33.6998 12.202 33.8091C12.3267 33.9044 12.4487 34.0025 12.5657 34.1062C12.6547 34.1875 12.7489 34.2632 12.8481 34.3388C12.8328 34.2632 12.815 34.1875 12.7921 34.1118L12.7641 34.0221C12.6115 33.5317 12.3292 32.6208 12.9625 32.1107C13.0998 32.0014 13.2855 32.0042 13.4203 32.1163C13.6085 32.2761 13.7382 32.4751 13.8552 32.6516C13.934 32.7693 14.0078 32.8814 14.0867 32.9655C14.1095 32.9879 14.1248 33.0048 14.1375 33.016C14.1731 33.0104 14.224 32.9992 14.2545 32.9908C14.3054 32.9795 14.3181 32.9739 14.3232 32.9711C14.4173 32.8843 14.5419 32.8506 14.6589 32.8843C14.7784 32.9151 14.8751 33.0076 14.9234 33.1309C15.0989 33.5933 14.8827 34.1202 14.7276 34.5042C14.7072 34.5574 14.6869 34.6079 14.6691 34.6527L14.6513 34.7004C14.6233 34.7733 14.5902 34.8601 14.5623 34.9442C14.5928 34.9442 14.6207 34.9442 14.6513 34.9442C15.2693 34.9638 15.9077 34.9835 16.429 34.7901C16.8207 34.6443 17.1692 34.3669 17.5379 34.0754C18.0212 33.6914 18.5222 33.2934 19.1809 33.1393C20.2746 32.8814 21.4699 33.058 22.6246 33.2318C23.0086 33.2878 23.3698 33.3439 23.7157 33.3803C24.2905 33.4392 24.8805 33.4504 25.5062 33.4588C26.4447 33.4728 27.4162 33.4896 28.3267 33.6886C28.6828 33.7671 28.9956 33.9465 29.278 34.1483C29.2373 33.7671 29.2245 33.3775 29.278 33.0384C29.2983 32.9067 29.3746 32.7946 29.484 32.7329C29.5933 32.674 29.7205 32.674 29.8273 32.7329C30.0028 32.831 30.2419 33.044 30.4326 33.2766C30.4708 33.2374 30.5038 33.1982 30.5267 33.1589C30.5954 33.0384 30.7149 32.9655 30.8446 32.9655C30.9667 32.9543 31.0939 33.0356 31.1651 33.1533C31.3787 33.5092 31.4703 33.8904 31.5517 34.2267C31.5771 34.3304 31.6 34.4313 31.628 34.5294C31.7501 34.5042 31.8772 34.549 31.9663 34.6471C32.2002 34.9078 32.4037 35.2301 32.597 35.5384C32.8691 35.9672 33.1489 36.41 33.4821 36.6343C34.2705 37.1612 34.886 37.5031 35.4252 37.7105C36.0407 37.9487 36.7223 37.9067 37.442 37.8618C37.704 37.845 37.9761 37.8282 38.2406 37.8282C38.9502 37.8226 39.2147 37.6965 39.6598 37.1499C39.7539 37.035 39.8531 36.9201 39.9548 36.8052C40.2448 36.4745 40.5424 36.1354 40.6746 35.7598C40.8196 35.345 40.8425 34.891 40.8679 34.4145C40.8933 33.9352 40.9188 33.4392 41.0688 32.9459C41.4529 31.6847 42.0912 31.2587 43.3476 31.424C43.9148 31.4997 44.393 31.7464 44.8558 31.9846C44.9983 32.0575 45.1432 32.1331 45.2933 32.206C45.7511 32.4218 46.2394 32.5984 46.715 32.7693L46.9515 32.8534C47.0533 32.8899 47.2008 32.9235 47.3559 32.9571C47.7374 33.0412 48.1698 33.1365 48.447 33.3943C48.653 33.5849 48.7522 33.868 48.8387 34.1174C48.8921 34.2688 48.9557 34.4566 49.0167 34.5126C49.1617 34.6499 49.4109 34.692 49.6755 34.7396C50.1129 34.8153 50.6546 34.9106 50.942 35.5048C51.4812 36.623 52.6791 37.8142 54.4086 38.9493C55.4539 39.6359 56.6391 40.6421 56.7179 42.3854C57.5165 42.7329 57.7251 43.2234 58.0277 43.9324C58.0684 44.0305 58.1142 44.1342 58.1625 44.2435C58.277 44.5042 58.4169 44.7508 58.5618 45.0143C58.8747 45.5748 59.1977 46.1522 59.2892 46.8669C59.4062 47.7609 59.2816 48.6774 59.1595 49.563C59.0196 50.586 58.8874 51.5529 59.1214 52.4218C59.2689 52.9655 59.5359 53.3859 59.8182 53.8343C60.2506 54.5154 60.6957 55.2189 60.7033 56.3455V56.5529C60.7033 57.1864 60.7033 57.475 61.0187 57.8814C61.2247 58.1505 61.4816 58.3691 61.7308 58.5793C62.1403 58.924 62.5625 59.2828 62.7889 59.8797C63.0228 60.5019 62.9923 61.2755 62.9618 62.021C62.9338 62.6684 62.9084 63.3326 63.0635 63.8315L69.4371 57.2844L69.7703 51.9201L69.7779 51.9145Z"/>
</svg>
